<?xml version="1.0" encoding="UTF-8"?>
<!DOCTYPE svg PUBLIC "-//W3C//DTD SVG 1.1//EN" "http://www.w3.org/Graphics/SVG/1.1/DTD/svg11.dtd">
<svg xmlns="http://www.w3.org/2000/svg" version="1.1" width="315px" height="373px" style="shape-rendering:geometricPrecision; text-rendering:geometricPrecision; image-rendering:optimizeQuality; fill-rule:evenodd; clip-rule:evenodd" xmlns:xlink="http://www.w3.org/1999/xlink">
<rect x="0" y="0" width="315" height="373" fill="#ffffff"/>
<g><path fill="#ffffff" stroke="#ffffff" stroke-width="0.5" d="M 0,0 c 105,0 210,0 315,0 c 0,124.33 0,248.67 0,373 c -105,0 -210,0 -315,0 c 0,-124.33 0,-248.67 0,-373 Z M 73.93,157.91 c -0.29,-3.52 0.43,-7.05 -0.6,-10.54 c -4.49,-15.82 -17.88,-16.5 -30.49,-22.79 c -2.21,-1.66 -4.32,-3.39 -6.32,-5.21 c -2.63,1.59 -3.55,12.99 -3.67,16.1 c -0.26,11.74 3.64,22.99 14.81,28.27 c 2.26,0.69 4.48,1.41 6.65,2.17 c -3.8,11.01 12.02,12.85 19,8.83 c 0.74,-0.52 1.51,-0.97 2.32,-1.36 c 6.75,4.93 13.46,6.76 21.83,7.27 c 3.26,-0.44 6.54,-0.79 9.84,-1.04 c 3.07,-1.34 5.83,-3.16 8.29,-5.47 c 2.44,-2.54 4.71,-5.2 6.83,-7.96 c 1.63,2 3.26,4.01 4.88,6.06 c 1.25,1.03 2.42,2.12 3.51,3.27 c -5.07,3.47 -10.01,7.16 -14.84,11.05 c -5.83,3.81 -13.85,7.22 -11.33,15.72 c -5.72,13.52 -9.66,27.54 -11.83,42.06 c -3.01,0.53 -6.02,1.16 -9.03,1.88 c -2.62,-0.66 -3.88,0.64 -6.25,0.61 c -1.06,0.51 -2.07,1.11 -3.02,1.8 c -2.42,-1.9 -4.9,0.18 -7.12,1.27 c -0.63,0.05 -1.26,0.15 -1.88,0.28 c -0.21,0.89 -0.55,1.72 -1,2.49 c -0.46,-0.45 -0.82,-0.98 -1.07,-1.59 c -1.56,-0.6 -2.65,-0.1 -3.27,1.5 c -1.75,0.64 -2.2,0.11 -3.03,1.9 c -3.38,0.97 -2.25,1.94 -4.3,4.11 c -0.18,1.78 1.36,3.27 2.2,4.72 c 2.68,1.02 4.74,2.67 7.27,3.99 c 1.03,0.51 1.76,0.22 2.18,-0.87 c 0.26,0.89 0.76,1.6 1.51,2.12 c 1.55,0.47 3.07,1.01 4.56,1.64 c 1.98,-0.59 1.83,-1.89 3.03,0.61 c 1.57,0.65 2.62,-0.07 3.99,1.15 c 1.31,0.07 2.56,-0.16 3.76,-0.68 c 0.31,0.63 0.7,1.21 1.19,1.73 c 3.32,1.39 2.83,-2.95 5.04,-1.49 c -0.32,0.71 -0.71,1.38 -1.19,1.99 c 1.31,0.24 2.65,0.37 4.02,0.41 c 1.46,1.37 3.41,1.56 4.23,-0.54 c 0.65,0.58 1.31,1.17 1.97,1.76 c 2.16,0.24 4.41,1.11 6.77,0.89 c 2.02,1.31 3.09,1.53 5.11,0.21 c 0.92,0.6 1.93,0.95 3.02,1.05 c 0.72,-0.31 1.41,-0.67 2.08,-1.08 c 2.47,-0.02 0.28,2.51 3.91,1.69 c 1.51,-1.2 1.15,-3.59 3.04,0 c 1.34,0.08 2.66,0.28 3.96,0.6 c 2.2,-0.92 3.16,0.94 5.16,-0.49 c 1.79,0.66 1.93,1.33 3.89,0.2 c 0.96,0.46 1.99,0.73 3.06,0.8 c 3.94,0.11 0.36,-1.69 2.72,-1.79 c 0.4,0.6 0.8,1.21 1.18,1.83 c 2.42,0.73 3.03,0.1 4.28,-1.69 c 1.86,-0.58 -0.95,2.22 2.69,2.02 c 1.02,-0.27 1.98,-0.68 2.87,-1.23 c 1.68,2.39 3.33,1.35 5.24,0 c 0.59,0.67 1.28,1.2 2.07,1.6 c 2.64,0.69 1.96,-1.5 3.65,-1.41 c 0.99,1.46 2.34,1.9 4.08,1.33 c 0.71,-1.66 1.54,-1.71 2.49,-0.15 c 3.22,1.43 2.62,-1.16 4.38,-1.15 c 1.07,1.82 3.46,2.19 4.4,0.01 c 1.91,-0.32 1.48,1.88 3.76,1.41 c 0.69,-0.51 1.37,-1.03 2.05,-1.55 c 0.64,0.24 1.14,0.65 1.5,1.24 c 1.41,1.01 2.73,-0.25 3.64,-1.21 c 0.94,0.37 1.9,0.72 2.88,1.02 c 1.01,-0.24 1.97,-0.6 2.89,-1.07 c 2.3,1.37 2.82,1.21 5.25,0.12 c 0.92,0.41 1.88,0.67 2.87,0.8 c 1.64,-0.59 3.29,-1.34 5.02,-0.48 c 2.93,-0.89 6.78,-0.55 9.87,-0.81 c 1.3,-1.44 1.16,-2.57 3.01,-0.72 c 1.06,0.2 2.08,0.07 3.06,-0.4 c 0.26,-0.5 0.59,-0.95 0.98,-1.33 c 0.86,1.36 2.04,1.72 3.54,1.09 c 2.17,-2.99 2.99,1.39 5.65,-1.29 c 2.65,0 5.29,-0.13 7.91,-0.4 c 0.48,-0.41 0.86,-0.89 1.16,-1.44 c 0.93,0.22 1.86,0.5 2.78,0.84 c 1.58,-0.62 3.21,-1.09 4.9,-1.39 c 0.4,-0.51 0.8,-1.03 1.2,-1.56 c 1.69,1.72 3.75,1.19 4.9,-0.82 c 0.95,0.46 1.93,0.58 2.95,0.37 c 0.3,-0.84 0.64,-1.64 1.04,-2.42 c 0.9,1.22 1.02,2.11 2.98,1.64 c 0.83,-0.45 1.6,-1 2.29,-1.65 c 1.9,-0.27 3.76,-0.71 5.57,-1.32 c 0.66,-0.57 6.28,-4.08 6.92,-4.31 c 1,-1.68 2.99,-3.98 1.29,-5.83 c -0.93,-0.56 -4.51,-3.24 -4.99,-4.08 c -1.37,-0.53 -2.7,-1.16 -3.99,-1.88 c -2.59,0.21 -1.39,1.77 -3.22,-0.82 c -2.82,-1.66 -5.99,-0.84 -8.97,-3.06 c -0.78,0.07 -1.54,0.21 -2.26,0.44 c -0.98,-0.38 -1.87,-0.92 -2.66,-1.62 c -1.81,-0.79 -2.26,0.77 -3.8,0.99 c -0.12,-0.56 -0.18,-1.13 -0.18,-1.7 c -2.91,-0.73 -2.91,-0.51 -4.16,1.73 c -1.52,0.09 -0.61,-0.73 -0.35,-1.62 c 0.22,-1.96 -2.93,-0.36 -3.65,-0.08 c -3.3,-9.19 -6.66,-18.35 -10.08,-27.46 c 0.29,-0.45 0.72,-0.67 1.26,-0.68 c 15.55,-2.15 32.8,-8.68 43.23,-20.83 c 2.55,-9.56 -3.14,-25.12 -7.51,-33.86 c -15.33,-27.81 -47.96,-44.91 -78.84,-31.63 c -4.08,1.74 -7.68,4.19 -10.78,7.35 c -1.85,1.76 -3.54,3.64 -5.07,5.64 c -2.15,-2.04 -4.35,-4.08 -6.6,-6.1 c -2.56,-1.94 -5.33,-3.53 -8.31,-4.76 c -0.42,-0.27 -0.55,-0.65 -0.38,-1.11 c 22.36,-23.66 11.52,-59.54 -18.59,-69.67 c -0.15,-0.22 -0.3,-0.45 -0.45,-0.67 c 0.57,-3 1.08,-6.03 1.52,-9.08 c -0.23,-5.46 3,-20.06 -2.02,-23.48 c -10.76,-6.63 -20.93,-13.14 -30.46,-21.53 c -3.15,-1.77 -5.77,-4.26 -8.8,-0.38 c -4.84,13.96 22.31,25.92 33,27.15 c 0.17,0.16 0.34,0.32 0.52,0.48 c 0.3,3.42 0.99,24.55 -0.89,25.97 c -4.15,-0.65 -8.33,-1.07 -12.55,-1.26 c -2,0.25 -4.01,0.46 -6.03,0.62 c -3.67,0.6 -7.32,1.28 -10.93,2.03 c -2.2,-4.67 -4.55,-9.29 -7.07,-13.86 c -2.98,-4.58 -9.47,-15.84 -14.91,-17.14 c -2.74,-0.15 -5.45,0.06 -8.14,0.63 c -8.05,1.61 -16.06,3.31 -24.06,5.1 c -3.79,0.7 -12.82,0.4 -13.92,5.28 c -0.73,6.78 8.17,7.97 13.12,7.78 c 11.04,-1.1 21.02,-4.91 29.96,-11.45 c 5.06,6.16 10.11,12.35 15.12,18.58 c 1.54,2.19 2.95,4.44 4.24,6.77 c 0.08,0.51 -0.1,0.91 -0.54,1.18 c -8.44,3.7 -14.76,9.01 -18.52,17.53 c -7.02,5.5 -7.27,15.06 -6.67,23.16 c -3.99,10.53 -3.75,20.24 3.96,28.96 c 11.12,11.72 28.04,15.11 43.6,14.39 c 1.91,0.07 -0.08,3.12 -0.33,3.96 c -4.75,5.53 -11.13,12.18 -14.26,18.74 c -0.19,0.08 -0.38,0.16 -0.57,0.24 c -1.5,-0.79 -3.03,-1.53 -4.59,-2.21 c -5.79,-2.24 -11.78,-3.58 -17.96,-4.04 c -0.46,-0.26 -0.79,-0.62 -1,-1.1 c -0.95,-2.74 -2.63,-4.91 -5.05,-6.53 Z M 189.8,241 c -1.89,0.26 -1.02,-1.12 -2.32,-2.05 c -0.95,0.08 -1.86,0.31 -2.74,0.7 c -1.85,-1.24 -3.68,-1.21 -5.49,0.09 c -0.87,-0.38 -1.76,-0.73 -2.68,-1.04 c -0.84,0.17 -1.62,0.48 -2.35,0.94 c -0.88,-0.39 -1.79,-0.7 -2.73,-0.93 c -1.03,0.09 -1.99,0.37 -2.9,0.85 c -1.72,-1.12 -3.44,-1.12 -5.17,0.03 c -1.68,-1.06 -3.33,-1.06 -4.96,-0.02 c -2.7,-1.36 -3.83,-0.7 -6.36,0.5 c 0.63,-8.19 1.17,-16.38 0.8,-24.6 c 7.55,-10.26 8.46,-18.39 8.3,-31 c 0.13,-1.19 1.83,-1.84 2.5,-0.91 c 3.65,8.62 8.95,14.31 15.74,20.56 c 1.05,8.89 3.49,17.55 5.83,26.19 c 0.42,2.78 4.72,8.55 4.53,10.69 Z M 116.77,241.29 c -0.41,-0.31 -0.83,-0.59 -1.29,-0.83 c -2.87,0.43 -5.77,0.69 -8.69,0.76 c -1.24,-0.2 -1.56,0.2 -0.95,1.21 c -0.73,0.8 -1.61,0.98 -2.64,0.54 c 2.67,-6.39 4.83,-12.95 6.47,-19.67 c 1.09,-6.48 2.01,-12.98 2.76,-19.48 c 3.51,-3.39 7.59,-5.87 12.23,-7.43 c 4.08,-0.42 7.86,-1.69 11.35,-3.82 c 0.55,-0.29 1.11,-0.37 1.68,-0.25 c -2.03,2.93 -1.06,4.98 -1.82,8.12 c -2.81,8.25 -4.97,16.66 -6.48,25.24 c -0.56,3.6 -1,7.21 -1.32,10.81 c -0.33,0.45 -0.77,0.72 -1.31,0.84 c -3.85,0.8 -6.97,1.3 -9.99,3.96 Z"/></g>
<g><path fill="#fdfcfc" stroke="#fdfcfc" stroke-width="0.5" d="M 227.15,243.3 c -1.49,1.64 -3.03,-3.74 -5.16,-1.65 c -0.7,2.1 -2.08,1.11 -2.61,-0.38 c -3.09,-0.78 -2.3,0.22 -4.07,1.46 c -2.24,0.53 0.69,-1.71 -1.68,-2.34 c -1.99,0.67 -2.33,0.22 -4.11,-0.39 c -0.92,0.13 -1.71,0.52 -2.36,1.19 c -2.93,-2.17 -6.23,-3.44 -9.88,-3.81 c -0.54,-0.1 -0.92,-0.4 -1.14,-0.91 c -0.78,-8.24 -2.41,-16.3 -4.9,-24.19 c -0.14,-0.48 0.01,-0.82 0.45,-1.03 c 3.51,1.47 7.1,2.71 10.78,3.72 c 4.76,0.93 9.49,1.9 14.19,2.92 c 3.19,8.58 6.79,17.07 10.49,25.41 Z"/></g>
<g><path fill="#cea768" stroke="#cea768" stroke-width="0.5" d="M 68.19,144.31 c -1.99,1.5 -1.46,-2.27 -2.43,3.08 c -0.15,0.3 -0.39,0.5 -0.7,0.59 c -0.28,-1.08 -0.41,-2.18 -0.39,-3.29 c -2.01,-2.61 -1.86,5.98 -1.84,6.68 c -0.12,0.12 -0.24,0.23 -0.36,0.35 c -2.78,-1.8 -5.24,-3.96 -7.37,-6.5 c -0.83,-2.97 -1.43,-5.95 -1.8,-8.96 c -0.78,-0.03 -1.13,0.36 -1.05,1.18 c -0.08,2.08 0.01,4.15 0.27,6.2 c -2.76,-1.36 -5.7,-5.53 -7.94,-7.75 c -1.08,-1.65 -2.15,-3.29 -3.22,-4.9 c -0.34,0.32 -0.4,0.72 -0.2,1.17 c 1.24,2.4 2.52,4.75 3.84,7.07 c -0.02,2 -3.7,-3.15 -4.25,-3.39 c -0.69,-0.7 -2.97,-1.71 -2.27,0.31 c 0.62,0.72 1.15,1.51 1.57,2.37 c 0.94,0.6 1.8,1.28 2.6,2.04 c -1.1,0.28 -2.21,0.57 -3.33,0.87 c 0.89,0.29 1.68,0.73 2.38,1.32 c 0.02,0.83 -0.26,1.54 -0.86,2.13 c -1.75,-1.62 -2.64,-2.5 -3.49,0.36 c -1.92,-6.08 -1.43,-12.51 -0.36,-18.7 c 0.15,-1.28 0.79,-1.61 1.9,-0.98 c 9.39,8.37 23.37,5.38 29.3,18.75 Z"/></g>
<g><path fill="#eae4e3" d="M 138.19,249.42 c -2.21,0.27 -2.26,-0.93 -2.57,-2.73 c -1.7,-0.72 -2.57,-0.14 -2.6,1.75 c -0.79,0.26 -1.55,0.58 -2.3,0.95 c 0.02,1.26 -0.75,3.37 -2.19,1.64 c -0.03,-0.84 0.09,-1.67 0.36,-2.5 c -0.22,-0.3 -0.51,-0.48 -0.87,-0.56 c 1.38,-0.74 2.76,-1.51 4.14,-2.3 c 1.85,-3.78 3.69,-7.57 5.52,-11.37 c 3.37,-11.07 5.21,-21.2 5.08,-32.78 c 0.18,-1.67 2.69,-3.33 3.96,-4.31 c 0.31,0.32 0.38,0.71 0.23,1.17 c -1.74,6.22 -2.59,10.6 -2.2,17.08 c -3.2,11.25 -4.68,22.5 -6.56,33.96 Z"/></g>
<g><path fill="#b88f55" stroke="#b88f55" stroke-width="0.5" d="M 40.84,144.88 c 0.37,0.62 0.92,0.96 1.65,1.03 c 3.32,0.55 6.66,0.95 10.02,1.2 c 2.87,1.29 5.67,4.54 8.16,6.52 c -0.18,0.4 -0.51,0.6 -0.98,0.6 c -4.68,0.27 -9.36,0.6 -14.02,0.98 c -0.73,-0.61 -0.87,-2.24 -2.05,-2.01 c 0.03,0.71 -0.13,1.39 -0.48,2.05 c -1.99,-1.02 -6.05,-7.73 -5.79,-10.01 c 0.85,-2.86 1.74,-1.98 3.49,-0.36 Z"/></g>
<g><path fill="#9d7445" stroke="#9d7445" stroke-width="0.5" d="M 45.67,155.21 c 1.23,1.62 12.57,0.63 14.86,0.39 c 3.09,-0.27 4.98,3.62 7.05,5.35 c 0.29,0.38 0.44,0.81 0.44,1.28 c -3.83,-0.89 -7.54,-0.53 -11.13,1.09 c -0.43,-0.42 -0.92,-0.76 -1.46,-1.03 c -2.58,-0.53 -12.5,-3.92 -12.29,-7.04 c 0.35,-0.66 0.51,-1.34 0.48,-2.05 c 1.18,-0.23 1.32,1.4 2.05,2.01 Z"/></g>
<g><path fill="#c09b5d" d="M 45,139.23 c 0.55,0.19 1.01,0.51 1.36,0.98 c 1.21,1.39 2.34,2.81 3.4,4.27 c -2.95,0.12 -5.92,0.26 -8.92,0.4 c 0.6,-0.59 0.88,-1.3 0.86,-2.13 c -0.7,-0.59 -1.49,-1.03 -2.38,-1.32 c 1.12,-0.3 2.23,-0.59 3.33,-0.87 c -0.8,-0.76 -1.66,-1.44 -2.6,-2.04 c -0.42,-0.86 -0.95,-1.65 -1.57,-2.37 c -0.7,-2.02 1.58,-1.01 2.27,-0.31 c 0.55,0.24 4.23,5.39 4.25,3.39 Z"/></g>
<g><path fill="#d8d9db" d="M 106.79,241.22 c -0.52,4.16 2.52,1.09 2.41,4.16 c -0.66,0.56 -1.41,0.99 -2.23,1.29 c -0.18,2.02 0.08,2.74 -2.4,2.43 c -0.47,-0.68 -0.88,-1.4 -1.24,-2.16 c -0.6,-0.15 -1.12,-0.42 -1.56,-0.79 c 0.28,-1.15 0.76,-2.21 1.43,-3.18 c 1.03,0.44 1.91,0.26 2.64,-0.54 c -0.61,-1.01 -0.29,-1.41 0.95,-1.21 Z"/></g>
<g><path fill="#23100d" stroke="#23100d" stroke-width="0.5" d="M 240.28,245.2 c 0.52,1.83 0.97,3.65 1.34,5.48 c 6.88,1.67 11.9,1.58 16.91,7.34 c 2.14,3.27 1.31,5.47 -2.49,6.57 c -1.68,-0.42 -3.36,-0.45 -5.05,-0.09 c -6.77,-1.55 -12.58,-2.44 -15.41,-9.64 c -3.38,-3.33 -5.66,-6.99 -7.78,-11.2 c -0.16,-0.22 -0.38,-0.34 -0.65,-0.36 c -3.7,-8.34 -7.3,-16.83 -10.49,-25.41 c -4.7,-1.02 -9.43,-1.99 -14.19,-2.92 c -3.68,-1.01 -7.27,-2.25 -10.78,-3.72 c -0.44,0.21 -0.59,0.55 -0.45,1.03 c 2.49,7.89 4.12,15.95 4.9,24.19 c 0.22,0.51 0.6,0.81 1.14,0.91 c 3.65,0.37 6.95,1.64 9.88,3.81 c 1.71,2.03 1.53,5.45 -1.48,6.09 c -5.37,1.24 -12.93,0.36 -15,-5.68 c -0.23,-0.29 -0.53,-0.49 -0.88,-0.6 c 0.19,-2.14 -4.11,-7.91 -4.53,-10.69 c -2.34,-8.64 -4.78,-17.3 -5.83,-26.19 c -6.79,-6.25 -12.09,-11.94 -15.74,-20.56 c -0.67,-0.93 -2.37,-0.28 -2.5,0.91 c 0.16,12.61 -0.75,20.74 -8.3,31 c 0.37,8.22 -0.17,16.41 -0.8,24.6 c -0.81,2.92 -1.34,5.89 -1.59,8.92 c -1.32,4.07 -2.1,7.82 -4.18,11.7 c -1.03,8.49 -6.67,13.42 -14.89,14.93 c -2.73,-0.55 -5.39,-1.73 -4.5,-5.08 c 1.02,-3.74 3.19,-6.62 6.5,-8.65 c 1.56,-0.85 3.11,-1.68 4.66,-2.51 c 0.07,-3.31 0.09,-6.63 0.09,-9.96 c 1.88,-11.46 3.36,-22.71 6.56,-33.96 c -0.39,-6.48 0.46,-10.86 2.2,-17.08 c 0.15,-0.46 0.08,-0.85 -0.23,-1.17 c -1.27,0.98 -3.78,2.64 -3.96,4.31 c 0.13,11.58 -1.71,21.71 -5.08,32.78 c -1.83,3.8 -3.67,7.59 -5.52,11.37 c -1.38,0.79 -2.76,1.56 -4.14,2.3 c -4.1,-0.44 -8.77,1.18 -11.95,-2.57 c -0.2,-1.43 0.04,-2.8 0.7,-4.11 c 3.02,-2.66 6.14,-3.16 9.99,-3.96 c 0.54,-0.12 0.98,-0.39 1.31,-0.84 c 0.32,-3.6 0.76,-7.21 1.32,-10.81 c 1.51,-8.58 3.67,-16.99 6.48,-25.24 c 0.76,-3.14 -0.21,-5.19 1.82,-8.12 c -0.57,-0.12 -1.13,-0.04 -1.68,0.25 c -3.49,2.13 -7.27,3.4 -11.35,3.82 c -4.64,1.56 -8.72,4.04 -12.23,7.43 c -0.75,6.5 -1.67,13 -2.76,19.48 c -1.64,6.72 -3.8,13.28 -6.47,19.67 c -0.67,0.97 -1.15,2.03 -1.43,3.18 c -2.56,1.34 -3.01,6.22 -5.9,8.25 c -4.78,2.18 -13.2,4.86 -17.53,0.81 c -0.95,-2.04 -0.59,-3.82 1.08,-5.37 c 1.42,-1.28 2.87,-2.49 4.36,-3.62 c 3.01,-0.72 6.02,-1.35 9.03,-1.88 c 2.17,-14.52 6.11,-28.54 11.83,-42.06 c -2.52,-8.5 5.5,-11.91 11.33,-15.72 c 4.83,-3.89 9.77,-7.58 14.84,-11.05 c -1.09,-1.15 -2.26,-2.24 -3.51,-3.27 c -1.62,-2.05 -3.25,-4.06 -4.88,-6.06 c -2.12,2.76 -4.39,5.42 -6.83,7.96 c -2.46,2.31 -5.22,4.13 -8.29,5.47 c -3.3,0.25 -6.58,0.6 -9.84,1.04 c -8.37,-0.51 -15.08,-2.34 -21.83,-7.27 c -0.81,0.39 -1.58,0.84 -2.32,1.36 c -6.98,4.02 -22.8,2.18 -19,-8.83 c 1.01,-0.71 1.87,-1.57 2.58,-2.59 c 3.59,-1.62 7.3,-1.98 11.13,-1.09 c 0.65,0.64 1.43,0.88 2.33,0.72 c 0.98,-1.02 0.66,-3.45 0.95,-4.85 c 0.64,-0.4 1.02,-0.99 1.14,-1.76 c 0.22,0.8 0.72,1.32 1.49,1.57 c 2.42,1.62 4.1,3.79 5.05,6.53 c 0.21,0.48 0.54,0.84 1,1.1 c 6.18,0.46 12.17,1.8 17.96,4.04 c 1.56,0.68 3.09,1.42 4.59,2.21 c 0.19,-0.08 0.38,-0.16 0.57,-0.24 c 3.13,-6.56 9.51,-13.21 14.26,-18.74 c 0.25,-0.84 2.24,-3.89 0.33,-3.96 c -15.56,0.72 -32.48,-2.67 -43.6,-14.39 c -7.71,-8.72 -7.95,-18.43 -3.96,-28.96 c -0.6,-8.1 -0.35,-17.66 6.67,-23.16 c 3.76,-8.52 10.08,-13.83 18.52,-17.53 c 0.44,-0.27 0.62,-0.67 0.54,-1.18 c -1.29,-2.33 -2.7,-4.58 -4.24,-6.77 c -5.01,-6.23 -10.06,-12.42 -15.12,-18.58 c -8.94,6.54 -18.92,10.35 -29.96,11.45 c -4.95,0.19 -13.85,-1 -13.12,-7.78 c 1.1,-4.88 10.13,-4.58 13.92,-5.28 c 8,-1.79 16.01,-3.49 24.06,-5.1 c 2.69,-0.57 5.4,-0.78 8.14,-0.63 c 5.44,1.3 11.93,12.56 14.91,17.14 c 2.52,4.57 4.87,9.19 7.07,13.86 c 3.61,-0.75 7.26,-1.43 10.93,-2.03 c 2.02,-0.16 4.03,-0.37 6.03,-0.62 c 4.22,0.19 8.4,0.61 12.55,1.26 c 1.88,-1.42 1.19,-22.55 0.89,-25.97 c -0.18,-0.16 -0.35,-0.32 -0.52,-0.48 c -10.69,-1.23 -37.84,-13.19 -33,-27.15 c 3.03,-3.88 5.65,-1.39 8.8,0.38 c 9.53,8.39 19.7,14.9 30.46,21.53 c 5.02,3.42 1.79,18.02 2.02,23.48 c -0.44,3.05 -0.95,6.08 -1.52,9.08 c 0.15,0.22 0.3,0.45 0.45,0.67 c 30.11,10.13 40.95,46.01 18.59,69.67 c -0.17,0.46 -0.04,0.84 0.38,1.11 c 2.98,1.23 5.75,2.82 8.31,4.76 c 2.25,2.02 4.45,4.06 6.6,6.1 c 1.53,-2 3.22,-3.88 5.07,-5.64 c 3.1,-3.16 6.7,-5.61 10.78,-7.35 c 30.88,-13.28 63.51,3.82 78.84,31.63 c 4.37,8.74 10.06,24.3 7.51,33.86 c -10.43,12.15 -27.68,18.68 -43.23,20.83 c -0.54,0.01 -0.97,0.23 -1.26,0.68 c 3.42,9.11 6.78,18.27 10.08,27.46 Z M 103.36,15 c 1.3,4.53 14.33,11.35 18.73,13.44 c 4.51,0.13 5.97,3.88 11.53,2.07 c -0.3,-0.83 -0.8,-1.53 -1.5,-2.1 c -6.36,-4.04 -12.72,-8.06 -19.08,-12.05 c -3.43,-2.84 -6.99,-5.5 -10.67,-8 c -0.38,0.03 -0.67,0.22 -0.85,0.57 c -0.51,2.34 0.1,4.36 1.84,6.07 Z M 78.24,36.45 c 1.87,2.98 8.82,10.01 11.57,13.15 c 3.26,3.75 4.84,8.36 7.78,12.29 c 0.87,0.91 1.25,5.31 3.11,3.71 c -4.61,-10.18 -10.2,-18.98 -16.52,-28.19 c -1.29,-1.29 -2.51,-2.64 -3.65,-4.06 c -0.62,1.14 -1.39,2.17 -2.29,3.1 Z M 132.86,68.06 c -0.03,0.38 0.12,0.65 0.45,0.8 c 0.78,-1.3 1.31,-2.72 1.59,-4.25 c 1.01,-6.32 1.81,-12.68 2.41,-19.07 c 0.08,-4.02 0.01,-8.03 -0.21,-12.04 c -0.99,-1.67 -2.22,-0.41 -2.26,1.02 c -0.17,7.39 0.48,14.65 -0.18,22.06 c -0.75,3.8 -1.35,7.63 -1.8,11.48 Z M 67.13,35.9 c -5.87,0.67 -12.13,2.06 -17.75,3.76 c -3.3,0.42 -6.59,0.84 -9.88,1.29 c -1.52,0.08 -2.32,0.86 -2.42,2.33 c 1.94,6.16 21.99,0.79 26.51,-1.05 c 4.33,-2.46 8.66,-4.86 12.99,-7.21 c 0.25,-0.87 -0.09,-1.22 -1.02,-1.04 c -2.42,0.28 -4.83,0.68 -7.21,1.2 c -0.56,0 -0.97,0.24 -1.22,0.72 Z M 103.25,68.27 c -0.84,1.05 -1.91,1.79 -3.19,2.21 c -1.67,-1.37 -1.17,-3.38 -4.05,-2 c -3.77,2.41 -10.96,6.74 -12.72,10.9 c 0.49,0.51 1.1,0.81 1.82,0.91 c 13.5,7.29 6.64,42.12 -10.85,31.83 c -0.41,-0.75 -0.98,-1.34 -1.71,-1.78 c -0.69,2.26 -1.1,4.6 -1.24,7 c 0.38,1.56 0.61,3.14 0.71,4.74 c 0.56,2.93 1.97,6.02 4.16,8.04 c -0.08,2.24 8.58,8.44 10.94,9.1 c 1.16,0.91 2.44,1.67 3.84,2.28 c 15.73,6.24 33.84,4.71 49.04,-2.14 c 3.04,-1.47 5.9,-3.22 8.61,-5.23 c 1.79,-1.87 3.69,-3.61 5.71,-5.22 c 9.08,-9.67 12.45,-22.08 9.6,-35.05 c 1.22,-5.16 -11.51,-21.41 -15.81,-22.69 c -1.75,-1.18 -3.56,-2.29 -5.41,-3.33 c -1.72,-0.73 -3.45,-1.38 -5.2,-1.94 c -0.71,0.83 -1.04,1.81 -0.98,2.94 c -0.27,1.92 -1.13,3.48 -2.58,4.71 c -4.82,1.06 -3.34,-4.74 -3.11,-7.38 c 0.12,-0.73 -0.12,-1.3 -0.72,-1.7 c -6.88,-1.07 -13.23,-1.2 -20.12,-0.13 c -2.21,0.25 -4.35,0.79 -6.42,1.61 c -0.55,0.7 -0.65,1.47 -0.32,2.32 Z M 72.86,100.05 c -0.04,4.04 1.25,7.58 3.87,10.61 c 2.09,2.07 6.39,2.54 8.1,-0.16 c -1.06,-0.21 -2.13,-0.47 -3.2,-0.76 c -8.33,-5.48 -6.09,-25.12 5.88,-22.12 c 0.33,-0.48 0.32,-0.97 -0.05,-1.47 c -1.45,-2.09 -3.44,-2.87 -5.95,-2.31 c -6.22,1.67 -8.46,10.62 -8.65,16.21 Z M 79.7,93.05 c -0.05,2.63 1.19,3.65 3.73,3.08 c 4.83,-3.02 -1.32,-9.17 -3.73,-3.08 Z M 78.26,101 c 0.25,3.57 2.19,7.52 6.18,7.74 c 2.19,-0.52 4.43,-3.28 3.12,-5.42 c -4.49,1.6 -5.87,-1.35 -8.32,-4.14 c -1.26,-0.31 -0.94,1.03 -0.98,1.82 Z M 86.9,127.94 c 0.06,-0.58 0.24,-1.11 0.51,-1.61 c 6.97,5.38 16.61,6.53 23.2,-0.22 c 0.02,-0.87 -0.19,-1.7 -0.65,-2.47 c 1.19,-0.8 2.42,-0.81 3.69,-0.04 c 1.47,0.62 2.48,1.67 3.05,3.15 c 0.06,0.63 0.19,2.43 -1,1.98 c -2.72,-2.71 -2.16,-0.71 -4.31,1.05 c -6.74,5.25 -19.6,6.31 -24.49,-1.84 Z M 197.18,137.27 c 1.48,3.08 3.17,5.43 3.97,8.95 c 0.73,4.68 1.23,9.4 1.5,14.15 c -0.49,2.63 -0.83,5.29 -1.01,7.96 c -1,4.08 -2.17,8.08 -3.51,12 c 0.76,0.46 1.55,0.47 2.38,0.06 c 2.55,0.33 6.64,0.92 9.02,-0.06 c 1.02,0.6 2.09,1.09 3.22,1.47 c 1.96,2.32 3.83,4.72 5.61,7.22 c 0.05,0.68 0.11,1.36 0.15,2.05 c 1.01,2.45 2.11,2.5 3.32,0.14 c 1.49,-2.6 2.7,-5.33 3.65,-8.19 c 3.2,-7.93 4.21,-16.06 4.31,-24.55 c -0.24,-1.49 -0.6,-9.12 -1.68,-9.38 c -0.27,-2.46 -0.8,-4.85 -1.59,-7.19 c -0.36,-1.82 -1.19,-3.37 -2.5,-4.64 c -0.23,-0.76 -0.5,-1.48 -0.8,-2.18 c -2.99,-7.12 -17.7,-4.55 -23.67,-3.67 c -0.86,0.37 -6.83,0.73 -5.23,2.64 c 0.92,1.12 1.88,2.19 2.86,3.22 Z M 228.29,140.2 c 1.08,2.58 1.95,5.22 2.61,7.94 c 0.49,2.59 0.78,5.21 0.85,7.86 c 0.65,11.02 -1.03,21.67 -5.03,31.96 c -0.91,1.96 -1.91,3.88 -2.99,5.74 c -1.23,1.7 -1.76,3.57 -1.6,5.61 c 1.92,4.53 3.8,9.06 5.63,13.57 c 2.55,0.44 5.89,-1.03 7.39,-3.12 c 3.65,-2.14 6.76,-7.66 8.95,-11.33 c 1.39,-2.68 2.62,-5.45 3.66,-8.29 c 2.28,-5.46 3.76,-11.12 4.45,-16.99 c 0.7,-8.44 0.61,-16.81 -1.89,-24.89 c -1.71,-5.65 -16.55,-12.77 -22.01,-14.98 c -0.83,0.01 -3.59,-1.38 -4.13,-0.67 c 1.47,2.46 2.84,4.99 4.11,7.59 Z M 175.37,148.26 c 2.21,1.57 1.97,4.44 2.86,6.82 c -0.22,0.45 -0.31,0.93 -0.27,1.43 c 1.09,4.95 0.69,9.8 -1.2,14.55 c -0.64,-0.35 -1.13,-0.85 -1.45,-1.5 c 0.63,-1.81 2.97,-5.73 -0.16,-6.54 c -0.62,-1.12 0.03,-5.54 -0.9,-5.99 c -0.15,-1.82 -0.79,-3.44 -1.91,-4.87 c -1.97,-6.26 -9.66,-13.94 -16.35,-15.16 c -0.52,-0.95 -1.33,-1.31 -2.43,-1.1 c -4.77,3 -9.62,5.89 -14.53,8.66 c -5.45,1.39 -10.65,3.36 -16.38,3.68 c -0.81,0.65 -0.09,4.89 -0.3,6.06 c 0.33,1.94 0.82,3.83 1.49,5.65 c 2.06,5.55 5.56,9.96 10.49,13.22 c 1.65,1.13 2.53,0.73 2.64,-1.22 c 1.1,-0.57 1.79,-4.32 1.86,-5.65 c 0.7,-0.38 1.18,-0.94 1.44,-1.68 c 1.81,-5.58 4.21,-11.13 7.87,-15.72 c 5.99,-2.46 6.29,3.03 7.04,7.18 c -1.07,4.45 -2.08,8.91 -3.03,13.39 c 0.13,0.13 0.26,0.27 0.39,0.4 c 2.29,-0.61 5.55,-1.61 6.74,1.27 c -0.73,2.12 0.31,2.77 1.28,4.4 c -0.34,1.38 -0.01,2.55 0.97,3.51 c 0.84,0.09 1.66,0.25 2.46,0.49 c 0.67,1.31 1.37,2.61 2.08,3.91 c 0.92,1.1 1.78,2.23 2.58,3.41 c 0.75,0.17 1.49,0.17 2.24,-0.03 c 1.02,1.1 2.24,1.82 3.67,2.18 c 1.16,-0.32 1.53,-1.06 1.1,-2.25 c -0.1,-0.32 -0.3,-0.54 -0.61,-0.66 c -1.04,-2.76 -2.18,-5.47 -3.42,-8.14 c 0.8,-0.75 1.42,-1.63 1.86,-2.65 c 0.27,0.77 0.08,2.59 1.23,2.63 c 0.41,0.14 0.73,0.39 0.97,0.75 c 0.96,2.5 2.2,4.82 3.74,6.97 c 4.11,-1.34 8.3,-2.39 12.56,-3.17 c 2.73,-1.24 4.37,-3.35 4.92,-6.35 c 3.16,-9.19 3.66,-18.51 1.5,-27.97 c -0.97,-3.29 -1.74,-7.61 -4.37,-9.96 c -0.41,-1.62 -2.1,-4.68 -4.19,-3.84 c -3.52,1.72 -15.25,9.58 -14.48,13.89 Z M 254.37,156.12 c -0.25,1.11 -0.38,2.24 -0.38,3.38 c 3.08,13.66 -4.79,41.1 -15.53,50.53 c -0.42,0.61 -0.41,1.19 0.04,1.74 c 5.38,-1.3 11.52,-2.34 16.09,-5.68 c 0.85,-0.06 1.61,-0.3 2.28,-0.72 c 5.03,-2.7 9.14,-5.74 13.22,-9.76 c 1.52,-1.18 2.23,-5.12 1.14,-6.48 c -1.16,-13.76 -8.18,-28.99 -17.77,-38.86 c -0.77,1.68 0.71,4.09 0.91,5.85 Z M 149.24,152.85 c -1.24,1.48 -2.26,3.1 -3.08,4.86 c -2.21,5.07 -4.07,10.27 -5.58,15.59 c -0.04,-0.01 -0.08,-0.01 -0.12,-0.02 c -0.56,1.38 -1.02,2.78 -1.38,4.19 c 0.86,2.82 4.01,0.73 5.06,-0.83 c 3.43,-4.51 8.42,-18.52 6.57,-23.87 c -0.55,-0.66 -1.04,-0.63 -1.47,0.08 Z M 105.02,174.02 c 1.97,5.28 5.91,-0.75 8.4,-2.08 c 2.42,-3.12 5.48,-5 7.36,-8.61 c -0.32,-1.34 -1.32,-8.08 -3.7,-5.69 c -2.58,3.53 -10.67,13.41 -12.06,16.38 Z M 57.23,168.68 c 4.51,7.3 11.12,3.86 17.12,1.02 c 2.67,-1.19 1.35,-5.76 -0.09,-7.49 c -1.76,-1.5 -2.39,-1.12 -1.9,1.13 c 0.71,0.96 1.22,2.02 1.53,3.16 c 0.3,1.49 -1.2,1.54 -2.21,1.26 c -3.96,-1.91 -12.91,-5.65 -14.45,0.92 Z M 78.22,169.23 c 1.25,4.79 4.74,4.63 8.57,6.42 c 2.05,-0.33 1.88,-0.41 3.63,0.93 c 3.61,-1.42 8.87,3.23 13.16,-0.1 c -2.41,-4.06 -21.16,-8.79 -25.36,-7.25 Z M 154.26,175.02 c -0.22,2.53 0.09,4.98 0.94,7.35 c 4.42,3.06 3.24,-7.8 2.34,-9.44 c -1.81,-2.95 -3.24,0.16 -3.28,2.09 Z M 124.29,183.44 c -0.08,0.5 0.05,0.91 0.41,1.24 c 2.88,-0.4 5.77,-0.69 8.67,-0.88 c 3.04,-1.51 3.58,-3.6 1.63,-6.27 c -3.18,-1.08 -4.35,4.22 -6.34,2.79 c -1.42,1.1 -2.87,2.14 -4.37,3.12 Z M 137.72,184.02 c 2.44,3.46 3.2,0.96 4.78,-1.16 c 0.67,-0.87 0.51,-1.35 -0.48,-1.44 c -1.56,0.51 -4,0.56 -4.3,2.6 Z M 138.89,197.07 c 0.89,0.93 1.44,2.54 2.32,0.69 c 0.96,-0.34 1.84,-0.82 2.64,-1.42 c 0.86,-2.97 9.41,-10 6.22,-12.89 c -6.07,-2.39 -10.11,9.22 -11.18,13.62 Z M 181.89,188.24 c -1.97,0.18 -3.45,1.1 -4.44,2.78 c -0.84,1.24 5.32,2.19 6.05,2.33 c 7.11,0.7 22.2,-2.53 27.33,-7.23 c 0.06,-1.07 -0.45,-1.68 -1.51,-1.82 c -5.64,-0.07 -10.23,-0.17 -15.78,1.05 c -3.85,1.13 -7.73,2.1 -11.65,2.89 Z M 154.25,186.69 c -0.76,2.37 -1.44,4.76 -2.05,7.17 c -0.19,0.73 -0.37,1.46 -0.52,2.2 c -0.66,1.08 -1.17,2.25 -1.52,3.51 c -0.87,3.67 -2.97,8.9 -1.83,12.61 c -0.17,0.81 1.17,0.56 1.5,0.26 c 7.15,-5.33 7.9,-17.82 8.15,-26 c -0.38,-2.22 -3.53,-1.7 -3.73,0.25 Z M 125.1,187.72 c -1.89,0.33 -3.79,0.64 -5.69,0.93 c -3.59,0.99 -12.9,5.83 -11.16,10.49 c 0.02,1.77 0.71,1.99 2.07,0.64 c 0.41,-0.43 0.8,-0.87 1.17,-1.33 c 0.27,0.17 0.56,0.25 0.88,0.24 c 1.58,-1.12 3.26,-2.09 5.02,-2.92 c 0.66,-0.92 1.42,-1.73 2.3,-2.42 c 1.45,0.18 2.78,-0.14 3.99,-0.97 c 4.73,-0.57 8.73,-0.57 12.87,-3.28 c 0.79,-1.18 0.49,-1.95 -0.9,-2.29 c -3.29,0.42 -6.61,0.6 -9.94,0.55 c -0.26,0.04 -0.46,0.16 -0.61,0.36 Z M 214.35,193.1 c -0.69,9.39 8.79,31.73 12.66,41.34 c 2.37,5.6 5.22,10.59 8.22,15.82 c 1.18,2.41 3.58,2.44 3.01,-0.73 c -0.94,-2.5 -2.13,-9.16 -4.25,-10.6 c -0.41,-1.66 -0.91,-3.29 -1.49,-4.9 c -3.89,-9.23 -7.56,-18.54 -11.01,-27.94 c -1.8,-4.22 -3.57,-8.46 -5.3,-12.7 c -0.51,-1.1 -1.13,-2.14 -1.85,-3.12 c -0.25,0.92 -0.24,1.86 0.01,2.83 Z M 179.8,198.87 c 0.3,2.22 2.86,2.44 4.42,3.52 c 5.29,4.52 13.7,7.41 20.44,9.46 c 2.75,-0.2 7.69,-3.54 8.42,-6.27 c -0.66,-3.02 -1.33,-6.05 -2.01,-9.08 c -0.25,-2.37 0.41,-6.33 -3.38,-5.35 c -2.79,1.2 -5.58,2.4 -8.36,3.62 c -6.57,1.72 -13.19,1.65 -19.53,4.1 Z M 131.6,235.04 c -0.01,1.01 0.27,1.91 0.86,2.69 c 1.18,-0.8 1.96,-1.92 2.35,-3.34 c 0.72,-3.68 1.64,-7.31 2.76,-10.88 c -0.78,-6.1 3.94,-17.05 1.83,-22.16 c -1.67,0.08 -0.95,4 -1.62,5.07 c -3.63,7.88 -6.05,20.04 -6.18,28.62 Z M 106.13,206.7 c -2.33,7.28 -4.59,14.58 -6.79,21.92 c -0.8,3.51 -1.62,7.02 -2.46,10.53 c -0.53,1.04 -0.82,2.17 -0.89,3.38 c -0.86,2.76 2.1,3.19 3.47,1.48 c 4.49,-12.54 8.2,-24.42 10.2,-37.72 c -0.1,-1.46 -0.82,-2.52 -2.14,-3.18 c -0.98,0.53 -1.1,2.57 -1.39,3.59 Z M 182.68,208.86 c 0.95,2.89 1.58,5.85 1.91,8.88 c 1.28,3.77 2.59,7.53 3.92,11.28 c -0.15,6.77 4.44,8.36 6.02,13.95 c 2.18,2.4 8.1,2.84 10.77,1.82 c 2.12,-1.35 -9.05,-5.85 -10.34,-6.24 c -2.66,-1.06 -1.47,-3.85 -1.97,-6 c -1.92,-8.23 -2.58,-15.97 -6.31,-23.71 c -1.32,-0.94 -3.93,-3.26 -4,0.02 Z M 209.89,212.27 c 3.78,1.57 7.32,1.52 3.61,-3.15 c -1.43,0.17 -3.4,1.61 -3.61,3.15 Z M 146.31,221.69 c -0.97,6.3 -2.13,12.56 -3.47,18.79 c -0.44,3.19 -0.84,6.39 -1.2,9.59 c -0.26,1.79 -0.49,3.59 -0.7,5.4 c -0.56,1.9 1.29,4.46 2.98,2.88 c 4.68,-9.61 5.6,-28.76 5.74,-39.64 c -0.12,-1.22 -0.78,-1.75 -1.97,-1.6 c -0.53,1.48 -0.99,3.01 -1.38,4.58 Z M 118.24,244.64 c 5.07,1.15 10.05,0.85 13.14,-3.79 c 0.62,-0.99 0.39,-1.53 -0.7,-1.62 c -2.49,0.25 -4.94,0.76 -7.36,1.5 c -1.89,1.06 -3.59,2.36 -5.08,3.91 Z M 81.17,253.74 c 3.8,1.27 8.52,-2.1 11.36,-1.16 c 2.57,-0.72 5.54,-3.93 0.96,-4.53 c -4.31,0.6 -10.2,1.14 -12.32,5.69 Z M 239.82,253.74 c 0.21,3.63 1.91,2.93 4.11,4.78 c 0.15,0.06 15.35,5.06 12.14,1.15 c -1.59,-2.99 -13.9,-7.02 -16.25,-5.93 Z M 133.82,266.06 c -1.72,1.02 -3.56,2.96 -3.55,5.07 c -0.28,0.66 -0.18,1.22 0.31,1.69 c 3.81,0.83 11.82,-5.13 12.1,-9.19 c -2.23,-4.42 -6.94,0.08 -8.86,2.43 Z"/></g>
<g><path fill="#6d5b55" d="M 130.27,271.13 c -0.01,-2.11 1.83,-4.05 3.55,-5.07 c 0.18,0.23 0.41,0.37 0.69,0.43 c 1.32,-0.77 2.67,-1.47 4.06,-2.1 c 0.46,1.39 0.03,2.47 -1.29,3.25 c -2.5,1.35 -3.82,3.97 -7.01,3.49 Z"/></g>
<g><path fill="#89746d" d="M 146.31,221.69 c 1.4,0.9 0.56,3.64 0.57,4.99 c -0.69,4.28 -1.27,8.57 -1.75,12.88 c -0.73,4.77 -1.63,9.51 -2.69,14.2 c -0.43,-1.17 -0.7,-2.4 -0.8,-3.69 c 0.36,-3.2 0.76,-6.4 1.2,-9.59 c 1.34,-6.23 2.5,-12.49 3.47,-18.79 Z"/></g>
<g><path fill="#705956" d="M 235.15,209.76 c -1.5,2.09 -4.84,3.56 -7.39,3.12 c -0.2,-0.78 0.08,-1.31 0.82,-1.57 c 1.52,-0.77 3.13,-1.21 4.83,-1.33 c 0.39,-0.18 1.76,-1.61 1.74,-0.22 Z"/></g>
<g><path fill="#9a847e" d="M 151.68,196.06 c 0.38,0.03 0.76,0.07 1.15,0.11 c -1.33,4.99 -2.16,11.48 -4.5,16.01 c -1.14,-3.71 0.96,-8.94 1.83,-12.61 c 0.35,-1.26 0.86,-2.43 1.52,-3.51 Z"/></g>
<g><path fill="#d0b9b0" d="M 152.2,193.86 c 0.53,0.1 0.87,0.4 1.03,0.92 c -0.14,0.46 -0.27,0.93 -0.4,1.39 c -0.39,-0.04 -0.77,-0.08 -1.15,-0.11 c 0.15,-0.74 0.33,-1.47 0.52,-2.2 Z"/></g>
<g><path fill="#7e6a65" d="M 233.99,238.93 c -0.54,-0.23 -1,-0.55 -1.38,-0.99 c -0.83,-2.43 -1.71,-4.83 -2.64,-7.22 c -3.97,-9.65 -8.1,-19.25 -12.38,-28.81 c -1,-2.98 -2.08,-5.92 -3.24,-8.81 c -0.25,-0.97 -0.26,-1.91 -0.01,-2.83 c 0.72,0.98 1.34,2.02 1.85,3.12 c 1.73,4.24 3.5,8.48 5.3,12.7 c 3.45,9.4 7.12,18.71 11.01,27.94 c 0.58,1.61 1.08,3.24 1.49,4.9 Z"/></g>
<g><path fill="#a08982" d="M 125.1,187.72 c 1.81,0.47 3.64,0.72 5.52,0.74 c -5.75,0.17 -11.13,1.66 -16.15,4.48 c -1.1,1.25 -2.35,2.3 -3.75,3.17 c -0.68,1.13 -1.5,2.14 -2.47,3.03 c -1.74,-4.66 7.57,-9.5 11.16,-10.49 c 1.9,-0.29 3.8,-0.6 5.69,-0.93 Z"/></g>
<g><path fill="#a28b85" d="M 154.25,186.69 c 0.75,0.75 0.99,1.66 0.73,2.73 c -0.52,0.86 -0.89,5.49 -1.75,5.36 c -0.16,-0.52 -0.5,-0.82 -1.03,-0.92 c 0.61,-2.41 1.29,-4.8 2.05,-7.17 Z"/></g>
<g><path fill="#b59d94" d="M 210.83,186.12 c -2.37,0.01 -4.73,0.09 -7.09,0.26 c -4.72,0.84 -9.45,1.61 -14.17,2.3 c -2.06,0 -4.11,0.13 -6.15,0.39 c -0.71,0.08 -1.23,-0.2 -1.53,-0.83 c 3.92,-0.79 7.8,-1.76 11.65,-2.89 c 5.55,-1.22 10.14,-1.12 15.78,-1.05 c 1.06,0.14 1.57,0.75 1.51,1.82 Z"/></g>
<g><path fill="#f5e8e2" d="M 137.72,184.02 c 0.3,-2.04 2.74,-2.09 4.3,-2.6 c 0.99,0.09 1.15,0.57 0.48,1.44 c -1.58,2.12 -2.34,4.62 -4.78,1.16 Z"/></g>
<g><path fill="#907571" d="M 171.63,177.96 c 1.24,2.67 2.38,5.38 3.42,8.14 c -0.52,0.53 -1,0.44 -1.43,-0.27 c -2.22,-3.57 -4.34,-7.18 -6.38,-10.85 c -0.12,-0.46 -0.14,-0.93 -0.08,-1.4 c 1.28,-1.32 3.25,4.33 4.47,4.38 Z"/></g>
<g><path fill="#7d6560" d="M 136.97,171.95 c -0.11,1.95 -0.99,2.35 -2.64,1.22 c -4.93,-3.26 -8.43,-7.67 -10.49,-13.22 c 0.02,-1.22 0.36,-2.35 1.51,-0.97 c 1.42,2.04 2.64,4.21 3.69,6.5 c 3.15,2.23 3.16,6.06 7.93,6.47 Z"/></g>
<g><path fill="#ab968f" d="M 149.24,152.85 c 0.63,0.24 0.87,0.7 0.72,1.36 c -1.08,1.36 -1.96,2.83 -2.65,4.41 c -1.98,5.41 -3.98,10.8 -6.02,16.18 c -0.47,-0.37 -0.71,-0.87 -0.71,-1.5 c 1.51,-5.32 3.37,-10.52 5.58,-15.59 c 0.82,-1.76 1.84,-3.38 3.08,-4.86 Z"/></g>
<g><path fill="#7b665f" d="M 271.23,189.13 c -0.17,0.55 -0.41,1.07 -0.72,1.55 c -0.91,-3.34 -4.97,-0.32 -5.6,-2.64 c 1.09,-6.38 2.15,-10.98 -0.03,-17.48 c -3.41,-5.09 -5.95,-10.26 -10.51,-14.44 c -0.2,-1.76 -1.68,-4.17 -0.91,-5.85 c 9.59,9.87 16.61,25.1 17.77,38.86 Z M 106.13,206.7 c 1.84,0.3 -0.2,4.65 -0.15,5.8 c -2.92,10.12 -5.76,20.24 -8.52,30.37 c -1.16,-0.69 -0.5,-2.61 -0.58,-3.72 c 0.84,-3.51 1.66,-7.02 2.46,-10.53 c 2.2,-7.34 4.46,-14.64 6.79,-21.92 Z"/></g>
<g><path fill="#877166" d="M 247.8,148.95 c 1.18,0.36 2.59,1.62 2.52,-0.69 c 2.5,8.08 2.59,16.45 1.89,24.89 c -0.68,-0.32 -1.04,-0.86 -1.07,-1.6 c 0.02,-3.49 0.5,-8.98 -0.97,-12.13 c -2.99,-0.02 -2.44,-2.37 -3.79,-4.33 c -0.47,1.57 -0.29,3.05 0.55,4.45 c -0.36,0.83 -1.28,2.58 -2.38,2.4 c -1.74,-0.58 -0.01,-1.77 0.41,-2.53 c -0.84,-1.27 -2.02,-2.05 -3.53,-2.32 c -0.6,-0.44 -0.9,-1.03 -0.89,-1.79 c -1.31,0.95 -2.7,1.76 -4.17,2.43 c -1.06,-3.77 0.38,-2.87 -2.94,-1.69 c -0.56,0.03 -1.12,0.02 -1.68,-0.04 c -0.07,-2.65 -0.36,-5.27 -0.85,-7.86 c 0.95,-0.04 1.8,-0.36 2.55,-0.95 c 0.22,0.71 0.51,1.38 0.88,2.02 c 1.28,0.39 1.71,1.74 2.97,1.87 c 0.7,-0.56 1.37,-1.14 2.01,-1.74 c 0.71,0.2 1.25,0.61 1.63,1.23 c -0.53,0.9 -1.63,2.85 0.57,2.62 c 0.43,-0.72 0.83,-1.46 1.19,-2.23 c 2.22,-0.27 0.39,2.95 1.74,3.96 c 1.47,-0.84 2.88,-1.77 4.23,-2.78 c 0.82,-1.27 -0.97,-1.78 -0.87,-3.19 Z"/></g>
<g><path fill="#715e56" stroke="#715e56" stroke-width="0.5" d="M 156.31,139.22 c 3.92,1.62 7.14,4.92 10.55,7.35 c 1.7,1.81 3.11,3.82 4.25,6.02 c 0.55,0.27 0.96,0.12 1.23,-0.43 c 1.12,1.43 1.76,3.05 1.91,4.87 c -0.39,1.6 0.27,4.96 -2.54,3.87 c -1.18,-2.26 -2.29,-2.21 -3.32,0.16 c -1.81,0.44 -2.19,3.88 -3.73,3.73 c -0.41,-0.59 -0.85,-1.15 -1.34,-1.69 c -1.38,-0.54 -2.72,-1.17 -4.01,-1.89 c -0.3,-1.06 1.01,-0.94 1.3,-1.76 c -0.4,-0.38 -0.84,-0.71 -1.33,-0.97 c 1.04,-2.47 -1.18,-2.23 -2.73,-1.76 c -0.51,-0.09 -0.97,-0.31 -1.37,-0.64 c -0.75,-4.15 -1.05,-9.64 -7.04,-7.18 c -0.06,-0.27 -0.11,-0.53 -0.16,-0.8 c -0.01,-2.4 1.3,-1.56 2.82,-2.79 c 0.52,-1 3.79,-3.11 3.93,-4.18 c 1.1,-0.21 1.62,-0.84 1.58,-1.91 Z M 252.21,173.15 c -0.69,5.87 -2.17,11.53 -4.45,16.99 c -1.05,-0.09 -2.09,-0.16 -3.14,-0.23 c -1.5,-1.59 -2.54,-1.34 -3.12,0.76 c -1.61,-0.73 -1.93,-1.86 -0.96,-3.39 c -3.57,-1.65 -1.45,3.27 -3.74,2.43 c -0.86,-1.49 -1.7,-3.03 -2.5,-4.61 c -2.1,-0.09 -0.93,1.79 -0.16,2.47 c 0.46,2.14 -1.89,1.15 -2.79,0.69 c -0.6,0.08 -1.19,0.21 -1.78,0.38 c -0.89,-0.5 -1.84,-0.73 -2.85,-0.68 c 4,-10.29 5.68,-20.94 5.03,-31.96 c 0.56,0.06 1.12,0.07 1.68,0.04 c 3.32,-1.18 1.88,-2.08 2.94,1.69 c 1.47,-0.67 2.86,-1.48 4.17,-2.43 c -0.01,0.76 0.29,1.35 0.89,1.79 c 1.51,0.27 2.69,1.05 3.53,2.32 c -0.42,0.76 -2.15,1.95 -0.41,2.53 c 1.1,0.18 2.02,-1.57 2.38,-2.4 c -0.84,-1.4 -1.02,-2.88 -0.55,-4.45 c 1.35,1.96 0.8,4.31 3.79,4.33 c 1.47,3.15 0.99,8.64 0.97,12.13 c 0.03,0.74 0.39,1.28 1.07,1.6 Z"/></g>
<g><path fill="#967e6f" stroke="#967e6f" stroke-width="0.5" d="M 247.8,148.95 c -0.1,1.41 1.69,1.92 0.87,3.19 c -1.35,1.01 -2.76,1.94 -4.23,2.78 c -1.35,-1.01 0.48,-4.23 -1.74,-3.96 c -0.36,0.77 -0.76,1.51 -1.19,2.23 c -2.2,0.23 -1.1,-1.72 -0.57,-2.62 c -0.38,-0.62 -0.92,-1.03 -1.63,-1.23 c -0.64,0.6 -1.31,1.18 -2.01,1.74 c -1.26,-0.13 -1.69,-1.48 -2.97,-1.87 c -0.37,-0.64 -0.66,-1.31 -0.88,-2.02 c -0.75,0.59 -1.6,0.91 -2.55,0.95 c -0.66,-2.72 -1.53,-5.36 -2.61,-7.94 c 0.27,-1.66 1.16,-2.22 2.69,-1.65 c 3.55,1.58 7.02,3.35 10.41,5.33 c 2.18,1.71 4.73,2.83 6.41,5.07 Z"/></g>
<g><path fill="#877163" stroke="#877163" stroke-width="0.5" d="M 194.04,138.21 c 2.63,2.35 3.4,6.67 4.37,9.96 c -1.07,0.5 -1.29,1.24 -0.65,2.21 c -0.92,0.3 -2.93,2.04 -3.57,0.98 c -0.33,-0.59 -0.62,-1.19 -0.89,-1.81 c -0.1,-0.69 2.97,-4.39 0.41,-3.6 c -0.76,1.82 -1.49,2.81 -3.35,1.2 c -0.21,1.17 -0.35,4.37 -2.44,2.37 c -0.11,-0.67 -0.17,-1.34 -0.18,-2.01 c -1.28,-0.6 -2.58,-1.23 -3.87,-1.89 c -0.32,-0.56 -0.64,-1.12 -0.98,-1.67 c 2.24,-2.39 8.01,-5.68 11.15,-5.74 Z"/></g>
<g><path fill="#c4aea2" d="M 155.99,137 c 6.69,1.22 14.38,8.9 16.35,15.16 c -0.27,0.55 -0.68,0.7 -1.23,0.43 c -1.14,-2.2 -2.55,-4.21 -4.25,-6.02 c -3.41,-2.43 -6.63,-5.73 -10.55,-7.35 c -0.12,-0.74 -0.22,-1.48 -0.32,-2.22 Z"/></g>
<g><path fill="#c0a697" stroke="#c0a697" stroke-width="0.5" d="M 250.32,148.26 c 0.07,2.31 -1.34,1.05 -2.52,0.69 c -1.68,-2.24 -4.23,-3.36 -6.41,-5.07 c -3.39,-1.98 -6.86,-3.75 -10.41,-5.33 c -1.53,-0.57 -2.42,-0.01 -2.69,1.65 c -1.27,-2.6 -2.64,-5.13 -4.11,-7.59 c 0.54,-0.71 3.3,0.68 4.13,0.67 c 5.46,2.21 20.3,9.33 22.01,14.98 Z M 194.04,138.21 c -3.14,0.06 -8.91,3.35 -11.15,5.74 c -2.49,1.47 -5,2.91 -7.52,4.31 c -0.77,-4.31 10.96,-12.17 14.48,-13.89 c 2.09,-0.84 3.78,2.22 4.19,3.84 Z"/></g>
<g><path fill="#b89d90" stroke="#b89d90" stroke-width="0.5" d="M 223.22,135.08 c 0.07,0.5 -0.15,0.81 -0.64,0.93 c -3.55,-1.01 -19.11,-3.03 -21.1,0.48 c -1.77,-0.91 -2.85,-0.27 -4.3,0.78 c -0.98,-1.03 -1.94,-2.1 -2.86,-3.22 c -1.6,-1.91 4.37,-2.27 5.23,-2.64 c 5.97,-0.88 20.68,-3.45 23.67,3.67 Z"/></g>
<g><path fill="#aa665f" stroke="#aa665f" stroke-width="0.5" d="M 141.25,128 c -0.5,0.82 -1.24,1.21 -2.23,1.17 c -0.26,-0.23 -0.54,-0.42 -0.85,-0.57 c -3.53,0.37 -6.65,-1.73 -4.59,-5.62 c 1.83,-2.72 4.9,-2.99 7.87,-3.56 c 6.07,1.04 1.74,6.37 -0.2,8.58 Z"/></g>
<g><path fill="#a1877d" d="M 73.75,116.18 c -0.17,2.76 -0.06,5.51 0.33,8.24 c 1,1.87 1.85,3.76 2.54,5.66 c -0.15,0.02 -0.3,0.03 -0.44,0.04 c -2.19,-2.02 -3.6,-5.11 -4.16,-8.04 c 2.38,0.39 0.46,-4.79 1.73,-5.9 Z"/></g>
<g><path fill="#6a5552" d="M 163.92,93.86 c 2.85,12.97 -0.52,25.38 -9.6,35.05 c -2.02,1.61 -3.92,3.35 -5.71,5.22 c -2.71,2.01 -5.57,3.76 -8.61,5.23 c -0.72,0.08 -1.3,-0.16 -1.72,-0.71 c 3.36,-1.87 6.6,-3.95 9.7,-6.25 c 1.83,-2.16 5.52,-4.03 6.26,-6.68 c 5.99,-3.72 11.73,-25.4 8.09,-31.28 c 0.48,-0.31 1.01,-0.5 1.59,-0.58 Z"/></g>
<g><path fill="#faf4f0" stroke="#faf4f0" stroke-width="0.5" d="M 79.7,93.05 c 2.41,-6.09 8.56,0.06 3.73,3.08 c -2.54,0.57 -3.78,-0.45 -3.73,-3.08 Z M 126.67,98.02 c 0.51,-3.09 2.25,-4.23 5.24,-3.41 c 4.79,4.64 -3.76,10 -5.24,3.41 Z"/></g>
<g><path fill="#fbf8f6" stroke="#fbf8f6" stroke-width="0.5" d="M 143.14,94.27 c -1.77,-1.26 -3.66,-2.31 -5.68,-3.16 c -6.17,-1.33 -10.68,0.83 -13.54,6.49 c -2.96,6.57 -0.47,16.2 7.2,17.91 c 2.56,0.24 5.1,0.21 7.61,-0.09 c -1.32,0.56 -2.58,1.22 -3.8,1.98 c -3.94,1.21 -7.9,1.24 -11.88,0.11 c -2.5,-0.59 -4.63,-1.81 -6.38,-3.68 c -1.86,-2.82 -2.51,-5.9 -1.96,-9.26 c 1.29,-8.64 6.09,-14.3 14.38,-16.99 c 5.11,-1.33 12.87,0.9 14.05,6.69 Z"/></g>
<g><path fill="#fbf5f1" stroke="#fbf5f1" stroke-width="0.5" d="M 72.86,100.05 c 0.19,-5.59 2.43,-14.54 8.65,-16.21 c 2.51,-0.56 4.5,0.22 5.95,2.31 c 0.37,0.5 0.38,0.99 0.05,1.47 c -11.97,-3 -14.21,16.64 -5.88,22.12 c 1.07,0.29 2.14,0.55 3.2,0.76 c -1.71,2.7 -6.01,2.23 -8.1,0.16 c -2.62,-3.03 -3.91,-6.57 -3.87,-10.61 Z"/></g>
<g><path fill="#a0837c" d="M 144.02,96.17 c 0.9,-0.22 1.17,1.24 0.58,1.77 c -0.46,-0.5 -0.65,-1.09 -0.58,-1.77 Z"/></g>
<g><path fill="#cfc0b5" d="M 143.14,94.27 c 1.03,-0.37 0.93,1.35 0.88,1.9 c -0.98,-0.32 -1.27,-0.95 -0.88,-1.9 Z"/></g>
<g><path fill="#896f63" d="M 103.25,68.27 c 0.47,-0.03 0.94,-0.05 1.4,-0.05 c 1.2,1.12 2.33,2.25 0.79,3.79 c -0.32,-0.67 -0.69,-1.3 -1.11,-1.91 c -0.92,0.63 -1.85,1.28 -2.77,1.95 c -0.11,0.7 -0.09,1.41 0.05,2.12 c -1.99,2.99 -5.3,-1.22 -5.48,2.49 c -0.43,0.42 -0.82,0.36 -1.16,-0.17 c -0.12,-1.02 -0.36,-1.97 -0.73,-2.86 c 0.77,-1.73 4.22,-2.2 5.82,-3.15 c 1.28,-0.42 2.35,-1.16 3.19,-2.21 Z"/></g>
<g><path fill="#d6b9aa" d="M 100.06,70.48 c -1.6,0.95 -5.05,1.42 -5.82,3.15 c -3.81,1.58 -5.07,3.54 -7.85,6.34 c -0.39,0.24 -0.82,0.35 -1.28,0.32 c -0.72,-0.1 -1.33,-0.4 -1.82,-0.91 c 1.76,-4.16 8.95,-8.49 12.72,-10.9 c 2.88,-1.38 2.38,0.63 4.05,2 Z"/></g>
<g><path fill="#bca196" d="M 109.99,64.34 c 6.89,-1.07 13.24,-0.94 20.12,0.13 c 0.6,0.4 0.84,0.97 0.72,1.7 c -2.81,0.14 -5.6,0.02 -8.39,-0.35 c -2.68,-0.09 -5.35,0.03 -8.01,0.36 c -0.83,0.02 -1.63,-0.12 -2.41,-0.43 c -0.54,-0.66 -1.21,-1.13 -2.03,-1.41 Z"/></g>
<g><path fill="#d7baad" d="M 109.99,64.34 c 0.82,0.28 1.49,0.75 2.03,1.41 c -1.09,0.9 -5.9,1.71 -7.37,2.47 c -0.46,0 -0.93,0.02 -1.4,0.05 c -0.33,-0.85 -0.23,-1.62 0.32,-2.32 c 2.07,-0.82 4.21,-1.36 6.42,-1.61 Z"/></g>
<g><path fill="#a48d86" d="M 67.13,35.9 c 0.3,0.13 0.53,0.34 0.69,0.61 c -5.37,1.68 -10.79,3.18 -16.28,4.51 c -3.33,0.67 -6.66,1.37 -10,2.11 c -1.48,0.25 -2.97,0.3 -4.46,0.15 c 0.1,-1.47 0.9,-2.25 2.42,-2.33 c 3.29,-0.45 6.58,-0.87 9.88,-1.29 c 5.62,-1.7 11.88,-3.09 17.75,-3.76 Z"/></g>
<g><path fill="#a9918c" d="M 113.04,16.36 c -0.29,0.48 -0.71,0.59 -1.25,0.34 c -1.85,-1.27 -3.79,-2.38 -5.81,-3.33 c -0.71,-0.93 -1.6,-1.63 -2.68,-2.09 c -1.18,1.15 1.42,3.07 0.06,3.72 c -1.74,-1.71 -2.35,-3.73 -1.84,-6.07 c 0.18,-0.35 0.47,-0.54 0.85,-0.57 c 3.68,2.5 7.24,5.16 10.67,8 Z"/></g>
<g><path fill="#ad8451" stroke="#ad8451" stroke-width="0.5" d="M 68.19,144.31 c 2.65,2.84 2.69,8.98 2.41,12.72 c -0.61,1.06 0.14,3.02 -1.06,3.62 c -1.38,-2.2 -2.9,-4.31 -4.55,-6.32 c -0.29,-1.91 -0.48,-3.84 -0.57,-5.77 c 0.09,-0.33 0.3,-0.52 0.64,-0.58 c 0.31,-0.09 0.55,-0.29 0.7,-0.59 c 0.97,-5.35 0.44,-1.58 2.43,-3.08 Z"/></g>
<g><path fill="#c1a499" d="M 74.26,112.12 c 0.09,1.38 -0.08,2.74 -0.51,4.06 c -1.27,1.11 0.65,6.29 -1.73,5.9 c -0.1,-1.6 -0.33,-3.18 -0.71,-4.74 c 0.14,-2.4 0.55,-4.74 1.24,-7 c 0.73,0.44 1.3,1.03 1.71,1.78 Z"/></g>
<g><path fill="#cdced2" stroke="#cdced2" stroke-width="0.5" d="M 189.8,241 c 0.35,0.11 0.65,0.31 0.88,0.6 c 2.07,6.04 9.63,6.92 15,5.68 c 3.01,-0.64 3.19,-4.06 1.48,-6.09 c 0.65,-0.67 1.44,-1.06 2.36,-1.19 c 1.78,0.61 2.12,1.06 4.11,0.39 c 2.37,0.63 -0.56,2.87 1.68,2.34 c 1.77,-1.24 0.98,-2.24 4.07,-1.46 c 0.53,1.49 1.91,2.48 2.61,0.38 c 2.13,-2.09 3.67,3.29 5.16,1.65 c 0.27,0.02 0.49,0.14 0.65,0.36 c 2.12,4.21 4.4,7.87 7.78,11.2 c 2.83,7.2 8.64,8.09 15.41,9.64 c 1.69,-0.36 3.37,-0.33 5.05,0.09 c 3.8,-1.1 4.63,-3.3 2.49,-6.57 c -5.01,-5.76 -10.03,-5.67 -16.91,-7.34 c -0.37,-1.83 -0.82,-3.65 -1.34,-5.48 c 0.72,-0.28 3.87,-1.88 3.65,0.08 c -0.26,0.89 -1.17,1.71 0.35,1.62 c 1.25,-2.24 1.25,-2.46 4.16,-1.73 c 0,0.57 0.06,1.14 0.18,1.7 c 1.54,-0.22 1.99,-1.78 3.8,-0.99 c 0.79,0.7 1.68,1.24 2.66,1.62 c 0.72,-0.23 1.48,-0.37 2.26,-0.44 c 2.98,2.22 6.15,1.4 8.97,3.06 c 1.83,2.59 0.63,1.03 3.22,0.82 c 1.29,0.72 2.62,1.35 3.99,1.88 c 0.48,0.84 4.06,3.52 4.99,4.08 c 1.7,1.85 -0.29,4.15 -1.29,5.83 c -0.64,0.23 -6.26,3.74 -6.92,4.31 c -1.81,0.61 -3.67,1.05 -5.57,1.32 c -0.69,0.65 -1.46,1.2 -2.29,1.65 c -1.96,0.47 -2.08,-0.42 -2.98,-1.64 c -0.4,0.78 -0.74,1.58 -1.04,2.42 c -1.02,0.21 -2,0.09 -2.95,-0.37 c -1.15,2.01 -3.21,2.54 -4.9,0.82 c -0.4,0.53 -0.8,1.05 -1.2,1.56 c -1.69,0.3 -3.32,0.77 -4.9,1.39 c -0.92,-0.34 -1.85,-0.62 -2.78,-0.84 c -0.3,0.55 -0.68,1.03 -1.16,1.44 c -2.62,0.27 -5.26,0.4 -7.91,0.4 c -2.66,2.68 -3.48,-1.7 -5.65,1.29 c -1.5,0.63 -2.68,0.27 -3.54,-1.09 c -0.39,0.38 -0.72,0.83 -0.98,1.33 c -0.98,0.47 -2,0.6 -3.06,0.4 c -1.85,-1.85 -1.71,-0.72 -3.01,0.72 c -3.09,0.26 -6.94,-0.08 -9.87,0.81 c -1.73,-0.86 -3.38,-0.11 -5.02,0.48 c -0.99,-0.13 -1.95,-0.39 -2.87,-0.8 c -2.43,1.09 -2.95,1.25 -5.25,-0.12 c -0.92,0.47 -1.88,0.83 -2.89,1.07 c -0.98,-0.3 -1.94,-0.65 -2.88,-1.02 c -0.91,0.96 -2.23,2.22 -3.64,1.21 c -0.36,-0.59 -0.86,-1 -1.5,-1.24 c -0.68,0.52 -1.36,1.04 -2.05,1.55 c -2.28,0.47 -1.85,-1.73 -3.76,-1.41 c -0.94,2.18 -3.33,1.81 -4.4,-0.01 c -1.76,-0.01 -1.16,2.58 -4.38,1.15 c -0.95,-1.56 -1.78,-1.51 -2.49,0.15 c -1.74,0.57 -3.09,0.13 -4.08,-1.33 c -1.69,-0.09 -1.01,2.1 -3.65,1.41 c -0.79,-0.4 -1.48,-0.93 -2.07,-1.6 c -1.91,1.35 -3.56,2.39 -5.24,0 c -0.89,0.55 -1.85,0.96 -2.87,1.23 c -3.64,0.2 -0.83,-2.6 -2.69,-2.02 c -1.25,1.79 -1.86,2.42 -4.28,1.69 c -0.38,-0.62 -0.78,-1.23 -1.18,-1.83 c -2.36,0.1 1.22,1.9 -2.72,1.79 c -1.07,-0.07 -2.1,-0.34 -3.06,-0.8 c -1.96,1.13 -2.1,0.46 -3.89,-0.2 c -2,1.43 -2.96,-0.43 -5.16,0.49 c -1.3,-0.32 -2.62,-0.52 -3.96,-0.6 c -1.89,-3.59 -1.53,-1.2 -3.04,0 c -3.63,0.82 -1.44,-1.71 -3.91,-1.69 c -0.67,0.41 -1.36,0.77 -2.08,1.08 c -1.09,-0.1 -2.1,-0.45 -3.02,-1.05 c -2.02,1.32 -3.09,1.1 -5.11,-0.21 c -2.36,0.22 -4.61,-0.65 -6.77,-0.89 c -0.66,-0.59 -1.32,-1.18 -1.97,-1.76 c -0.82,2.1 -2.77,1.91 -4.23,0.54 c -1.37,-0.04 -2.71,-0.17 -4.02,-0.41 c 0.48,-0.61 0.87,-1.28 1.19,-1.99 c -2.21,-1.46 -1.72,2.88 -5.04,1.49 c -0.49,-0.52 -0.88,-1.1 -1.19,-1.73 c -1.2,0.52 -2.45,0.75 -3.76,0.68 c -1.37,-1.22 -2.42,-0.5 -3.99,-1.15 c -1.2,-2.5 -1.05,-1.2 -3.03,-0.61 c -1.49,-0.63 -3.01,-1.17 -4.56,-1.64 c -0.75,-0.52 -1.25,-1.23 -1.51,-2.12 c -0.42,1.09 -1.15,1.38 -2.18,0.87 c -2.53,-1.32 -4.59,-2.97 -7.27,-3.99 c -0.84,-1.45 -2.38,-2.94 -2.2,-4.72 c 2.05,-2.17 0.92,-3.14 4.3,-4.11 c 0.83,-1.79 1.28,-1.26 3.03,-1.9 c 0.62,-1.6 1.71,-2.1 3.27,-1.5 c 0.25,0.61 0.61,1.14 1.07,1.59 c 0.45,-0.77 0.79,-1.6 1,-2.49 c 0.62,-0.13 1.25,-0.23 1.88,-0.28 c 2.22,-1.09 4.7,-3.17 7.12,-1.27 c 0.95,-0.69 1.96,-1.29 3.02,-1.8 c 2.37,0.03 3.63,-1.27 6.25,-0.61 c -1.49,1.13 -2.94,2.34 -4.36,3.62 c -1.67,1.55 -2.03,3.33 -1.08,5.37 c 4.33,4.05 12.75,1.37 17.53,-0.81 c 2.89,-2.03 3.34,-6.91 5.9,-8.25 c 0.44,0.37 0.96,0.64 1.56,0.79 c 0.36,0.76 0.77,1.48 1.24,2.16 c 2.48,0.31 2.22,-0.41 2.4,-2.43 c 0.82,-0.3 1.57,-0.73 2.23,-1.29 c 0.11,-3.07 -2.93,0 -2.41,-4.16 c 2.92,-0.07 5.82,-0.33 8.69,-0.76 c 0.46,0.24 0.88,0.52 1.29,0.83 c -0.66,1.31 -0.9,2.68 -0.7,4.11 c 3.18,3.75 7.85,2.13 11.95,2.57 c 0.36,0.08 0.65,0.26 0.87,0.56 c -0.27,0.83 -0.39,1.66 -0.36,2.5 c 1.44,1.73 2.21,-0.38 2.19,-1.64 c 0.75,-0.37 1.51,-0.69 2.3,-0.95 c 0.03,-1.89 0.9,-2.47 2.6,-1.75 c 0.31,1.8 0.36,3 2.57,2.73 c 0,3.33 -0.02,6.65 -0.09,9.96 c -1.55,0.83 -3.1,1.66 -4.66,2.51 c -3.31,2.03 -5.48,4.91 -6.5,8.65 c -0.89,3.35 1.77,4.53 4.5,5.08 c 8.22,-1.51 13.86,-6.44 14.89,-14.93 c 2.08,-3.88 2.86,-7.63 4.18,-11.7 c 0.25,-3.03 0.78,-6 1.59,-8.92 c 2.53,-1.2 3.66,-1.86 6.36,-0.5 c 1.63,-1.04 3.28,-1.04 4.96,0.02 c 1.73,-1.15 3.45,-1.15 5.17,-0.03 c 0.91,-0.48 1.87,-0.76 2.9,-0.85 c 0.94,0.23 1.85,0.54 2.73,0.93 c 0.73,-0.46 1.51,-0.77 2.35,-0.94 c 0.92,0.31 1.81,0.66 2.68,1.04 c 1.81,-1.3 3.64,-1.33 5.49,-0.09 c 0.88,-0.39 1.79,-0.62 2.74,-0.7 c 1.3,0.93 0.43,2.31 2.32,2.05 Z"/></g>
<g><path fill="#483836" stroke="#483836" stroke-width="0.5" d="M 148.11,71.17 c 4.3,1.28 17.03,17.53 15.81,22.69 c -0.58,0.08 -1.11,0.27 -1.59,0.58 c 3.64,5.88 -2.1,27.56 -8.09,31.28 c -0.74,2.65 -4.43,4.52 -6.26,6.68 c -3.1,2.3 -6.34,4.38 -9.7,6.25 c 0.42,0.55 1,0.79 1.72,0.71 c -15.2,6.85 -33.31,8.38 -49.04,2.14 c -1.4,-0.61 -2.68,-1.37 -3.84,-2.28 c 0.61,-0.57 1.33,-0.84 2.15,-0.83 c 5.39,2 13.43,1.77 19.24,2.22 c 1.45,-0.88 2.85,-0.82 4.21,0.19 c 0.85,-0.65 1.78,-1.19 2.77,-1.63 c 1.31,-0.16 1.27,0.9 2.1,1.52 c 1.09,-0.39 1.36,-1.11 0.8,-2.17 c 0.71,-0.13 1.43,-0.07 2.16,0.15 c 0.7,-0.4 1.37,-0.86 2,-1.38 c 0.84,0.22 1.68,0.32 2.52,0.28 c 1.79,-1.57 3.01,-3.05 5.5,-1.86 c 1.02,-1.6 4.19,-4.52 5.01,-1.01 c 0.24,-0.94 0.37,-1.92 0.38,-2.94 c 1.49,-0.9 2.55,-0.61 3.06,-2.59 c 0.99,0.04 1.73,-0.35 2.23,-1.17 c 0.71,0.09 1.39,0.02 2.06,-0.22 c 1.27,-1.17 2.2,-2.57 2.79,-4.19 c 0.41,-0.26 0.85,-0.27 1.32,-0.05 c 0.51,-0.83 0.25,-1.38 -0.76,-1.65 c -1.36,-1.24 0.81,-1.5 1.23,-2.47 c 0.07,-2.37 1.6,-0.86 2.64,-2.3 c -0.17,-0.91 -0.2,-1.82 -0.09,-2.7 c 0.91,0.64 1.81,0.65 2.69,0.05 c 0.31,-1.36 -0.6,-1.17 -1.26,-2.18 c -0.04,-1.02 0.44,-1.43 1.46,-1.23 c 0.35,0.65 0.76,1.24 1.23,1.77 c 2.14,-1.79 -0.08,-2.76 -1.52,-3.45 c 0.04,-2.34 1.74,-1.24 2.59,-0.4 c 2.06,0.35 0.27,-1.64 0.32,-2.5 c 0.35,-0.99 0.73,-1.97 1.14,-2.93 c -0.56,-0.57 -1.22,-0.98 -2,-1.22 c -0.35,-1.64 1.38,-0.86 2.32,-1.31 c 1.62,-1.91 -0.71,-2.05 -1.24,-3.46 c 0.69,-0.27 1.3,-0.65 1.82,-1.16 c -0.06,-1.02 -0.55,-1.29 -1.49,-0.83 c -1.23,-1.64 2.91,-2.05 0.83,-3.47 c -1.67,-0.05 -2.65,-0.9 -2.96,-2.54 c 0.51,-0.33 0.98,-0.7 1.41,-1.11 c -0.07,-2.3 -1.69,0.26 -2.43,-1.9 c 1.29,-1.75 -0.11,-2.81 -0.99,-4.28 c -0.25,-2.29 -0.78,-2.28 -2.03,-3.7 c 1.19,-1.72 0.74,-2.76 -1.35,-3.13 c -0.42,-1.03 -0.94,-2.01 -1.55,-2.94 c 0.21,-0.45 0.44,-0.9 0.68,-1.33 Z M 155.99,137 c 0.1,0.74 0.2,1.48 0.32,2.22 c 0.04,1.07 -0.48,1.7 -1.58,1.91 c -0.14,1.07 -3.41,3.18 -3.93,4.18 c -1.52,1.23 -2.83,0.39 -2.82,2.79 c -1.21,0.99 -2.51,1.84 -3.89,2.55 c -0.92,2.22 -0.98,2.47 -3.58,2.39 c -0.54,0.84 -0.93,1.74 -1.19,2.71 c -0.6,-0.23 -1.2,-0.44 -1.81,-0.65 c -1.95,0.75 -3.93,1.41 -5.94,2 c -2.23,1.66 -1.25,1.42 0.09,2.62 c 0.14,0.57 0.18,1.14 0.12,1.72 c -0.58,0.71 -1.22,1.4 -1.91,2.04 c -0.01,1.06 0.49,1.53 1.5,1.41 c 1.03,-2.52 1,-1.43 3.05,-1 c 0.38,-0.16 0.75,-0.33 1.11,-0.53 c 0.44,0.78 0.93,1.52 1.49,2.24 c 0.59,0.28 1.19,0.51 1.81,0.7 c -0.07,1.33 -0.76,5.08 -1.86,5.65 c -4.77,-0.41 -4.78,-4.24 -7.93,-6.47 c -1.05,-2.29 -2.27,-4.46 -3.69,-6.5 c -1.15,-1.38 -1.49,-0.25 -1.51,0.97 c -0.67,-1.82 -1.16,-3.71 -1.49,-5.65 c 0.21,-1.17 -0.51,-5.41 0.3,-6.06 c 5.73,-0.32 10.93,-2.29 16.38,-3.68 c 4.91,-2.77 9.76,-5.66 14.53,-8.66 c 1.1,-0.21 1.91,0.15 2.43,1.1 Z M 244.1,198.43 c -2.19,3.67 -5.3,9.19 -8.95,11.33 c 0.02,-1.39 -1.35,0.04 -1.74,0.22 c -1.7,0.12 -3.31,0.56 -4.83,1.33 c -0.74,0.26 -1.02,0.79 -0.82,1.57 c -1.83,-4.51 -3.71,-9.04 -5.63,-13.57 c -0.16,-2.04 0.37,-3.91 1.6,-5.61 c 1.72,0.78 1.95,-0.6 2.89,-1.56 c 0.87,0.36 1.76,0.64 2.67,0.83 c 1.03,-0.72 2.14,-1.3 3.33,-1.75 c 0.63,0.49 1.27,0.97 1.93,1.44 c 1.65,0.24 3.31,0.43 4.97,0.59 c 1.36,0.71 0.48,2.35 -0.19,3.2 c 0.69,0.13 1.39,0.28 2.1,0.43 c 0.77,0.73 1.65,1.25 2.67,1.55 Z"/></g>
<g><path fill="#6e5b54" stroke="#6e5b54" stroke-width="0.5" d="M 112.02,65.75 c 0.78,0.31 1.58,0.45 2.41,0.43 c 2.66,-0.33 5.33,-0.45 8.01,-0.36 c 2.79,0.37 5.58,0.49 8.39,0.35 c -0.23,2.64 -1.71,8.44 3.11,7.38 c 1.45,-1.23 2.31,-2.79 2.58,-4.71 c -0.06,-1.13 0.27,-2.11 0.98,-2.94 c 1.75,0.56 3.48,1.21 5.2,1.94 c 1.85,1.04 3.66,2.15 5.41,3.33 c -0.24,0.43 -0.47,0.88 -0.68,1.33 c 0.61,0.93 1.13,1.91 1.55,2.94 c 2.09,0.37 2.54,1.41 1.35,3.13 c 1.25,1.42 1.78,1.41 2.03,3.7 c 0.88,1.47 2.28,2.53 0.99,4.28 c 0.74,2.16 2.36,-0.4 2.43,1.9 c -0.43,0.41 -0.9,0.78 -1.41,1.11 c 0.31,1.64 1.29,2.49 2.96,2.54 c 2.08,1.42 -2.06,1.83 -0.83,3.47 c 0.94,-0.46 1.43,-0.19 1.49,0.83 c -0.52,0.51 -1.13,0.89 -1.82,1.16 c 0.53,1.41 2.86,1.55 1.24,3.46 c -0.94,0.45 -2.67,-0.33 -2.32,1.31 c 0.78,0.24 1.44,0.65 2,1.22 c -0.41,0.96 -0.79,1.94 -1.14,2.93 c -0.05,0.86 1.74,2.85 -0.32,2.5 c -0.85,-0.84 -2.55,-1.94 -2.59,0.4 c 1.44,0.69 3.66,1.66 1.52,3.45 c -0.47,-0.53 -0.88,-1.12 -1.23,-1.77 c -1.02,-0.2 -1.5,0.21 -1.46,1.23 c 0.66,1.01 1.57,0.82 1.26,2.18 c -0.88,0.6 -1.78,0.59 -2.69,-0.05 c -0.11,0.88 -0.08,1.79 0.09,2.7 c -1.04,1.44 -2.57,-0.07 -2.64,2.3 c -0.42,0.97 -2.59,1.23 -1.23,2.47 c 1.01,0.27 1.27,0.82 0.76,1.65 c -0.47,-0.22 -0.91,-0.21 -1.32,0.05 c -0.59,1.62 -1.52,3.02 -2.79,4.19 c -0.67,0.24 -1.35,0.31 -2.06,0.22 c 1.94,-2.21 6.27,-7.54 0.2,-8.58 c -2.97,0.57 -6.04,0.84 -7.87,3.56 c -2.06,3.89 1.06,5.99 4.59,5.62 c 0.31,0.15 0.59,0.34 0.85,0.57 c -0.51,1.98 -1.57,1.69 -3.06,2.59 c -0.01,1.02 -0.14,2 -0.38,2.94 c -0.82,-3.51 -3.99,-0.59 -5.01,1.01 c -2.49,-1.19 -3.71,0.29 -5.5,1.86 c -0.84,0.04 -1.68,-0.06 -2.52,-0.28 c -0.63,0.52 -1.3,0.98 -2,1.38 c -0.73,-0.22 -1.45,-0.28 -2.16,-0.15 c 0.56,1.06 0.29,1.78 -0.8,2.17 c -0.83,-0.62 -0.79,-1.68 -2.1,-1.52 c -0.99,0.44 -1.92,0.98 -2.77,1.63 c -1.36,-1.01 -2.76,-1.07 -4.21,-0.19 c -5.81,-0.45 -13.85,-0.22 -19.24,-2.22 c -0.82,-0.01 -1.54,0.26 -2.15,0.83 c -2.36,-0.66 -11.02,-6.86 -10.94,-9.1 c 0.14,-0.01 0.29,-0.02 0.44,-0.04 c -0.69,-1.9 -1.54,-3.79 -2.54,-5.66 c -0.39,-2.73 -0.5,-5.48 -0.33,-8.24 c 0.43,-1.32 0.6,-2.68 0.51,-4.06 c 17.49,10.29 24.35,-24.54 10.85,-31.83 c 0.46,0.03 0.89,-0.08 1.28,-0.32 c 2.78,-2.8 4.04,-4.76 7.85,-6.34 c 0.37,0.89 0.61,1.84 0.73,2.86 c 0.34,0.53 0.73,0.59 1.16,0.17 c 0.18,-3.71 3.49,0.5 5.48,-2.49 c -0.14,-0.71 -0.16,-1.42 -0.05,-2.12 c 0.92,-0.67 1.85,-1.32 2.77,-1.95 c 0.42,0.61 0.79,1.24 1.11,1.91 c 1.54,-1.54 0.41,-2.67 -0.79,-3.79 c 1.47,-0.76 6.28,-1.57 7.37,-2.47 Z M 115.1,114.19 c 1.72,2.14 3.9,3.58 6.54,4.34 c 10.52,4.35 20.34,-0.51 24.89,-10.47 c 1.22,-3.77 1.64,-7.64 1.24,-11.6 c 0.13,-0.72 0.41,-1.38 0.84,-1.97 c -1.38,-1.82 -2.65,-3.72 -3.82,-5.7 c -4.77,-5.93 -13.53,-6.88 -20.18,-3.71 c -6.52,3.59 -10.38,9.06 -11.59,16.43 c -1.11,4.54 -0.42,8.77 2.08,12.68 Z M 86.9,127.94 c 4.89,8.15 17.75,7.09 24.49,1.84 c 2.15,-1.76 1.59,-3.76 4.31,-1.05 c 1.19,0.45 1.06,-1.35 1,-1.98 c -0.57,-1.48 -1.58,-2.53 -3.05,-3.15 c -1.27,-0.77 -2.5,-0.76 -3.69,0.04 c 0.46,0.77 0.67,1.6 0.65,2.47 c -6.59,6.75 -16.23,5.6 -23.2,0.22 c -0.27,0.5 -0.45,1.03 -0.51,1.61 Z M 182.89,143.95 c 0.34,0.55 0.66,1.11 0.98,1.67 c 1.29,0.66 2.59,1.29 3.87,1.89 c 0.01,0.67 0.07,1.34 0.18,2.01 c 2.09,2 2.23,-1.2 2.44,-2.37 c 1.86,1.61 2.59,0.62 3.35,-1.2 c 2.56,-0.79 -0.51,2.91 -0.41,3.6 c 0.27,0.62 0.56,1.22 0.89,1.81 c 0.64,1.06 2.65,-0.68 3.57,-0.98 c -0.64,-0.97 -0.42,-1.71 0.65,-2.21 c 2.16,9.46 1.66,18.78 -1.5,27.97 c -1.1,-0.02 -0.84,-1.42 -1.49,-2.06 c -1.12,-0.16 -2.2,-0.39 -3.23,-0.71 c 0.02,-2.8 1.58,-0.49 2.87,-1.9 c 0.27,-2.87 -0.66,-1.87 -2.45,-1.52 c -0.97,-2.01 -0.99,-3.08 -3.74,-3.24 c -0.41,-0.89 -0.88,-1.75 -1.41,-2.57 c -0.82,0.2 -1.57,0.59 -2.25,1.14 c -0.55,-0.06 -0.94,-0.35 -1.16,-0.87 c 0.37,-0.93 0.71,-1.87 1,-2.82 c -0.73,-0.02 -1.45,-0.1 -2.17,-0.23 c -0.1,-1.3 1.06,-1.19 1.81,-1.87 c -0.38,-0.56 -0.7,-1.15 -0.96,-1.77 c -0.59,-0.4 -1.16,-0.83 -1.71,-1.27 c -0.21,-0.78 -0.53,-1.5 -0.99,-2.15 c -0.96,0.09 -1.89,0.35 -2.8,0.78 c -0.89,-2.38 -0.65,-5.25 -2.86,-6.82 c 2.52,-1.4 5.03,-2.84 7.52,-4.31 Z"/></g>
<g><path fill="#53403e" stroke="#53403e" stroke-width="0.5" d="M 239.82,253.74 c 2.35,-1.09 14.66,2.94 16.25,5.93 c 3.21,3.91 -11.99,-1.09 -12.14,-1.15 c -2.2,-1.85 -3.9,-1.15 -4.11,-4.78 Z"/></g>
<g><path fill="#694f4b" d="M 209.89,212.27 c 0.21,-1.54 2.18,-2.98 3.61,-3.15 c 3.71,4.67 0.17,4.72 -3.61,3.15 Z"/></g>
<g><path fill="#402d29" stroke="#402d29" stroke-width="0.5" d="M 182.68,208.86 c 0.07,-3.28 2.68,-0.96 4,-0.02 c 3.73,7.74 4.39,15.48 6.31,23.71 c 0.5,2.15 -0.69,4.94 1.97,6 c 1.29,0.39 12.46,4.89 10.34,6.24 c -2.67,1.02 -8.59,0.58 -10.77,-1.82 c -1.58,-5.59 -6.17,-7.18 -6.02,-13.95 c -1.33,-3.75 -2.64,-7.51 -3.92,-11.28 c -0.33,-3.03 -0.96,-5.99 -1.91,-8.88 Z"/></g>
<g><path fill="#422e2a" d="M 131.6,235.04 c 0.13,-8.58 2.55,-20.74 6.18,-28.62 c 0.67,-1.07 -0.05,-4.99 1.62,-5.07 c 2.11,5.11 -2.61,16.06 -1.83,22.16 c -1.12,3.57 -2.04,7.2 -2.76,10.88 c -0.39,1.42 -1.17,2.54 -2.35,3.34 c -0.59,-0.78 -0.87,-1.68 -0.86,-2.69 Z M 118.24,244.64 c 1.49,-1.55 3.19,-2.85 5.08,-3.91 c 2.42,-0.74 4.87,-1.25 7.36,-1.5 c 1.09,0.09 1.32,0.63 0.7,1.62 c -3.09,4.64 -8.07,4.94 -13.14,3.79 Z"/></g>
<g><path fill="#513c39" d="M 214.35,193.1 c 1.16,2.89 2.24,5.83 3.24,8.81 c 4.28,9.56 8.41,19.16 12.38,28.81 c 0.93,2.39 1.81,4.79 2.64,7.22 c 0.38,0.44 0.84,0.76 1.38,0.99 c 2.12,1.44 3.31,8.1 4.25,10.6 c 0.57,3.17 -1.83,3.14 -3.01,0.73 c -3,-5.23 -5.85,-10.22 -8.22,-15.82 c -3.87,-9.61 -13.35,-31.95 -12.66,-41.34 Z M 141.64,250.07 c 0.1,1.29 0.37,2.52 0.8,3.69 c 1.06,-4.69 1.96,-9.43 2.69,-14.2 c 0.48,-4.31 1.06,-8.6 1.75,-12.88 c -0.01,-1.35 0.83,-4.09 -0.57,-4.99 c 0.39,-1.57 0.85,-3.1 1.38,-4.58 c 1.19,-0.15 1.85,0.38 1.97,1.6 c -0.14,10.88 -1.06,30.03 -5.74,39.64 c -1.69,1.58 -3.54,-0.98 -2.98,-2.88 c 0.21,-1.81 0.44,-3.61 0.7,-5.4 Z"/></g>
<g><path fill="#56403a" d="M 108.25,199.14 c 0.97,-0.89 1.79,-1.9 2.47,-3.03 c 1.4,-0.87 2.65,-1.92 3.75,-3.17 c 5.02,-2.82 10.4,-4.31 16.15,-4.48 c -1.88,-0.02 -3.71,-0.27 -5.52,-0.74 c 0.15,-0.2 0.35,-0.32 0.61,-0.36 c 3.33,0.05 6.65,-0.13 9.94,-0.55 c 1.39,0.34 1.69,1.11 0.9,2.29 c -4.14,2.71 -8.14,2.71 -12.87,3.28 c -1.21,0.83 -2.54,1.15 -3.99,0.97 c -0.88,0.69 -1.64,1.5 -2.3,2.42 c -1.76,0.83 -3.44,1.8 -5.02,2.92 c -0.32,0.01 -0.61,-0.07 -0.88,-0.24 c -0.37,0.46 -0.76,0.9 -1.17,1.33 c -1.36,1.35 -2.05,1.13 -2.07,-0.64 Z"/></g>
<g><path fill="#503e37" stroke="#503e37" stroke-width="0.5" d="M 210.83,186.12 c -5.13,4.7 -20.22,7.93 -27.33,7.23 c -0.73,-0.14 -6.89,-1.09 -6.05,-2.33 c 0.99,-1.68 2.47,-2.6 4.44,-2.78 c 0.3,0.63 0.82,0.91 1.53,0.83 c 2.04,-0.26 4.09,-0.39 6.15,-0.39 c 4.72,-0.69 9.45,-1.46 14.17,-2.3 c 2.36,-0.17 4.72,-0.25 7.09,-0.26 Z"/></g>
<g><path fill="#4c3634" stroke="#4c3634" stroke-width="0.5" d="M 138.89,197.07 c 1.07,-4.4 5.11,-16.01 11.18,-13.62 c 3.19,2.89 -5.36,9.92 -6.22,12.89 c -0.8,0.6 -1.68,1.08 -2.64,1.42 c -0.88,1.85 -1.43,0.24 -2.32,-0.69 Z"/></g>
<g><path fill="#4a3630" d="M 124.29,183.44 c 1.5,-0.98 2.95,-2.02 4.37,-3.12 c 1.99,1.43 3.16,-3.87 6.34,-2.79 c 1.95,2.67 1.41,4.76 -1.63,6.27 c -2.9,0.19 -5.79,0.48 -8.67,0.88 c -0.36,-0.33 -0.49,-0.74 -0.41,-1.24 Z M 96.88,239.15 c 0.08,1.11 -0.58,3.03 0.58,3.72 c 2.76,-10.13 5.6,-20.25 8.52,-30.37 c -0.05,-1.15 1.99,-5.5 0.15,-5.8 c 0.29,-1.02 0.41,-3.06 1.39,-3.59 c 1.32,0.66 2.04,1.72 2.14,3.18 c -2,13.3 -5.71,25.18 -10.2,37.72 c -1.37,1.71 -4.33,1.28 -3.47,-1.48 c 0.07,-1.21 0.36,-2.34 0.89,-3.38 Z"/></g>
<g><path fill="#67514b" d="M 154.26,175.02 c 0.04,-1.93 1.47,-5.04 3.28,-2.09 c 0.9,1.64 2.08,12.5 -2.34,9.44 c -0.85,-2.37 -1.16,-4.82 -0.94,-7.35 Z"/></g>
<g><path fill="#5d4c46" d="M 196.91,176.14 c -0.55,3 -2.19,5.11 -4.92,6.35 c -0.54,-2.33 2.28,-2.97 -0.63,-3.98 c 0.74,-0.91 0.85,-2.83 -0.82,-1.93 c -1.2,-1.89 -1.18,-1.82 -3.09,-0.74 c -0.53,-0.24 -0.66,-0.61 -0.39,-1.14 c 2.91,-2.04 1.25,-0.41 0.62,-2.94 c -1.84,-1.66 -1.63,-0.24 -0.92,-2.2 c -0.43,-0.4 -0.88,-0.76 -1.36,-1.09 c 0.18,-1.07 0.12,-2.13 -0.19,-3.19 c 0.68,-0.55 1.43,-0.94 2.25,-1.14 c 0.53,0.82 1,1.68 1.41,2.57 c 2.75,0.16 2.77,1.23 3.74,3.24 c 1.79,-0.35 2.72,-1.35 2.45,1.52 c -1.29,1.41 -2.85,-0.9 -2.87,1.9 c 1.03,0.32 2.11,0.55 3.23,0.71 c 0.65,0.64 0.39,2.04 1.49,2.06 Z"/></g>
<g><path fill="#46322f" stroke="#46322f" stroke-width="0.5" d="M 105.02,174.02 c 1.39,-2.97 9.48,-12.85 12.06,-16.38 c 2.38,-2.39 3.38,4.35 3.7,5.69 c -1.88,3.61 -4.94,5.49 -7.36,8.61 c -2.49,1.33 -6.43,7.36 -8.4,2.08 Z M 130.27,271.13 c 3.19,0.48 4.51,-2.14 7.01,-3.49 c 1.32,-0.78 1.75,-1.86 1.29,-3.25 c -1.39,0.63 -2.74,1.33 -4.06,2.1 c -0.28,-0.06 -0.51,-0.2 -0.69,-0.43 c 1.92,-2.35 6.63,-6.85 8.86,-2.43 c -0.28,4.06 -8.29,10.02 -12.1,9.19 c -0.49,-0.47 -0.59,-1.03 -0.31,-1.69 Z"/></g>
<g><path fill="#3a2a26" stroke="#3a2a26" stroke-width="0.5" d="M 254.37,156.12 c 4.56,4.18 7.1,9.35 10.51,14.44 c 2.18,6.5 1.12,11.1 0.03,17.48 c -0.52,1.2 -1.06,2.42 -1.65,3.65 c -0.2,1.31 -0.5,2.59 -0.9,3.85 c 1.08,2.29 1.22,0.18 2.23,-0.32 c 1.11,-0.38 2.15,-0.27 3.11,0.34 c -0.6,0.28 -1.22,0.55 -1.86,0.79 c -0.66,2.32 -3.09,1.57 -4.83,2.21 c -0.56,0.79 -0.95,1.66 -1.17,2.62 c -1.07,0.97 -2.18,1.89 -3.31,2.78 c -0.44,0.61 -0.32,1.08 0.34,1.41 c -0.67,0.42 -1.43,0.66 -2.28,0.72 c -4.57,3.34 -10.71,4.38 -16.09,5.68 c -0.45,-0.55 -0.46,-1.13 -0.04,-1.74 c 10.74,-9.43 18.61,-36.87 15.53,-50.53 c 0,-1.14 0.13,-2.27 0.38,-3.38 Z M 179.8,198.87 c 6.34,-2.45 12.96,-2.38 19.53,-4.1 c 2.78,-1.22 5.57,-2.42 8.36,-3.62 c 3.79,-0.98 3.13,2.98 3.38,5.35 c 0.68,3.03 1.35,6.06 2.01,9.08 c -0.73,2.73 -5.67,6.07 -8.42,6.27 c -6.74,-2.05 -15.15,-4.94 -20.44,-9.46 c -1.56,-1.08 -4.12,-1.3 -4.42,-3.52 Z"/></g>
<g><path fill="#58433e" stroke="#58433e" stroke-width="0.5" d="M 140.58,173.3 c 0,0.63 0.24,1.13 0.71,1.5 c 2.04,-5.38 4.04,-10.77 6.02,-16.18 c 0.69,-1.58 1.57,-3.05 2.65,-4.41 c 0.15,-0.66 -0.09,-1.12 -0.72,-1.36 c 0.43,-0.71 0.92,-0.74 1.47,-0.08 c 1.85,5.35 -3.14,19.36 -6.57,23.87 c -1.05,1.56 -4.2,3.65 -5.06,0.83 c 0.36,-1.41 0.82,-2.81 1.38,-4.19 c 0.04,0.01 0.08,0.01 0.12,0.02 Z M 78.22,169.23 c 4.2,-1.54 22.95,3.19 25.36,7.25 c -4.29,3.33 -9.55,-1.32 -13.16,0.1 c -1.75,-1.34 -1.58,-1.26 -3.63,-0.93 c -3.83,-1.79 -7.32,-1.63 -8.57,-6.42 Z M 264.91,188.04 c 0.63,2.32 4.69,-0.7 5.6,2.64 c 0.31,-0.48 0.55,-1 0.72,-1.55 c 1.09,1.36 0.38,5.3 -1.14,6.48 c -4.08,4.02 -8.19,7.06 -13.22,9.76 c -0.66,-0.33 -0.78,-0.8 -0.34,-1.41 c 1.13,-0.89 2.24,-1.81 3.31,-2.78 c 0.22,-0.96 0.61,-1.83 1.17,-2.62 c 1.74,-0.64 4.17,0.11 4.83,-2.21 c 0.64,-0.24 1.26,-0.51 1.86,-0.79 c -0.96,-0.61 -2,-0.72 -3.11,-0.34 c -1.01,0.5 -1.15,2.61 -2.23,0.32 c 0.4,-1.26 0.7,-2.54 0.9,-3.85 c 0.59,-1.23 1.13,-2.45 1.65,-3.65 Z M 81.17,253.74 c 2.12,-4.55 8.01,-5.09 12.32,-5.69 c 4.58,0.6 1.61,3.81 -0.96,4.53 c -2.84,-0.94 -7.56,2.43 -11.36,1.16 Z"/></g>
<g><path fill="#63514b" stroke="#63514b" stroke-width="0.5" d="M 147.98,148.1 c 0.05,0.27 0.1,0.53 0.16,0.8 c -3.66,4.59 -6.06,10.14 -7.87,15.72 c -0.26,0.74 -0.74,1.3 -1.44,1.68 c -0.62,-0.19 -1.22,-0.42 -1.81,-0.7 c -0.56,-0.72 -1.05,-1.46 -1.49,-2.24 c -0.36,0.2 -0.73,0.37 -1.11,0.53 c -2.05,-0.43 -2.02,-1.52 -3.05,1 c -1.01,0.12 -1.51,-0.35 -1.5,-1.41 c 0.69,-0.64 1.33,-1.33 1.91,-2.04 c 0.06,-0.58 0.02,-1.15 -0.12,-1.72 c -1.34,-1.2 -2.32,-0.96 -0.09,-2.62 c 2.01,-0.59 3.99,-1.25 5.94,-2 c 0.61,0.21 1.21,0.42 1.81,0.65 c 0.26,-0.97 0.65,-1.87 1.19,-2.71 c 2.6,0.08 2.66,-0.17 3.58,-2.39 c 1.38,-0.71 2.68,-1.56 3.89,-2.55 Z"/></g>
<g><path fill="#4a3a34" stroke="#4a3a34" stroke-width="0.5" d="M 228.11,149.09 c 1.08,0.26 1.44,7.89 1.68,9.38 c -0.1,8.49 -1.11,16.62 -4.31,24.55 c -0.95,2.86 -2.16,5.59 -3.65,8.19 c -1.21,2.36 -2.31,2.31 -3.32,-0.14 c -0.04,-0.69 -0.1,-1.37 -0.15,-2.05 c -1.78,-2.5 -3.65,-4.9 -5.61,-7.22 c -1.13,-0.38 -2.2,-0.87 -3.22,-1.47 c -2.38,0.98 -6.47,0.39 -9.02,0.06 c -0.83,0.41 -1.62,0.4 -2.38,-0.06 c 1.34,-3.92 2.51,-7.92 3.51,-12 c 0.18,-2.67 0.52,-5.33 1.01,-7.96 c -0.27,-4.75 -0.77,-9.47 -1.5,-14.15 c 0.6,0.29 1.24,0.4 1.9,0.33 c 0.57,-0.71 1.09,-1.45 1.56,-2.22 c 0.6,0.93 1.37,1.67 2.31,2.23 c -0.08,1.69 -0.63,1.78 -1.65,0.28 c -1.09,-0.14 -1.54,0.33 -1.36,1.41 c 3.07,2.01 4.31,0.11 5.77,-2.23 c 2.33,-0.92 1.91,1.51 3.91,1.65 c 1.57,-0.86 3.18,-1.64 4.84,-2.34 c 0.64,2.09 1.75,2.35 3.32,0.77 c 1.65,1.9 0.37,2.31 3.73,1.91 c 1.16,0.91 -0.67,1.24 -1.2,1.79 c -2.05,2.14 2.83,3.76 3.75,1.77 c -0.66,-0.35 -1.29,-0.73 -1.9,-1.14 c 0.68,-0.44 1.34,-0.89 1.98,-1.34 Z"/></g>
<g><path fill="#624f47" stroke="#624f47" stroke-width="0.5" d="M 223.22,135.08 c 0.3,0.7 0.57,1.42 0.8,2.18 c 1.31,1.27 2.14,2.82 2.5,4.64 c 0.79,2.34 1.32,4.73 1.59,7.19 c -0.64,0.45 -1.3,0.9 -1.98,1.34 c 0.61,0.41 1.24,0.79 1.9,1.14 c -0.92,1.99 -5.8,0.37 -3.75,-1.77 c 0.53,-0.55 2.36,-0.88 1.2,-1.79 c -3.36,0.4 -2.08,-0.01 -3.73,-1.91 c -1.57,1.58 -2.68,1.32 -3.32,-0.77 c -1.66,0.7 -3.27,1.48 -4.84,2.34 c -2,-0.14 -1.58,-2.57 -3.91,-1.65 c -1.46,2.34 -2.7,4.24 -5.77,2.23 c -0.18,-1.08 0.27,-1.55 1.36,-1.41 c 1.02,1.5 1.57,1.41 1.65,-0.28 c -0.94,-0.56 -1.71,-1.3 -2.31,-2.23 c -0.47,0.77 -0.99,1.51 -1.56,2.22 c -0.66,0.07 -1.3,-0.04 -1.9,-0.33 c -0.8,-3.52 -2.49,-5.87 -3.97,-8.95 c 1.45,-1.05 2.53,-1.69 4.3,-0.78 c 1.99,-3.51 17.55,-1.49 21.1,-0.48 c 0.49,-0.12 0.71,-0.43 0.64,-0.93 Z"/></g>
<g><path fill="#3b2f2a" d="M 115.1,114.19 c 0.52,-0.12 1.05,-0.24 1.57,-0.36 c 1.75,1.87 3.88,3.09 6.38,3.68 c -0.47,0.34 -0.94,0.68 -1.41,1.02 c -2.64,-0.76 -4.82,-2.2 -6.54,-4.34 Z"/></g>
<g><path fill="#694032" d="M 78.26,101 c 0.04,-0.79 -0.28,-2.13 0.98,-1.82 c 2.45,2.79 3.83,5.74 8.32,4.14 c 1.31,2.14 -0.93,4.9 -3.12,5.42 c -3.99,-0.22 -5.93,-4.17 -6.18,-7.74 Z"/></g>
<g><path fill="#2e1711" stroke="#2e1711" stroke-width="0.5" d="M 121.64,118.53 c 0.47,-0.34 0.94,-0.68 1.41,-1.02 c 3.98,1.13 7.94,1.1 11.88,-0.11 c 1.22,-0.76 2.48,-1.42 3.8,-1.98 c -2.51,0.3 -5.05,0.33 -7.61,0.09 c -7.67,-1.71 -10.16,-11.34 -7.2,-17.91 c 2.86,-5.66 7.37,-7.82 13.54,-6.49 c 2.02,0.85 3.91,1.9 5.68,3.16 c -0.39,0.95 -0.1,1.58 0.88,1.9 c -0.07,0.68 0.12,1.27 0.58,1.77 c 0.59,-0.53 0.32,-1.99 -0.58,-1.77 c 0.05,-0.55 0.15,-2.27 -0.88,-1.9 c -1.18,-5.79 -8.94,-8.02 -14.05,-6.69 c -8.29,2.69 -13.09,8.35 -14.38,16.99 c -0.55,3.36 0.1,6.44 1.96,9.26 c -0.52,0.12 -1.05,0.24 -1.57,0.36 c -2.5,-3.91 -3.19,-8.14 -2.08,-12.68 c 1.21,-7.37 5.07,-12.84 11.59,-16.43 c 6.65,-3.17 15.41,-2.22 20.18,3.71 c 1.17,1.98 2.44,3.88 3.82,5.7 c -0.43,0.59 -0.71,1.25 -0.84,1.97 c 0.4,3.96 -0.02,7.83 -1.24,11.6 c -4.55,9.96 -14.37,14.82 -24.89,10.47 Z M 126.67,98.02 c 1.48,6.59 10.03,1.23 5.24,-3.41 c -2.99,-0.82 -4.73,0.32 -5.24,3.41 Z M 124.26,104.94 c 1.75,7.47 6.6,10.57 14.31,8.05 c 0.7,-0.07 1.3,0.17 1.77,0.71 c 0.86,-0.78 1.56,-1.69 2.11,-2.73 c 0.46,-1.65 -0.86,-1.03 1.12,-2.54 c -0.36,-0.39 -0.63,-7.27 -2.45,-4.84 c -1.99,4.27 -4.6,6.69 -9.48,4.3 c -2.19,-1.49 -4.29,-3.09 -6.3,-4.82 c -1.14,-0.24 -1.11,1.14 -1.08,1.87 Z"/></g>
<g><path fill="#5e392c" stroke="#5e392c" stroke-width="0.5" d="M 124.26,104.94 c -0.03,-0.73 -0.06,-2.11 1.08,-1.87 c 2.01,1.73 4.11,3.33 6.3,4.82 c 4.88,2.39 7.49,-0.03 9.48,-4.3 c 1.82,-2.43 2.09,4.45 2.45,4.84 c -1.98,1.51 -0.66,0.89 -1.12,2.54 c -0.55,1.04 -1.25,1.95 -2.11,2.73 c -0.47,-0.54 -1.07,-0.78 -1.77,-0.71 c -7.71,2.52 -12.56,-0.58 -14.31,-8.05 Z"/></g>
<g><path fill="#503a36" d="M 132.86,68.06 c 0.45,-3.85 1.05,-7.68 1.8,-11.48 c 0.66,-7.41 0.01,-14.67 0.18,-22.06 c 0.04,-1.43 1.27,-2.69 2.26,-1.02 c 0.22,4.01 0.29,8.02 0.21,12.04 c -0.6,6.39 -1.4,12.75 -2.41,19.07 c -0.28,1.53 -0.81,2.95 -1.59,4.25 c -0.33,-0.15 -0.48,-0.42 -0.45,-0.8 Z"/></g>
<g><path fill="#47332f" d="M 78.24,36.45 c 0.9,-0.93 1.67,-1.96 2.29,-3.1 c 1.14,1.42 2.36,2.77 3.65,4.06 c 6.32,9.21 11.91,18.01 16.52,28.19 c -1.86,1.6 -2.24,-2.8 -3.11,-3.71 c -2.94,-3.93 -4.52,-8.54 -7.78,-12.29 c -2.75,-3.14 -9.7,-10.17 -11.57,-13.15 Z"/></g>
<g><path fill="#5b4741" stroke="#5b4741" stroke-width="0.5" d="M 113.04,16.36 c 6.36,3.99 12.72,8.01 19.08,12.05 c 0.7,0.57 1.2,1.27 1.5,2.1 c -5.56,1.81 -7.02,-1.94 -11.53,-2.07 c -4.4,-2.09 -17.43,-8.91 -18.73,-13.44 c 1.36,-0.65 -1.24,-2.57 -0.06,-3.72 c 1.08,0.46 1.97,1.16 2.68,2.09 c 2.02,0.95 3.96,2.06 5.81,3.33 c 0.54,0.25 0.96,0.14 1.25,-0.34 Z M 37.08,43.28 c 1.49,0.15 2.98,0.1 4.46,-0.15 c 3.34,-0.74 6.67,-1.44 10,-2.11 c 5.49,-1.33 10.91,-2.83 16.28,-4.51 c -0.16,-0.27 -0.39,-0.48 -0.69,-0.61 c 0.25,-0.48 0.66,-0.72 1.22,-0.72 c 2.38,-0.52 4.79,-0.92 7.21,-1.2 c 0.93,-0.18 1.27,0.17 1.02,1.04 c -4.33,2.35 -8.66,4.75 -12.99,7.21 c -4.52,1.84 -24.57,7.21 -26.51,1.05 Z M 57.23,168.68 c 1.54,-6.57 10.49,-2.83 14.45,-0.92 c 1.01,0.28 2.51,0.23 2.21,-1.26 c -0.31,-1.14 -0.82,-2.2 -1.53,-3.16 c -0.49,-2.25 0.14,-2.63 1.9,-1.13 c 1.44,1.73 2.76,6.3 0.09,7.49 c -6,2.84 -12.61,6.28 -17.12,-1.02 Z M 148.33,212.18 c 2.34,-4.53 3.17,-11.02 4.5,-16.01 c 0.13,-0.46 0.26,-0.93 0.4,-1.39 c 0.86,0.13 1.23,-4.5 1.75,-5.36 c 0.26,-1.07 0.02,-1.98 -0.73,-2.73 c 0.2,-1.95 3.35,-2.47 3.73,-0.25 c -0.25,8.18 -1,20.67 -8.15,26 c -0.33,0.3 -1.67,0.55 -1.5,-0.26 Z"/></g>
<g><path fill="#311914" stroke="#311914" stroke-width="0.5" d="M 175.15,163.02 c 3.13,0.81 0.79,4.73 0.16,6.54 c 0.32,0.65 0.81,1.15 1.45,1.5 c 0.13,2.87 -2.76,4.01 -2.04,6.88 c -1.15,-0.04 -0.96,-1.86 -1.23,-2.63 c -0.44,1.02 -1.06,1.9 -1.86,2.65 c -1.22,-0.05 -3.19,-5.7 -4.47,-4.38 c -0.06,0.47 -0.04,0.94 0.08,1.4 c -0.3,1.12 -0.29,2.24 0.02,3.35 c 1.25,2.83 2.46,5.66 3.63,8.5 c -0.75,0.2 -1.49,0.2 -2.24,0.03 c -0.8,-1.18 -1.66,-2.31 -2.58,-3.41 c -0.71,-1.3 -1.41,-2.6 -2.08,-3.91 c -0.8,-0.24 -1.62,-0.4 -2.46,-0.49 c -0.98,-0.96 -1.31,-2.13 -0.97,-3.51 c -0.97,-1.63 -2.01,-2.28 -1.28,-4.4 c 3.05,1.88 1.69,2.62 3.21,-1.18 c 3.02,-2.87 6.47,-1.85 8.49,1.53 c 0.36,0.31 0.75,0.35 1.16,0.11 c 1.07,-2.84 2.08,-5.7 3.01,-8.58 Z"/></g>
<g><path fill="#664e4a" d="M 167.24,174.98 c 2.04,3.67 4.16,7.28 6.38,10.85 c 0.43,0.71 0.91,0.8 1.43,0.27 c 0.31,0.12 0.51,0.34 0.61,0.66 c 0.43,1.19 0.06,1.93 -1.1,2.25 c -1.43,-0.36 -2.65,-1.08 -3.67,-2.18 c -1.17,-2.84 -2.38,-5.67 -3.63,-8.5 c -0.31,-1.11 -0.32,-2.23 -0.02,-3.35 Z"/></g>
<g><path fill="#574641" stroke="#574641" stroke-width="0.5" d="M 155.18,156.08 c 0.4,0.33 0.86,0.55 1.37,0.64 c 1.55,-0.47 3.77,-0.71 2.73,1.76 c 0.49,0.26 0.93,0.59 1.33,0.97 c -0.29,0.82 -1.6,0.7 -1.3,1.76 c 1.29,0.72 2.63,1.35 4.01,1.89 c 0.49,0.54 0.93,1.1 1.34,1.69 c 1.54,0.15 1.92,-3.29 3.73,-3.73 c 1.03,-2.37 2.14,-2.42 3.32,-0.16 c 2.81,1.09 2.15,-2.27 2.54,-3.87 c 0.93,0.45 0.28,4.87 0.9,5.99 c -0.93,2.88 -1.94,5.74 -3.01,8.58 c -0.41,0.24 -0.8,0.2 -1.16,-0.11 c -2.02,-3.38 -5.47,-4.4 -8.49,-1.53 c -1.52,3.8 -0.16,3.06 -3.21,1.18 c -1.19,-2.88 -4.45,-1.88 -6.74,-1.27 c -0.13,-0.13 -0.26,-0.27 -0.39,-0.4 c 0.95,-4.48 1.96,-8.94 3.03,-13.39 Z M 247.76,190.14 c -1.04,2.84 -2.27,5.61 -3.66,8.29 c -1.02,-0.3 -1.9,-0.82 -2.67,-1.55 c -0.71,-0.15 -1.41,-0.3 -2.1,-0.43 c 0.67,-0.85 1.55,-2.49 0.19,-3.2 c -1.66,-0.16 -3.32,-0.35 -4.97,-0.59 c -0.66,-0.47 -1.3,-0.95 -1.93,-1.44 c -1.19,0.45 -2.3,1.03 -3.33,1.75 c -0.91,-0.19 -1.8,-0.47 -2.67,-0.83 c -0.94,0.96 -1.17,2.34 -2.89,1.56 c 1.08,-1.86 2.08,-3.78 2.99,-5.74 c 1.01,-0.05 1.96,0.18 2.85,0.68 c 0.59,-0.17 1.18,-0.3 1.78,-0.38 c 0.9,0.46 3.25,1.45 2.79,-0.69 c -0.77,-0.68 -1.94,-2.56 0.16,-2.47 c 0.8,1.58 1.64,3.12 2.5,4.61 c 2.29,0.84 0.17,-4.08 3.74,-2.43 c -0.97,1.53 -0.65,2.66 0.96,3.39 c 0.58,-2.1 1.62,-2.35 3.12,-0.76 c 1.05,0.07 2.09,0.14 3.14,0.23 Z"/></g>
<g><path fill="#453734" stroke="#453734" stroke-width="0.5" d="M 185.21,165.28 c 0.31,1.06 0.37,2.12 0.19,3.19 c 0.48,0.33 0.93,0.69 1.36,1.09 c -0.71,1.96 -0.92,0.54 0.92,2.2 c 0.63,2.53 2.29,0.9 -0.62,2.94 c -0.27,0.53 -0.14,0.9 0.39,1.14 c 1.91,-1.08 1.89,-1.15 3.09,0.74 c 1.67,-0.9 1.56,1.02 0.82,1.93 c 2.91,1.01 0.09,1.65 0.63,3.98 c -4.26,0.78 -8.45,1.83 -12.56,3.17 c -1.54,-2.15 -2.78,-4.47 -3.74,-6.97 c -0.24,-0.36 -0.56,-0.61 -0.97,-0.75 c -0.72,-2.87 2.17,-4.01 2.04,-6.88 c 1.89,-4.75 2.29,-9.6 1.2,-14.55 c -0.04,-0.5 0.05,-0.98 0.27,-1.43 c 0.91,-0.43 1.84,-0.69 2.8,-0.78 c 0.46,0.65 0.78,1.37 0.99,2.15 c 0.55,0.44 1.12,0.87 1.71,1.27 c 0.26,0.62 0.58,1.21 0.96,1.77 c -0.75,0.68 -1.91,0.57 -1.81,1.87 c 0.72,0.13 1.44,0.21 2.17,0.23 c -0.29,0.95 -0.63,1.89 -1,2.82 c 0.22,0.52 0.61,0.81 1.16,0.87 Z"/></g>
<g><path fill="#5b360b" d="M 65.06,147.98 c -0.34,0.06 -0.55,0.25 -0.64,0.58 c 0.09,1.93 0.28,3.86 0.57,5.77 c 1.65,2.01 3.17,4.12 4.55,6.32 c 1.2,-0.6 0.45,-2.56 1.06,-3.62 c 0.23,0.36 0.47,0.71 0.7,1.07 c -0.29,1.4 0.03,3.83 -0.95,4.85 c -0.9,0.16 -1.68,-0.08 -2.33,-0.72 c 0,-0.47 -0.15,-0.9 -0.44,-1.28 c -2.07,-1.73 -3.96,-5.62 -7.05,-5.35 c -2.29,0.24 -13.63,1.23 -14.86,-0.39 c 4.66,-0.38 9.34,-0.71 14.02,-0.98 c 0.47,0 0.8,-0.2 0.98,-0.6 c -2.49,-1.98 -5.29,-5.23 -8.16,-6.52 c -3.36,-0.25 -6.7,-0.65 -10.02,-1.2 c -0.73,-0.07 -1.28,-0.41 -1.65,-1.03 c 3,-0.14 5.97,-0.28 8.92,-0.4 c -1.06,-1.46 -2.19,-2.88 -3.4,-4.27 c -0.35,-0.47 -0.81,-0.79 -1.36,-0.98 c -1.32,-2.32 -2.6,-4.67 -3.84,-7.07 c -0.2,-0.45 -0.14,-0.85 0.2,-1.17 c 1.07,1.61 2.14,3.25 3.22,4.9 c 2.24,2.22 5.18,6.39 7.94,7.75 c -0.26,-2.05 -0.35,-4.12 -0.27,-6.2 c -0.08,-0.82 0.27,-1.21 1.05,-1.18 c 0.37,3.01 0.97,5.99 1.8,8.96 c 2.13,2.54 4.59,4.7 7.37,6.5 c 0.12,-0.12 0.24,-0.23 0.36,-0.35 c -0.02,-0.7 -0.17,-9.29 1.84,-6.68 c -0.02,1.11 0.11,2.21 0.39,3.29 Z"/></g>
<g><path fill="#4b3116" stroke="#4b3116" stroke-width="0.5" d="M 73.93,157.91 c -0.77,-0.25 -1.27,-0.77 -1.49,-1.57 c -0.12,0.77 -0.5,1.36 -1.14,1.76 c -0.23,-0.36 -0.47,-0.71 -0.7,-1.07 c 0.28,-3.74 0.24,-9.88 -2.41,-12.72 c -5.93,-13.37 -19.91,-10.38 -29.3,-18.75 c -1.11,-0.63 -1.75,-0.3 -1.9,0.98 c -1.07,6.19 -1.56,12.62 0.36,18.7 c -0.26,2.28 3.8,8.99 5.79,10.01 c -0.21,3.12 9.71,6.51 12.29,7.04 c 0.54,0.27 1.03,0.61 1.46,1.03 c -0.71,1.02 -1.57,1.88 -2.58,2.59 c -2.17,-0.76 -4.39,-1.48 -6.65,-2.17 c -11.17,-5.28 -15.07,-16.53 -14.81,-28.27 c 0.12,-3.11 1.04,-14.51 3.67,-16.1 c 2,1.82 4.11,3.55 6.32,5.21 c 12.61,6.29 26,6.97 30.49,22.79 c 1.03,3.49 0.31,7.02 0.6,10.54 Z"/></g>
</svg>
