<?xml version="1.0" encoding="UTF-8"?>
<!DOCTYPE svg PUBLIC "-//W3C//DTD SVG 1.1//EN" "http://www.w3.org/Graphics/SVG/1.1/DTD/svg11.dtd">
<svg xmlns="http://www.w3.org/2000/svg" version="1.1" width="314px" height="374px" style="shape-rendering:geometricPrecision; text-rendering:geometricPrecision; image-rendering:optimizeQuality; fill-rule:evenodd; clip-rule:evenodd" xmlns:xlink="http://www.w3.org/1999/xlink">
<rect x="0" y="0" width="314" height="374" fill="#ffffff"/>
<g><path fill="#ffffff" stroke="#ffffff" stroke-width="0.5" d="M 0,0 c 104.67,0 209.33,0 314,0 c 0,124.67 0,249.33 0,374 c -104.67,0 -209.33,0 -314,0 c 0,-124.67 0,-249.33 0,-374 Z M 178,19 c -1.2,0.58 -2.26,1.35 -3.19,2.3 c -32.58,30.35 -63.81,62.25 -94.91,94.1 c -2.34,2.27 -2.65,5.16 -4.06,7.4 c -4.26,5.33 -20.13,18.08 -18.38,25.22 c 1.77,3.43 4.02,6.51 6.74,9.26 c 1.74,1.58 3.14,1.35 4.2,-0.69 c 0.77,-3.58 1.82,-7.06 3.14,-10.43 c 0.37,0.02 0.61,0.21 0.72,0.55 c -1.13,5.58 -1.16,11.17 -0.08,16.77 c 0.12,1.63 0.82,2.92 2.1,3.87 c 2.12,0.7 7.79,-0.47 10.2,-0.53 c 1.99,-0.23 2.91,-1.33 2.75,-3.3 c -3.47,-10.89 -4.27,-20.92 -4.59,-32.23 c 0.38,-0.11 0.77,-0.22 1.16,-0.32 c 0.29,2.66 30.94,55.71 33.41,57.72 c -7.67,0.5 -9.87,8.5 -13.1,13.97 c -14.31,5.34 -14.82,18.08 -1.66,25.27 c 2.07,9.24 5.62,18.08 17.08,16.12 c 6.46,-1.09 5.01,-7.8 13.27,-5.58 c 3.36,0.86 8.19,0 10.69,2.82 c 2.57,4.16 5.05,8.4 7.42,12.7 c -0.08,0.33 -0.29,0.54 -0.63,0.63 c -6.03,-0.19 -11.9,0.64 -17.64,2.5 c -5.14,1.94 -10.13,4.16 -14.98,6.68 c -1.08,-0.88 -2.22,-7.16 -3.23,-8.79 c -1.84,-4.37 -4.5,-5.07 -8.76,-4.43 c -3.05,-1.45 -5.86,-5.71 -9.16,-1.66 c -0.8,1.24 -1.57,2.49 -2.31,3.75 c -8.77,1.78 -6.48,8.44 -3.6,14.5 c 1.85,3.79 3.93,7.44 6.23,10.97 c -1.06,0.18 -2,-0.08 -2.82,-0.77 c -0.66,-1.71 0.5,-2.52 -1.64,-1.78 c -0.51,-0.96 -1.11,-1.88 -1.79,-2.75 c -0.82,-0.76 -3.87,-1.55 -3.47,0.45 c 0.86,0.46 1.39,1.15 1.58,2.06 c -0.8,1.02 -2.05,-0.67 -2.48,-1.27 c -1.96,-0.92 -5.58,3.93 -6.37,5.46 c -0.38,2.84 5.87,6.93 8.07,8.21 c 1.06,0.21 0.93,-1.15 1.7,-1.54 c 0.59,0.92 1.24,1.83 1.94,2.72 c 1.41,0.24 2.57,1.3 3.99,1.33 c 2.44,-2.68 1.59,-1.15 2.97,0.74 c 3.22,0.66 8.72,2.41 11.65,2.47 c 0.94,0.78 2.02,1.23 3.22,1.35 c 1.56,-1.37 0.75,-2.62 2.47,-0.21 c 2.29,1.1 3.15,1.6 5.66,0.67 c 1.14,0.76 2.38,1.2 3.74,1.32 c 1.99,-2.77 0.66,0.05 3.22,0.47 c 0.99,-0.14 1.95,-0.38 2.89,-0.71 c 0.96,0.45 1.97,0.65 3.02,0.61 c 2.62,-1.92 3.92,1.03 6.97,-0.79 c 2.55,1.08 5.28,0.27 7.97,0.6 c 2.44,-1.15 2.86,0.27 5.14,0.13 c 0.7,-0.46 1.36,-0.97 1.97,-1.53 c 0.38,0.96 1.06,1.5 2.07,1.63 c 0.98,-0.17 1.93,-0.46 2.84,-0.86 c 1.45,0.62 13.13,0.65 14.68,0.2 c 2.16,1.35 9.65,0.41 12.47,0.62 c 2.56,-0.34 3.28,-3.35 5.83,-4.03 c 0.01,1.21 -0.8,2.17 0.09,3.24 c 2.71,1.25 6.07,0.64 8.98,0.73 c 2.62,-0.95 2.61,-0.15 5.03,0.09 c 2.32,-1.22 1.82,-0.73 4.12,-0.02 c 3.87,-1.1 7.84,0.48 11.91,-0.43 c 1.77,0.45 3.36,1.07 4.48,-0.84 c 3.55,1.46 8.48,0.2 12.04,-0.87 c 3.01,0.53 5.84,0.05 8.49,-1.43 c 1.86,1.01 3.26,0.6 4.2,-1.22 c 0.64,0.29 1.26,0.62 1.87,0.99 c 1.56,-0.69 3.21,-1.09 4.93,-1.19 c 0.08,-0.15 0.17,-0.3 0.25,-0.45 c -0.51,-0.87 -1.35,-2.51 0.57,-2.37 c 0.45,0.91 1.16,1.43 2.13,1.58 c 1.03,-0.46 2.01,-1.02 2.92,-1.69 c 2.71,0.36 13.95,-5.4 13.45,-8.47 c -1.1,-2.55 1.11,-4.04 -2.92,-3.58 c 0.83,-1.74 1.65,-3.5 2.44,-5.27 c 1.67,-5.09 -5.37,-5.3 -8.6,-6.03 c -0.11,-0.13 -0.22,-0.27 -0.33,-0.4 c 2.52,-3.02 4.81,-6.23 6.89,-9.62 c 2.04,-3.59 3.61,-7.37 4.72,-11.34 c 0.35,-0.2 0.68,-0.16 0.99,0.12 c 1.65,1.73 3.44,3.32 5.36,4.77 c 6.55,3.59 8.69,-11.68 7.38,-15.57 c -0.8,-2.57 -2.49,-3.43 -5.1,-2.57 c -2.33,0.85 -4.65,1.72 -6.95,2.59 c -0.48,-0.46 -0.66,-1.03 -0.53,-1.71 c -0.07,-8.99 -3.91,-18.13 -11.74,-23.01 c 0.16,-0.54 0.35,-1.07 0.56,-1.59 c 2.89,-1.4 9.51,-4.42 5.61,-8.43 c -3.49,-3.89 -7.85,-5.89 -13.07,-6 c -1.96,0.32 -2.88,1.5 -2.74,3.55 c -0.23,3.21 0.87,6.45 -0.01,9.59 c -0.33,-0.51 -0.78,-0.8 -1.37,-0.89 c -31.88,-1.03 -26.41,35.08 -44.01,43.56 c -8.73,3.02 -18.21,-6.15 -21.07,-13.29 c 0.04,-0.55 0.32,-0.9 0.85,-1.05 c 7.56,-1.55 12.75,-5.92 15.57,-13.09 c 3.94,-9.41 1.48,-15.17 -0.57,-24.29 c 8.68,-10.73 17.37,-21.44 26.09,-32.14 c 6.52,-8.03 13.26,-15.87 20.21,-23.49 c 0.37,0.24 0.51,0.59 0.44,1.05 c -0.5,3.95 -0.91,7.9 -1.22,11.87 c -0.9,6.52 -2.51,12.85 -4.83,19.01 c -0.33,1.16 -0.31,2.31 0.06,3.43 c 2.15,1.87 9.65,2.36 12.54,2.13 c 1.75,-0.91 2.63,-2.38 2.62,-4.4 c 0.63,-4.82 0.86,-9.65 0.69,-14.51 c 0.27,-0.41 0.56,-0.81 0.87,-1.19 c 1.15,3.56 2.19,7.15 3.12,10.78 c 1.02,4.76 7.35,-2.68 8.4,-3.91 c 4.89,-4.76 3,-8.81 -0.87,-13.35 c -4.1,-4.78 -8.15,-9.59 -12.15,-14.45 c -2.14,-2.53 -2.81,-3.86 -3.7,-7.05 c -6.78,-9.69 -13.62,-19.34 -20.52,-28.95 c -0.1,-0.34 -0.3,-0.62 -0.6,-0.82 c -19.47,-26.49 -38.31,-53.33 -58.51,-79.3 c -0.73,-1.23 -1.71,-2.2 -2.93,-2.91 c -0.08,-0.75 -0.53,-1.06 -1.34,-0.93 c -0.87,-0.09 -1.38,0.27 -1.51,1.09 Z"/></g>
<g><path fill="#55a1d2" stroke="#55a1d2" stroke-width="0.5" d="M 186.13,137.02 c -0.27,1.3 1.54,1.37 2.35,1.19 c 3.84,-1.14 9.02,-3.51 13.02,-3.26 c 5.3,0.09 8.04,1.14 12.46,3.59 c 0.92,-0.05 3.71,0.76 4.09,-0.44 c 1.91,-0.31 2.74,-1.42 2.49,-3.31 c -0.76,-1.18 -1.58,-2.31 -2.45,-3.41 c -1.7,-1.32 -3.39,-2.65 -5.06,-3.99 c -0.19,-1.33 1.42,-1.81 2.43,-1.8 c 4.05,0.59 8.09,1.17 12.13,1.75 c 2.06,0.6 3.67,1.53 5.65,0.07 c 0.35,0.07 0.7,0.14 1.05,0.2 c 0.06,1.02 -0.06,2.02 -0.36,2.99 c -3.67,7.44 -7.67,14.7 -12,21.77 c -6.35,-7.49 -20.3,-8.88 -27.65,-1.6 c -0.46,2.55 -1.06,6.54 0.71,8.71 c 2.3,0.63 1.83,1.39 3.1,2.88 c 4.84,2.61 9.73,1.19 14.76,2.59 c -2.72,3.91 -6.02,7.25 -9.89,10.03 c -8.11,7.1 -17.95,12.96 -26.67,19.12 c -0.36,-0.56 -0.79,-1.08 -1.27,-1.54 c -1.83,-0.16 -3.66,-0.28 -5.5,-0.36 c -2.23,0.95 -4.54,1.68 -6.93,2.19 c 0.5,-8.66 1.08,-17.32 1.73,-25.98 c -0.24,-1.06 -0.92,-1.63 -2.05,-1.7 c -0.04,-0.17 -0.09,-0.34 -0.14,-0.51 c 0.87,0.04 1.74,0.06 2.61,0.07 c 0.06,4.35 11.83,-2.5 13.34,-3.84 c 4.07,-6.22 6.3,-9.95 5.14,-17.95 c -1.48,-5.15 -6.22,-5.24 -10.27,-2.95 c -1.47,2.75 -4.09,2.57 -6.87,2.49 c 0.93,-7.34 1.61,-14.71 2.03,-22.1 c 2.38,-2.38 5.32,-1.7 8.39,-1.87 c 3.95,0.6 7.92,0.95 11.91,1.07 c 1.85,0.89 4.53,0.09 3.73,3.34 c -1.86,1.86 -3.72,3.73 -5.6,5.6 c -1.78,1.52 -3.19,5.88 -0.41,6.96 Z"/></g>
<g><path fill="#fdfcfa" stroke="#fdfcfa" stroke-width="0.5" d="M 256.72,211.42 c -0.14,0.55 -0.01,1.03 0.39,1.43 c -1.81,1.41 -3.42,3.02 -4.83,4.82 c -2.72,5.84 10.53,9.5 14.52,8.77 c 0.14,0.54 0.28,1.09 0.44,1.63 c -4.3,3.87 -7.55,20.19 2.15,16.87 c 1.1,0.01 5.19,-2.98 5.36,-0.95 c -1.89,5.47 -4.79,10.32 -8.7,14.57 c -3.51,2.86 -0.73,-10.38 -7.44,-8.47 c -4.76,2.03 -11.43,7.31 -10.33,13.12 c -0.01,0.39 -0.2,0.58 -0.59,0.57 c -0.89,-0.81 -1.9,-1.04 -3.01,-0.71 c -0.42,0.55 -0.85,1.09 -1.29,1.61 c -0.6,-0.89 -1.28,-1.72 -2.07,-2.5 c -2.35,-0.06 -2.53,-1.67 -4.72,-0.11 c -1.64,-0.83 -1.57,-1.29 -3.2,-0.22 c -3.01,-2.11 -7.49,-1.68 -11.04,-1.96 c -0.95,-0.25 -1.89,-0.48 -2.84,-0.68 c -0.87,0.72 -0.88,1.5 -0.01,2.33 c -0.1,0.39 -0.34,0.51 -0.73,0.34 c -2.9,-5.19 -9.99,-1.4 -13.47,-3.65 c -0.88,0.2 -1.76,0.45 -2.62,0.75 c -2.13,-1.15 -3.02,-1.36 -4.38,0.71 c -0.52,-0.27 -0.93,-0.67 -1.23,-1.2 c -1.52,-0.84 -2.7,-0.49 -3.55,1.05 c -0.82,-1.11 -1.31,-1.93 -2.9,-1.36 c -2.2,1.13 0.22,1.88 1.03,2.48 c 0.1,0.72 -0.18,1.23 -0.84,1.52 c -1.39,-1.61 -3.33,-4.55 -5.84,-3.79 c -0.78,-0.32 -1.57,-0.63 -2.35,-0.93 c -2.98,1.97 -8.12,-0.48 -10.61,1.71 c -1.45,-1.21 -3.04,-2.2 -4.77,-2.96 c 0.01,-0.78 0.3,-1.47 0.87,-2.07 c 1.08,-1.7 2.46,-3.1 4.14,-4.2 c 2.37,-1.28 4.4,-2.95 6.11,-5.02 c 1.81,-3.25 3.55,-6.54 5.22,-9.86 c 2.01,-0.95 3.68,-0.49 4.99,1.39 c 5.6,10.67 14.59,20.82 27.91,18.46 c 23.47,-5.79 13.47,-38.45 40.23,-43.49 Z"/></g>
<g><path fill="#fdf2b5" stroke="#fdf2b5" stroke-width="0.5" d="M 176.17,25.73 c 0.4,0.4 0.77,0.82 1.1,1.28 c -0.28,1.61 -0.52,3.23 -0.71,4.86 c -0.65,0.17 -0.56,-1.52 -1.22,-1.8 c -4.65,4.57 -9.14,9.32 -13.45,14.24 c -3.34,3.18 -6.64,6.39 -9.92,9.64 c -8.49,8.52 -16.93,17.09 -25.31,25.72 c -5.06,4.98 -10.05,10.04 -14.95,15.18 c -5.28,5.6 -10.59,11.18 -15.93,16.74 c -1.56,1.82 -7.68,3.58 -7.6,6.05 c -0.3,0.03 -0.59,0.06 -0.88,0.08 c -0.5,-0.26 -0.94,-0.19 -1.33,0.21 c -1.9,-0.03 -2.11,-0.72 -0.64,-2.07 c 29.46,-30.71 59.55,-61.29 90.84,-90.13 Z"/></g>
<g><path fill="#67a2ca" stroke="#67a2ca" stroke-width="0.5" d="M 254.26,136.75 c 0.31,0.05 0.62,0.1 0.93,0.15 c -22.25,27.16 -44.93,53.77 -65.89,81.99 c -0.44,-0.06 -0.88,-0.11 -1.32,-0.17 c 0.04,-1.17 0.06,-2.34 0.07,-3.51 c 0.55,-0.34 0.99,-0.77 1.32,-1.31 c 17.48,-26.33 38.92,-50.8 59.55,-74.69 c 1.77,-0.86 3.55,-1.68 5.34,-2.46 Z"/></g>
<g><path fill="#ea735c" stroke="#ea735c" stroke-width="0.5" d="M 181.86,25.79 c -1.4,-0.06 -1.26,1.7 -0.76,2.53 c 3.32,5.7 6.86,11.25 10.63,16.67 c -0.97,0.09 -2.66,-1.65 -3.38,-0.52 c -0.05,3.01 -0.35,5.99 -0.9,8.96 c -1.01,4.04 -3.3,7.11 -6.86,9.2 c -0.43,-0.39 -0.81,-0.82 -1.17,-1.28 c -0.78,0.36 -3.54,1 -1.92,2.19 c -0.31,0.37 -0.62,0.75 -0.91,1.16 c -0.93,6 -1.96,11.97 -3.08,17.92 c -0.26,-0.91 -0.58,-1.79 -0.96,-2.65 c 1.49,-18.07 5.09,-35.84 7.19,-53.8 c 0.28,-2.5 0.99,-2.63 2.12,-0.38 Z M 179.79,56.01 c -0.11,1.11 0.37,1.65 1.41,1.62 c 1.7,-1.11 0.87,-11.56 0.34,-12.42 c -2.91,-0.22 -1.14,8.88 -1.75,10.8 Z"/></g>
<g><path fill="#d84d3c" stroke="#d84d3c" stroke-width="0.5" d="M 220.8,85.75 c 8.6,7.85 24.31,37.54 33.15,40.87 c 0.55,0.31 0.97,0.21 1.25,-0.31 c 0.91,0.77 1.55,1.74 1.92,2.91 c -0.43,0.43 -0.95,0.56 -1.56,0.4 c -6.4,-1.46 -12.81,-2.83 -19.23,-4.11 c 1.6,-1.15 -0.94,-1.96 -1.61,-2.55 c 0.72,-1.82 -2.72,-1.6 -2.6,-3.45 c 0.91,-2.05 2.63,1.99 2.75,-0.91 c -0.49,-0.82 -1.08,-1.57 -1.76,-2.25 c -3.19,-7.56 -6.52,-15.04 -10.01,-22.43 c -0.98,-2.25 -2.05,-4.45 -3.21,-6.6 c -0.24,-0.86 0.06,-1.38 0.91,-1.57 Z"/></g>
<g><path fill="#f8d659" stroke="#f8d659" stroke-width="0.5" d="M 146.65,113.89 c -0.46,-0.14 -0.65,-0.47 -0.57,-0.98 c -0.06,-0.53 -0.34,-0.88 -0.84,-1.07 c -1.14,-1.71 -2.49,-3.22 -4.07,-4.53 c -1.93,-1.36 -4.02,-2.38 -6.27,-3.06 c 0.64,-0.12 1.13,-0.45 1.46,-1 c 1.19,-0.47 2.33,-0.34 3.42,0.4 c 0.35,0.09 0.67,0.03 0.94,-0.19 c -0.6,-0.92 -1.41,-1.61 -2.43,-2.07 c -1.89,-0.31 -3.63,-0.97 -5.22,-1.98 c 0.24,-0.92 0.8,-1.6 1.68,-2.04 c 0.19,-0.32 0.29,-0.66 0.31,-1.03 c 0.8,-0.45 1.65,-0.75 2.55,-0.9 c 2.44,-2.86 1.15,-9.68 1.66,-13.37 c 0.11,-5.55 4.02,-5.49 8.16,-6.46 c 6.21,-1.6 9.12,-6.23 11.65,-11.63 c 2.33,0.03 2.28,-0.63 2.71,-2.63 c 0.51,-1.02 1.11,-1.97 1.8,-2.86 c -1.16,-0.92 -1.85,-2.12 -2.05,-3.61 c -2.62,-1.02 -1.17,-3.19 -1.65,-5.42 c 0.07,-1.95 3.12,-2.14 4.41,-1.34 c 1.38,2.25 1.88,1.21 3.75,2.39 c 1.63,1.65 3.24,2.24 2.18,5.01 c -3.56,3.43 -0.95,7.86 -1.05,11.98 c -0.48,3.62 -1.16,8.34 -0.92,11.99 c -1.7,6.71 -3.04,16.97 -2.45,24 c -0.73,2.56 -1.05,5.17 -0.97,7.83 c -0.77,0.66 -1.66,1.09 -2.67,1.28 c -3.56,0.11 -7.12,0.16 -10.7,0.16 c -2.35,-0.64 -3.6,-0.17 -3.63,-3.2 c -0.54,-0.89 -1.05,-0.88 -1.54,0.02 c 0.1,0.7 0.31,1.37 0.64,2.01 c -0.05,0.78 -0.14,1.54 -0.29,2.3 Z"/></g>
<g><path fill="#e07937" stroke="#e07937" stroke-width="0.5" d="M 109.35,261.23 c 0.85,4.78 1.76,9.55 2.73,14.32 c 0.12,1.21 0.72,2.01 1.82,2.41 c 0.05,0.72 -0.27,1.23 -0.95,1.52 c -9.37,2.26 -14.79,-8.78 -17.87,-15.75 c -0.76,-1.62 -0.8,-3.23 -0.1,-4.84 c 2.04,-0.81 3.38,-2.26 4.02,-4.38 c 0.36,-0.49 0.83,-0.66 1.42,-0.51 c 1.12,0.91 2.29,1.75 3.53,2.51 c 1,0.04 2,0.06 3,0.06 c 0.93,1.48 1.73,3.03 2.4,4.66 Z"/></g>
<g><path fill="#afe8ef" stroke="#afe8ef" stroke-width="0.5" d="M 82.94,121.72 c 1.58,0.37 2.98,1.1 4.2,2.2 c 6.33,8.75 11.96,17.92 16.91,27.53 c 0.23,0.29 0.53,0.46 0.9,0.5 c 0.13,1.64 0.83,2.98 2.1,4.03 c 3.57,8.25 10.85,19.14 14.73,27.99 c 0.82,1.39 3.31,4.71 3.5,6.14 c -0.78,-0.16 -1.55,-0.15 -2.32,0.03 c -14.32,-19.87 -25.89,-43.04 -38.19,-64.46 c -0.77,-1.25 -1.38,-2.56 -1.83,-3.96 Z"/></g>
<g><path fill="#f3f9fa" stroke="#f3f9fa" stroke-width="0.5" d="M 134.05,110.92 c -1.39,0.16 -4.35,0.38 -4.89,1.92 c -0.94,0.01 -1.58,0.42 -1.91,1.23 c -2.5,0.58 -4.23,5.52 -4.67,7.77 c -0.72,3.21 -0.43,6.34 0.88,9.38 c 2.04,4.99 5.73,7.7 11.1,8.12 c 1.76,-0.11 3.53,-0.28 5.28,-0.53 c -0.2,1.71 -3.37,2.78 -4.86,3.05 c -5.75,0.99 -8.11,-0.11 -12.96,-2.67 c -6.8,-5.1 -7.58,-12.49 -6.06,-20.37 c 0.81,-1.19 1.5,-2.45 2.07,-3.77 c 2.49,0.31 6.31,-3.67 8.74,-4.66 c 1.62,-0.44 6.32,-1.41 7.28,0.53 Z"/></g>
<g><path fill="#a26d4e" stroke="#a26d4e" stroke-width="0.5" d="M 124.05,193.36 c 1.04,0.43 1.72,1.18 2.06,2.26 c 0.5,0.73 0.59,1.49 0.26,2.28 c -11.1,4.29 -12.21,20.49 -10.2,30.48 c 0.59,2.18 1.54,4.19 2.85,6.02 c 1.18,0.94 2.46,1.69 3.84,2.25 c 0.1,0.53 -0.02,1 -0.34,1.42 c -3.59,5.25 -7.51,0.82 -8.81,-3.38 c -4.75,-11.46 -2.45,-31.16 6.27,-40.2 c 1.19,-1 2.54,-1.38 4.07,-1.13 Z"/></g>
<g><path fill="#f1b569" stroke="#f1b569" stroke-width="0.5" d="M 205.15,210.74 c 2.65,0.09 2.34,1.82 1.64,3.76 c 1.21,8.41 -7.8,13.81 -15.29,13.88 c -4.41,0.07 -8.6,-1 -12.99,-0.53 c -1.2,-0.54 -2.44,-0.91 -3.74,-1.13 c -1.19,-1.35 -2.3,-1.27 -3.32,0.24 c -0.89,-3.44 0.22,-5.95 3.33,-7.56 c 1.22,-0.16 2.44,-0.3 3.67,-0.42 c 1.41,-1.01 -0.2,-2.46 -0.47,-3.61 c -0.11,-2.25 2.82,-0.45 3.59,0.07 c 0.88,1 1.62,2.09 2.2,3.28 c -2.41,0.72 0.31,4.83 1.23,5.84 c 1.62,2.48 6.95,1.73 9.47,1.46 c 1.01,-0.07 3.75,-1.49 1.45,-2.24 c 4.3,-2.4 7.07,-5.99 8.3,-10.77 c 0.64,-0.6 0.95,-1.36 0.93,-2.27 Z"/></g>
<g><path fill="#bb8357" stroke="#bb8357" stroke-width="0.5" d="M 181.15,211.82 c -3.73,-1.61 -6.18,-0.46 -7.35,3.47 c -3.39,1.81 -4.42,3.18 -6.1,6.81 c -2.02,-2.57 1.08,-3.2 0.27,-5.52 c -1.03,-1.06 -1.88,-2.26 -2.53,-3.6 c 0.65,-3.34 1.82,-6.48 3.49,-9.43 c 0.75,-1.59 1.73,-3.01 2.94,-4.26 c 6.6,-4.38 9.69,8.12 9.28,12.53 Z"/></g>
<g><path fill="#b07750" stroke="#b07750" stroke-width="0.5" d="M 165.44,212.98 c 0.65,1.34 1.5,2.54 2.53,3.6 c 0.81,2.32 -2.29,2.95 -0.27,5.52 c 0.02,7.8 3.61,13.4 12.09,12.72 c -1.84,4.11 -4.65,12.41 -10.36,11.64 c -2.41,-2.11 -3.93,-4.75 -4.54,-7.92 c -1.57,-8.55 -1.38,-17.07 0.55,-25.56 Z"/></g>
<g><path fill="#f6d766" stroke="#f6d766" stroke-width="0.5" d="M 126.66,79.67 c 0.82,0.19 1.61,0.47 2.37,0.83 c 0.41,1.41 1.37,1.94 2.86,1.59 c 0.03,1.27 1.55,1.91 0.89,3.1 c -1.8,0.58 -3.64,1.08 -5.51,1.5 c -3.83,2.03 -11.17,6.8 -5.82,11.43 c 1.31,0.45 2.65,0.66 4.02,0.63 c 1.96,0.14 1.53,-1.89 3.21,-2.42 c 2.08,-0.21 4.52,-1.47 6.38,0.01 c -0.02,0.37 -0.12,0.71 -0.31,1.03 c -0.88,0.44 -1.44,1.12 -1.68,2.04 c 1.59,1.01 3.33,1.67 5.22,1.98 c 1.02,0.46 1.83,1.15 2.43,2.07 c -0.27,0.22 -0.59,0.28 -0.94,0.19 c -1.09,-0.74 -2.23,-0.87 -3.42,-0.4 c -1.14,-3.94 -12.49,-0.69 -15.24,-0.41 c 1.29,-1.61 -0.3,-3.1 -1.83,-3.62 c -0.41,-1.64 -0.75,-3.29 -1.01,-4.96 c -1.63,-0.22 -1.79,1.27 -3.71,0.14 c -0.92,0.37 -1.87,0.52 -2.86,0.45 c 4.9,-5.14 9.89,-10.2 14.95,-15.18 Z"/></g>
<g><path fill="#e49480" stroke="#e49480" stroke-width="0.5" d="M 214.03,159.76 c -1.78,0.65 -3.61,0.97 -5.5,0.95 c -2.56,-0.25 -5.07,-0.67 -7.55,-1.26 c -1.11,-1.18 -2.28,-2.29 -3.51,-3.34 c -0.84,-2.56 0.02,-4.29 2.59,-5.19 c 1.24,0.03 2.44,-0.19 3.59,-0.68 c 4.03,-0.31 7.83,0.45 11.4,2.3 c 2.13,1.03 2.68,2.58 1.64,4.65 c -0.95,0.8 -1.84,1.65 -2.66,2.57 Z"/></g>
<g><path fill="#ea937f" stroke="#ea937f" stroke-width="0.5" d="M 128.05,154.09 c -1.56,-0.01 -3.08,0.24 -4.57,0.74 c -4.72,0.34 -7.63,0.08 -11.85,-2.09 c -1.6,-0.88 -1.98,-2.15 -1.14,-3.81 c 0.78,-0.4 1.27,-1.01 1.45,-1.83 c 1.54,-0.74 3.12,-1.39 4.74,-1.96 c 4.05,-0.89 6.39,0.42 10.1,1.49 c 1.14,0.87 2.17,1.86 3.08,2.96 c 0.57,2 -0.03,3.5 -1.81,4.5 Z"/></g>
<g><path fill="#669fca" stroke="#669fca" stroke-width="0.5" d="M 263.67,151.73 c 0.27,3.33 1.64,21.87 -1.25,23.26 c -12.22,2.97 -2.59,-11.02 -3.01,-17.01 c 0.38,-3.81 0.77,-7.61 1.16,-11.42 c -0.01,-0.7 0.39,-3.04 1.47,-2.09 c 0.25,2.53 0.79,4.95 1.63,7.26 Z"/></g>
<g><path fill="#f9e8cd" d="M 154.05,205.88 c -3.04,0.38 -5.17,12.44 -5.43,15.1 c -0.11,1.97 -0.44,3.89 -0.99,5.76 c -0.46,-0.37 -0.98,-0.63 -1.55,-0.78 c -0.34,-3.74 -0.26,-7.48 0.24,-11.2 c 0.63,-2.03 1.28,-4.05 1.95,-6.07 c 0.94,-1.02 1.45,-2.2 1.53,-3.54 c 0.83,-0.28 1.55,-0.74 2.16,-1.37 c 2.01,-0.64 2.71,0.06 2.09,2.1 Z M 159.11,203.99 c -3.37,5.97 -3.86,13.52 -4.86,20.13 c -0.32,-0.84 -0.51,-1.7 -0.57,-2.59 c -0.13,1.11 -0.54,6.05 -2.6,3.89 c -0.09,-2.45 -0.23,-4.89 -0.41,-7.32 c 0.73,-3.57 1.67,-8.9 4.1,-11.75 c -0.05,-2.41 2.56,-2.52 4.34,-2.36 Z"/></g>
<g><path fill="#ed8c81" stroke="#ed8c81" stroke-width="0.5" d="M 177.37,154.73 c -3.64,7.21 -13.6,11.72 -20.3,6.15 c 2.42,-6.51 15.83,-10.2 20.3,-6.15 Z"/></g>
<g><path fill="#f9edd3" d="M 129.98,201.14 c 1.12,-0.08 2.23,-0.04 3.33,0.13 c -1.83,2.12 -3.37,4.46 -4.62,7.01 c -1.31,3.17 -2.33,6.43 -3.05,9.79 c -0.45,1.85 -0.79,3.7 -1.01,5.57 c -0.54,-0.41 -1.14,-0.56 -1.8,-0.46 c -1.21,-1.62 -0.28,-3.39 -0.16,-5.13 c 0.64,-4.48 2.05,-8.7 4.22,-12.67 c 0.74,-1.68 2.94,-2.41 3.09,-4.24 Z M 134.1,201.97 c 1.23,0.31 2.98,-0.86 3.84,0.38 c -0.87,1.56 -1.97,1.35 -2.19,3.7 c -0.58,0.03 -1,0.3 -1.26,0.83 c -2.34,4.09 -3.63,8.5 -3.88,13.2 c -0.45,1.01 -0.87,2.06 -1.27,3.14 c -0.48,0.19 -0.91,0.12 -1.3,-0.23 c -0.52,-0.7 -0.77,-1.48 -0.75,-2.36 c 0.17,-4.71 1.35,-9.15 3.53,-13.32 c 1.25,-1.71 2.34,-3.49 3.28,-5.34 Z"/></g>
<g><path fill="#fef8c6" stroke="#fef8c6" stroke-width="0.5" d="M 149.03,72.99 c -2.21,1.81 -5.35,2.02 -6.63,-0.95 c -0.18,-1.94 0.35,-3.68 1.59,-5.22 c 1.86,-1.56 3.64,-3.21 5.35,-4.94 c 2.62,-1.65 4.87,-1.34 6.76,-4.39 c 0.9,-0.24 1.47,0.08 1.71,0.96 c -0.73,0.91 -1.4,1.85 -2.03,2.82 c -0.04,2.03 -0.5,3.95 -1.39,5.76 c -1.64,2.12 -3.43,4.1 -5.36,5.96 Z"/></g>
<g><path fill="#f0d876" d="M 151.97,53.95 c 1.42,1.62 2.21,0.92 4.05,1.33 c -3.07,1.42 -11.69,8.27 -12.03,11.54 c -1.24,1.54 -1.77,3.28 -1.59,5.22 c 1.28,2.97 4.42,2.76 6.63,0.95 c 1.59,-0.35 2.93,-1.17 4.01,-2.45 c 1.56,-1.78 3.03,-3.64 4.4,-5.57 c 0.44,-0.52 0.98,-0.85 1.64,-0.99 c -2.53,5.4 -5.44,10.03 -11.65,11.63 c -4.14,0.97 -8.05,0.91 -8.16,6.46 c -0.51,3.69 0.78,10.51 -1.66,13.37 c -0.9,0.15 -1.75,0.45 -2.55,0.9 c -1.86,-1.48 -4.3,-0.22 -6.38,-0.01 c -1.68,0.53 -1.25,2.56 -3.21,2.42 c -1.37,0.03 -2.71,-0.18 -4.02,-0.63 c -5.35,-4.63 1.99,-9.4 5.82,-11.43 c 1.87,-0.42 3.71,-0.92 5.51,-1.5 c 0.66,-1.19 -0.86,-1.83 -0.89,-3.1 c 3.73,0.67 4.18,1.26 6.52,-2.07 c 1.19,-4.2 -4.02,-3.95 -5.91,-1.11 c -0.27,1.04 -0.47,2.11 -0.61,3.18 c -1.49,0.35 -2.45,-0.18 -2.86,-1.59 c -0.76,-0.36 -1.55,-0.64 -2.37,-0.83 c 8.38,-8.63 16.82,-17.2 25.31,-25.72 Z M 121.11,94.96 c 0.42,0.99 1.16,1.52 2.22,1.6 c 2.01,-0.91 4.08,-1.68 6.2,-2.33 c 1.97,-0.67 7.82,-0.21 8.46,-2.78 c 0.18,-2.44 -0.98,-3.69 -3.48,-3.76 c -4.38,-0.49 -12.48,2.41 -13.4,7.27 Z"/></g>
<g><path fill="#d1cdca" stroke="#d1cdca" stroke-width="0.5" d="M 169.43,280.86 c -1.73,-0.41 -8.47,-8.02 -10.14,-9.71 c -2.32,-1.09 -1.94,1.81 -3.58,1.64 c -0.7,-1.31 -2.56,-1.73 -2.74,-3.27 c 0.09,-1.86 2.25,-1.36 1.93,-2.8 c -2.96,-2.46 -2.27,1.74 -4.22,1.16 c -0.65,-0.79 -0.86,-1.7 -0.63,-2.73 c 2.72,-0.81 5.48,-1.2 8.31,-1.15 c 5.96,2.38 11.28,10.27 11.07,16.86 Z"/></g>
<g><path fill="#d26a5c" d="M 169.3,111.98 c 0.36,-0.08 0.7,-0.02 1.02,0.17 c 1.75,2.73 6.79,2.06 9.61,2.54 c 1.48,0.69 3.02,0.9 4.62,0.61 c 3.29,0.36 6.58,0.75 9.88,1.18 c 1.35,0.4 2.69,0.79 4.04,1.19 c 1.55,-0.09 3.07,-0.35 4.54,-0.77 c 0.57,0.38 1.2,0.62 1.89,0.71 c 8.86,1.76 17.73,3.52 26.61,5.26 c 1.07,0.08 2.14,0.11 3.21,0.09 c 0.67,0.59 3.21,1.4 1.61,2.55 c -8.65,-1.56 -17.27,-3.32 -25.84,-5.3 c -1.88,-0.33 -3.77,-0.59 -5.67,-0.76 c -5.93,-0.8 -11.85,-1.55 -17.78,-2.27 c -5.51,-0.85 -11.03,-1.53 -16.57,-2.06 c -0.75,-0.04 -1.23,-0.41 -1.43,-1.11 c 0.1,-0.68 0.19,-1.35 0.26,-2.03 Z"/></g>
<g><path fill="#f1b967" stroke="#f1b967" stroke-width="0.5" d="M 265,141.07 c 0.42,-0.12 0.77,0 1.04,0.35 c 3.76,5.88 10.16,10.66 13.5,17.59 c 0.04,1.4 -0.42,2.63 -1.38,3.69 c -0.8,0.83 -2.36,3.46 -3.59,3.34 c -1.06,-2.64 -2.04,-5.33 -2.94,-8.07 c -1.53,-4.1 -4.97,-8.83 -5.93,-12.96 c -0.64,-1.25 -0.87,-2.56 -0.7,-3.94 Z"/></g>
<g><path fill="#6e9bbb" d="M 207.08,122.81 c 2.01,-0.06 3.99,0.13 5.94,0.6 c 6.74,1.37 13.47,2.7 20.22,4 c -1.98,1.46 -3.59,0.53 -5.65,-0.07 c -4.04,-0.58 -8.08,-1.16 -12.13,-1.75 c -1.01,-0.01 -2.62,0.47 -2.43,1.8 c 1.67,1.34 3.36,2.67 5.06,3.99 c 0.87,1.1 1.69,2.23 2.45,3.41 c 0.25,1.89 -0.58,3 -2.49,3.31 c 1.61,-2.8 -0.44,-5.28 -2.54,-7.06 c -5.91,-4.05 -13.15,-4.17 -19.99,-3.26 c -0.38,-0.05 -0.61,-0.26 -0.68,-0.63 c 3.86,-1.9 7.73,-4.28 12.24,-4.34 Z"/></g>
<g><path fill="#efa254" d="M 112.46,259.83 c 1,3.7 2.1,7.34 3.31,10.93 c 0.45,0.11 0.83,-0.01 1.13,-0.37 c 0.37,-1.57 1.31,-2.62 2.83,-3.15 c -0.24,1.14 1.18,0.84 1.78,1.14 c 1.88,-1.13 3.88,-2.06 6.01,-2.79 c 0.83,-0.13 1.6,0.04 2.3,0.5 c 0.08,0.62 -0.15,1.09 -0.71,1.4 c -1.63,0.66 -3.22,1.4 -4.77,2.25 c -1.22,0.19 -5.6,0.54 -3.73,2.81 c -2.79,1.11 -5.02,2.91 -6.71,5.41 c -1.1,-0.4 -1.7,-1.2 -1.82,-2.41 c -0.97,-4.77 -1.88,-9.54 -2.73,-14.32 c 1.5,0.7 2.54,0.23 3.11,-1.4 Z"/></g>
<g><path fill="#ef6652" stroke="#ef6652" stroke-width="0.5" d="M 191.73,44.99 c 1.26,1.94 2.81,3.62 4.63,5.04 c -0.18,0.67 -0.05,1.27 0.38,1.82 c 8.57,10.91 16.59,22.21 24.06,33.9 c -0.85,0.19 -1.15,0.71 -0.91,1.57 c 1.16,2.15 2.23,4.35 3.21,6.6 c -0.49,2.08 0.18,3.15 -2.57,3.12 c -1.18,0.23 -1.58,2.75 -2.49,3.58 c 0.02,1.19 -0.25,2.29 -0.81,3.31 c -0.01,-4.18 -3.02,-6.48 -6.35,-8.31 c -0.2,-0.71 -0.5,-1.38 -0.89,-2 c -3.41,-0.91 -9,-2.17 -12.28,-0.44 c -0.35,0.38 -0.5,0.82 -0.44,1.34 c -0.52,0.5 -1.09,0.94 -1.72,1.31 c -0.16,5.44 4.87,6.5 8.94,8.15 c 3.51,-0.33 2.41,-0.93 4.21,1.75 c 1.12,-0.07 1.94,0.37 2.46,1.31 c -3.72,1.77 -0.29,1.78 -1.83,3.65 c -1.09,-0.15 -1.38,-1.21 -2.56,-0.49 c -1.65,1.78 -3.7,2.77 -6.14,2.97 c -1.33,0.5 -1.52,1.24 -0.56,2.22 c 1.07,0.36 2.05,0.86 2.94,1.51 c -1.47,0.42 -2.99,0.68 -4.54,0.77 c -1.35,-0.4 -2.69,-0.79 -4.04,-1.19 c -3.3,-0.43 -6.59,-0.82 -9.88,-1.18 c -1.6,0.29 -3.14,0.08 -4.62,-0.61 c -2.82,-0.48 -7.86,0.19 -9.61,-2.54 c -0.32,-0.19 -0.66,-0.25 -1.02,-0.17 c 0.79,-10.7 1.87,-21.37 3.25,-32.01 c 0.38,0.86 0.7,1.74 0.96,2.65 c 1.12,-5.95 2.15,-11.92 3.08,-17.92 c 0.29,-0.41 0.6,-0.79 0.91,-1.16 c -1.62,-1.19 1.14,-1.83 1.92,-2.19 c 0.36,0.46 0.74,0.89 1.17,1.28 c 3.56,-2.09 5.85,-5.16 6.86,-9.2 c 0.55,-2.97 0.85,-5.95 0.9,-8.96 c 0.72,-1.13 2.41,0.61 3.38,0.52 Z"/></g>
<g><path fill="#836d53" d="M 133.31,201.27 c 0.44,0.03 0.71,0.26 0.79,0.7 c -0.94,1.85 -2.03,3.63 -3.28,5.34 c -2.18,4.17 -3.36,8.61 -3.53,13.32 c -0.02,0.88 0.23,1.66 0.75,2.36 c -1.4,2.45 1.53,9.68 2.69,12.22 c -0.51,-0.14 -1.02,-0.27 -1.53,-0.41 c -1.55,-2.21 -2.57,-4.65 -3.06,-7.32 c -0.43,-3.12 -0.59,-6.26 -0.5,-9.41 c 0.72,-3.36 1.74,-6.62 3.05,-9.79 c 1.25,-2.55 2.79,-4.89 4.62,-7.01 Z M 135.75,206.05 c 0.02,0.22 0.03,0.44 0.05,0.66 c -2.38,6.01 -4.26,10.92 -3.37,17.59 c 0.16,0.61 0.44,1.15 0.86,1.62 c -0.48,1.37 -0.44,2.74 0.11,4.13 c 0.62,1.95 1.39,3.81 2.32,5.58 c -0.55,0.06 -1.1,0.16 -1.63,0.29 c -1.2,0.1 -2.32,-0.14 -3.36,-0.71 c 4.94,0.21 1.93,-1.21 1.23,-3.8 c -1.4,-3.65 -1.85,-7.43 -1.35,-11.33 c 0.25,-4.7 1.54,-9.11 3.88,-13.2 c 0.26,-0.53 0.68,-0.8 1.26,-0.83 Z"/></g>
<g><path fill="#d78851" d="M 197.01,275.05 c -0.77,4.66 -2.4,9 -4.89,13.02 c -1.16,-3.29 0.32,-4.19 1.66,-6.68 c 0.49,-2.29 0.93,-4.6 1.33,-6.91 c 1,-3.25 -2.53,-2.94 -4.49,-2.68 c -1.14,-1.53 -2.51,-2.84 -4.11,-3.93 c -1.35,-0.24 -2.71,-0.3 -4.08,-0.16 c -2.17,0.79 -4.41,1.31 -6.71,1.56 c -2.68,0.63 -1.02,8.21 -1.4,10.23 c 0.38,0.95 0.84,1.88 1.37,2.78 c 0.63,2.4 0.62,4.79 -0.03,7.16 c -1.47,-3.06 -2.46,-6.27 -2.97,-9.63 c -0.89,-3.99 -0.91,-7.98 -0.08,-11.96 c 0.59,1.82 1.74,0.17 2.87,0.18 c 2.33,0.23 4.53,-0.23 6.58,-1.38 c 1.15,-0.74 2.27,-1.49 3.36,-2.26 c 1.41,1.73 2.95,3.37 4.62,4.91 c 1.75,0.36 3.53,0.61 5.34,0.72 c 2.06,1.25 0.15,4.36 1.63,5.03 Z"/></g>
<g><path fill="#e87d3c" stroke="#e87d3c" stroke-width="0.5" d="M 192.12,288.07 c -1.15,-0.14 -2.29,-0.07 -3.41,0.2 c -0.81,1.47 -1.72,2.86 -2.73,4.19 c -0.94,1.02 -2.92,0.74 -4.06,0.24 c -1.44,-0.9 -2.77,-1.95 -3.98,-3.14 c -1.14,-0.12 -0.89,1.27 -1.97,0.51 c -0.1,-0.21 -0.2,-0.42 -0.31,-0.63 c 0.65,-2.37 0.66,-4.76 0.03,-7.16 c -0.53,-0.9 -0.99,-1.83 -1.37,-2.78 c 0.38,-2.02 -1.28,-9.6 1.4,-10.23 c 2.3,-0.25 4.54,-0.77 6.71,-1.56 c 1.37,-0.14 2.73,-0.08 4.08,0.16 c 1.6,1.09 2.97,2.4 4.11,3.93 c 1.96,-0.26 5.49,-0.57 4.49,2.68 c -0.4,2.31 -0.84,4.62 -1.33,6.91 c -1.34,2.49 -2.82,3.39 -1.66,6.68 Z"/></g>
<g><path fill="#df7362" d="M 217.23,103.93 c -0.72,0.84 -1.47,1.63 -2.25,2.39 c -1.34,-0.11 -2.61,0.13 -3.82,0.72 c -0.52,-0.94 -1.34,-1.38 -2.46,-1.31 c -1.8,-2.68 -0.7,-2.08 -4.21,-1.75 c -4.07,-1.65 -9.1,-2.71 -8.94,-8.15 c 0.63,-0.37 1.2,-0.81 1.72,-1.31 c -0.06,-0.52 0.09,-0.96 0.44,-1.34 c 3.28,-1.73 8.87,-0.47 12.28,0.44 c 0.39,0.62 0.69,1.29 0.89,2 c 3.33,1.83 6.34,4.13 6.35,8.31 Z M 197.93,96.98 c -0.15,1.65 0.55,2.75 2.09,3.3 c 4.65,0.81 7.69,1.84 11.62,4.53 c 3.47,0.59 4.45,-0.72 2.95,-3.95 c -3.58,-4.21 -8.1,-6.3 -13.58,-6.27 c -1.57,0.1 -2.6,0.9 -3.08,2.39 Z"/></g>
<g><path fill="#ed5d4a" stroke="#ed5d4a" stroke-width="0.5" d="M 223.1,93.92 c 3.49,7.39 6.82,14.87 10.01,22.43 c 0.68,0.68 1.27,1.43 1.76,2.25 c -0.12,2.9 -1.84,-1.14 -2.75,0.91 c -0.12,1.85 3.32,1.63 2.6,3.45 c -1.07,0.02 -2.14,-0.01 -3.21,-0.09 c -8.88,-1.74 -17.75,-3.5 -26.61,-5.26 c -0.69,-0.09 -1.32,-0.33 -1.89,-0.71 c -0.89,-0.65 -1.87,-1.15 -2.94,-1.51 c -0.96,-0.98 -0.77,-1.72 0.56,-2.22 c 2.44,-0.2 4.49,-1.19 6.14,-2.97 c 1.18,-0.72 1.47,0.34 2.56,0.49 c 1.54,-1.87 -1.89,-1.88 1.83,-3.65 c 1.21,-0.59 2.48,-0.83 3.82,-0.72 c 0.78,-0.76 1.53,-1.55 2.25,-2.39 c 0.56,-1.02 0.83,-2.12 0.81,-3.31 c 0.91,-0.83 1.31,-3.35 2.49,-3.58 c 2.75,0.03 2.08,-1.04 2.57,-3.12 Z"/></g>
<g><path fill="#b07e5a" d="M 161.98,220.98 c -0.51,8.86 -0.41,17.51 4.32,25.31 c -1.17,1.16 -3.79,-1.44 -4.5,-2.36 c -1.61,-2.42 -2.67,-5.07 -3.18,-7.94 c -1.11,-4.66 -1.43,-9.37 -0.96,-14.13 c 0.78,-0.02 1.52,-0.1 2.22,-0.24 c 0.26,2.97 0.71,3 1.35,0.11 c 0.17,-0.34 0.42,-0.59 0.75,-0.75 Z"/></g>
<g><path fill="#48738e" stroke="#48738e" stroke-width="0.5" d="M 138.96,131.86 c 0.98,0.75 1.98,0.8 2.98,0.15 c 0.16,0.57 0.28,1.15 0.37,1.73 c -3.69,6.52 -15.38,3.88 -17.17,-3.69 c -0.38,-1.09 -0.53,-5.66 1.17,-5.67 c 0.92,1.36 1.79,2.78 2.61,4.24 c 2.91,3.36 5.85,3.51 10.04,3.24 Z"/></g>
<g><path fill="#bcaaa1" d="M 110.78,144.15 c 0.49,-0.14 0.98,-0.29 1.47,-0.43 c 4.4,-0.06 8.82,0.03 13.25,0.27 c 2.54,0.06 3.72,1.99 5.36,3.61 c 1.31,2.24 1.31,4.48 0,6.73 c -0.8,0.56 -1.63,1.08 -2.49,1.56 c -0.21,0.35 -0.3,0.72 -0.28,1.12 c -4.17,0.21 -8.36,0.16 -12.57,-0.12 c -4.58,-0.75 -10.53,-3.72 -7.3,-9.26 c 1.04,-1.04 1.89,-2.2 2.56,-3.48 Z M 111.94,147.1 c -0.7,-0.13 -1.33,0.04 -1.88,0.51 c -1.7,1.67 -1.83,3.44 -0.38,5.3 c 3.54,2.5 7.48,3.54 11.82,3.13 c 2.02,-0.18 5.25,-0.05 6.55,-1.95 c 1.78,-1 2.38,-2.5 1.81,-4.5 c -0.91,-1.1 -1.94,-2.09 -3.08,-2.96 c -3.71,-1.07 -6.05,-2.38 -10.1,-1.49 c -1.62,0.57 -3.2,1.22 -4.74,1.96 Z"/></g>
<g><path fill="#b6a2aa" d="M 219.78,153.41 c 1.22,2.95 0.48,5.32 -2.23,7.13 c -0.72,-2.42 1.9,-3.25 1.16,-5.9 c -2.22,-4.74 -8.51,-5.71 -13.2,-5.68 c -2.16,-0.21 -3.97,0.44 -5.45,1.96 c -2.57,0.9 -3.43,2.63 -2.59,5.19 c 1.23,1.05 2.4,2.16 3.51,3.34 c 2.48,0.59 4.99,1.01 7.55,1.26 c 1.89,0.02 3.72,-0.3 5.5,-0.95 c 1.22,0.07 2.39,0.33 3.52,0.78 c -0.9,0.58 -1.86,1.04 -2.89,1.36 c -6.17,1.56 -11.88,0.58 -17.15,-2.96 c -3.06,-2.93 -3.01,-5.81 0.15,-8.64 c 3,-1.86 6.29,-2.66 9.84,-2.39 c 4.28,0.04 9.91,1.61 12.28,5.5 Z"/></g>
<g><path fill="#9bbbbc" d="M 119.23,138.8 c 0.79,0.45 2.63,2.11 2.79,0.39 c 4.85,2.56 7.21,3.66 12.96,2.67 c -0.14,0.37 -0.37,0.69 -0.68,0.95 c -0.97,0.63 -1.96,1.21 -2.95,1.76 c 0.9,1.51 1.59,3.11 2.07,4.81 c 0.72,3.11 -1.83,8.02 -5.33,7.63 c -0.02,-0.4 0.07,-0.77 0.28,-1.12 c 0.86,-0.48 1.69,-1 2.49,-1.56 c 1.31,-2.25 1.31,-4.49 0,-6.73 c -1.64,-1.62 -2.82,-3.55 -5.36,-3.61 c -4.43,-0.24 -8.85,-0.33 -13.25,-0.27 c -0.22,-0.59 -0.03,-0.98 0.56,-1.18 c 1.61,-0.35 6.64,-1.47 6.42,-3.74 Z"/></g>
<g><path fill="#ee8775" stroke="#ee8775" stroke-width="0.5" d="M 181.86,25.79 c 5.89,7.59 11.68,15.25 17.39,22.97 c -0.63,1.08 -1.59,1.51 -2.89,1.27 c -1.82,-1.42 -3.37,-3.1 -4.63,-5.04 c -3.77,-5.42 -7.31,-10.97 -10.63,-16.67 c -0.5,-0.83 -0.64,-2.59 0.76,-2.53 Z"/></g>
<g><path fill="#ec7966" stroke="#ec7966" stroke-width="0.5" d="M 199.25,48.76 c 18.62,25.52 38.17,51.55 55.95,77.55 c -0.28,0.52 -0.7,0.62 -1.25,0.31 c -8.84,-3.33 -24.55,-33.02 -33.15,-40.87 c -7.47,-11.69 -15.49,-22.99 -24.06,-33.9 c -0.43,-0.55 -0.56,-1.15 -0.38,-1.82 c 1.3,0.24 2.26,-0.19 2.89,-1.27 Z"/></g>
<g><path fill="#eadbcd" d="M 260.99,207.65 c 0.1,0.47 0.21,0.93 0.31,1.4 c -1.74,0.04 -3.47,0.08 -5.21,0.11 c -0.76,0.08 -1.52,0.15 -2.29,0.19 c -7.55,1.93 -13.6,7.89 -17.17,14.68 c -1.8,4.02 -3.47,8.09 -5.02,12.21 c -1.66,3.82 -5.58,12.1 -9.76,13.49 c -0.06,-0.16 -0.11,-0.31 -0.17,-0.47 c 0.11,-0.52 0.27,-1.02 0.5,-1.5 c 2.14,-1.95 3.9,-4.21 5.28,-6.78 c 2.73,-5.97 5.41,-11.97 8.01,-17.99 c 3.1,-6.27 7.82,-10.88 14.16,-13.84 c 3.66,-1.41 7.44,-1.91 11.36,-1.5 Z"/></g>
<g><path fill="#5f8fbb" stroke="#5f8fbb" stroke-width="0.5" d="M 282.37,239.08 c 0.65,-2.48 9.69,-6.66 10.23,-4.28 c 0.78,2.01 -0.44,13.83 -4.26,10.46 c -1.54,-1.66 -5.54,-3.94 -5.97,-6.18 Z"/></g>
<g><path fill="#76a2c0" d="M 164.74,166.27 c 9.77,-1.43 15.44,-7.03 17,-16.8 c 0.35,-2.72 -0.13,-7.93 -4.1,-7.26 c -3.52,1.72 -7.18,3.08 -10.98,4.07 c -0.76,-0.57 -0.95,-1.32 -0.58,-2.26 c 2.78,0.08 5.4,0.26 6.87,-2.49 c 4.05,-2.29 8.79,-2.2 10.27,2.95 c 1.16,8 -1.07,11.73 -5.14,17.95 c -1.51,1.34 -13.28,8.19 -13.34,3.84 Z"/></g>
<g><path fill="#fbf8f2" stroke="#fbf8f2" stroke-width="0.5" d="M 268.16,214.9 c 5.14,4.25 7.03,8.36 8.4,14.92 c -0.51,0.53 -1.05,1.03 -1.61,1.5 c -1.9,-1.61 -5.04,-5.25 -7.71,-3.25 c -0.16,-0.54 -0.3,-1.09 -0.44,-1.63 c 3.07,-1.94 -0.04,-8.89 1.36,-11.54 Z"/></g>
<g><path fill="#5ea8b6" d="M 144.2,197.67 c -3.47,-0.64 -6.97,-1 -10.51,-1.09 c -2.34,-1.05 -2.48,-2.04 -3.66,-4.11 c -0.72,-0.39 -1.45,-0.41 -2.2,-0.05 c -0.97,-0.66 -1.82,-1.43 -2.55,-2.31 c -0.19,-1.43 -2.68,-4.75 -3.5,-6.14 c 0.11,-0.51 0.44,-1.9 1.26,-1.26 c 6.6,6.2 13.02,11.07 21.16,14.96 Z"/></g>
<g><path fill="#d6b99b" d="M 139.82,218.07 c 0.28,3.1 0.43,6.22 0.47,9.35 c 0.96,1.44 1.25,3.02 0.87,4.72 c -0.1,0.96 1.95,3.79 1.22,4.46 c -1.21,-0.07 -2.26,-0.51 -3.16,-1.31 c -1.46,-5.05 -3.22,-9.45 -2.94,-14.83 c -0.11,-0.59 0.07,-1.03 0.54,-1.32 c 0.67,1.65 -0.54,6.2 1.61,6.71 c 2.07,-1.27 -0.12,-6.39 1.39,-7.78 Z M 142.04,227.04 c 0.58,-0.35 1.19,-0.4 1.82,-0.14 c 1.56,0.48 1.5,8.38 4.09,9.1 c 0.08,1.45 -2.31,1.07 -3.09,0.64 c -0.28,-0.69 -0.57,-1.39 -0.84,-2.1 c -1.77,-1.45 -1.06,-3.1 -2.33,-4.97 c -0.13,-0.88 -0.02,-1.72 0.35,-2.53 Z"/></g>
<g><path fill="#578bb6" stroke="#578bb6" stroke-width="0.5" d="M 266.25,237.99 c 0.51,-2.06 0.96,-9.79 4.78,-6.2 c 8.24,6.74 5.86,7.58 -3.47,10.01 c -1.67,0.06 -1.15,-2.79 -1.31,-3.81 Z"/></g>
<g><path fill="#c8a652" d="M 136.36,103.25 c -0.33,0.55 -0.82,0.88 -1.46,1 c -9.28,-1.39 -16.75,2.45 -20.74,10.89 c -0.69,-0.84 -1.09,-1.79 -1.19,-2.86 c 0.92,-1.92 2.05,-3.72 3.38,-5.41 c 1.09,-1.5 4.26,-2.34 4.77,-4.03 c 2.75,-0.28 14.1,-3.53 15.24,0.41 Z"/></g>
<g><path fill="#d3614d" stroke="#d3614d" stroke-width="0.5" d="M 255.45,218.98 c 1.65,-2.04 6.45,-7.99 9.24,-5.19 c 0.22,2.59 0.39,5.18 0.51,7.78 c -0.24,4.5 -7,-0.36 -8.82,-1.42 c -0.48,-0.26 -0.79,-0.66 -0.93,-1.17 Z"/></g>
<g><path fill="#fef6a7" d="M 156.02,55.28 c 7.3,-2.04 4.12,5.32 3.06,8.7 c -0.66,0.14 -1.2,0.47 -1.64,0.99 c -1.37,1.93 -2.84,3.79 -4.4,5.57 c -1.08,1.28 -2.42,2.1 -4.01,2.45 c 1.93,-1.86 3.72,-3.84 5.36,-5.96 c 0.89,-1.81 1.35,-3.73 1.39,-5.76 c 0.63,-0.97 1.3,-1.91 2.03,-2.82 c -0.24,-0.88 -0.81,-1.2 -1.71,-0.96 c -1.89,3.05 -4.14,2.74 -6.76,4.39 c -1.71,1.73 -3.49,3.38 -5.35,4.94 c 0.34,-3.27 8.96,-10.12 12.03,-11.54 Z"/></g>
<g><path fill="#f6da71" d="M 176.56,31.87 c -2.63,16.9 -5.06,33.83 -7.29,50.79 c -1.11,10.84 -2.14,21.69 -3.09,32.55 c -5.88,-0.22 -11.77,-0.38 -17.66,-0.47 c -0.73,-0.05 -1.35,-0.33 -1.87,-0.85 c 0.15,-0.76 0.24,-1.52 0.29,-2.3 c -0.33,-0.64 -0.54,-1.31 -0.64,-2.01 c 0.49,-0.9 1,-0.91 1.54,-0.02 c 0.03,3.03 1.28,2.56 3.63,3.2 c 3.58,0 7.14,-0.05 10.7,-0.16 c 1.01,-0.19 1.9,-0.62 2.67,-1.28 c -0.08,-2.66 0.24,-5.27 0.97,-7.83 c -0.59,-7.03 0.75,-17.29 2.45,-24 c -0.24,-3.65 0.44,-8.37 0.92,-11.99 c 0.1,-4.12 -2.51,-8.55 1.05,-11.98 c 1.06,-2.77 -0.55,-3.36 -2.18,-5.01 c -1.87,-1.18 -2.37,-0.14 -3.75,-2.39 c -1.29,-0.8 -4.34,-0.61 -4.41,1.34 c 0.48,2.23 -0.97,4.4 1.65,5.42 c 0.2,1.49 0.89,2.69 2.05,3.61 c -0.69,0.89 -1.29,1.84 -1.8,2.86 c -0.43,2 -0.38,2.66 -2.71,2.63 c 1.06,-3.38 4.24,-10.74 -3.06,-8.7 c -1.84,-0.41 -2.63,0.29 -4.05,-1.33 c 3.28,-3.25 6.58,-6.46 9.92,-9.64 c 4.31,-4.92 8.8,-9.67 13.45,-14.24 c 0.66,0.28 0.57,1.97 1.22,1.8 Z"/></g>
<g><path fill="#5999c0" stroke="#5999c0" stroke-width="0.5" d="M 155.63,242.61 c 0.86,2.3 1.57,4.64 2.15,7.03 c 0.82,2.14 -1.01,5.81 0.33,7.33 c -0.78,0.2 -1.44,0.01 -1.99,-0.57 c -2.2,-3.88 -4.29,-7.81 -6.27,-11.79 c -0.33,-1.45 0.21,-2.43 1.6,-2.96 c 1.42,0.37 2.81,0.68 4.18,0.96 Z"/></g>
<g><path fill="#da6855" stroke="#da6855" stroke-width="0.5" d="M 264.9,197.99 c -0.19,-4.07 7.47,0.54 8.79,1.62 c 1.48,0.88 1.59,1.87 0.34,2.97 c -1.4,0.85 -9.29,6.51 -8.93,1.91 c 0,-2.17 -0.07,-4.33 -0.2,-6.5 Z"/></g>
<g><path fill="#e7cd70" d="M 95.78,111.59 c -0.15,2.83 2.15,2.2 3.71,3.63 c 2.06,-0.34 4.13,-0.66 6.19,-0.96 c 3.1,0.35 5.19,0.93 7.29,-1.98 c 0.1,1.07 0.5,2.02 1.19,2.86 c -0.42,0.5 -0.97,0.78 -1.64,0.84 c -2.09,0.07 -4.17,0.28 -6.23,0.65 c -6.04,0.26 -12.08,0.6 -18.11,1.01 c -0.08,-2.47 6.04,-4.23 7.6,-6.05 Z M 87.3,117.72 c -0.44,0.1 -0.88,0.17 -1.33,0.21 c 0.39,-0.4 0.83,-0.47 1.33,-0.21 Z"/></g>
<g><path fill="#f6d35a" stroke="#f6d35a" stroke-width="0.5" d="M 121.12,102.84 c -0.51,1.69 -3.68,2.53 -4.77,4.03 c -1.33,1.69 -2.46,3.49 -3.38,5.41 c -2.1,2.91 -4.19,2.33 -7.29,1.98 c -2.06,0.3 -4.13,0.62 -6.19,0.96 c -1.56,-1.43 -3.86,-0.8 -3.71,-3.63 c 5.34,-5.56 10.65,-11.14 15.93,-16.74 c 0.99,0.07 1.94,-0.08 2.86,-0.45 c 1.92,1.13 2.08,-0.36 3.71,-0.14 c 0.26,1.67 0.6,3.32 1.01,4.96 c 1.53,0.52 3.12,2.01 1.83,3.62 Z"/></g>
<g><path fill="#d3a278" stroke="#d3a278" stroke-width="0.5" d="M 161.27,206.3 c 1.27,0.16 2.49,0.44 3.65,0.83 c -0.65,2.43 -1.29,4.88 -1.92,7.33 c -0.55,2.14 -0.89,4.31 -1.02,6.52 c -0.33,0.16 -0.58,0.41 -0.75,0.75 c -0.64,2.89 -1.09,2.86 -1.35,-0.11 c -0.7,0.14 -1.44,0.22 -2.22,0.24 c 0.41,-5.41 1.62,-10.59 3.61,-15.56 Z"/></g>
<g><path fill="#f0b37a" d="M 112.46,259.83 c -0.57,1.63 -1.61,2.1 -3.11,1.4 c -0.67,-1.63 -1.47,-3.18 -2.4,-4.66 c -1,0 -2,-0.02 -3,-0.06 c -1.24,-0.76 -2.41,-1.6 -3.53,-2.51 c -0.59,-0.15 -1.06,0.02 -1.42,0.51 c -0.64,2.12 -1.98,3.57 -4.02,4.38 c -0.95,0.23 -1.83,0.62 -2.65,1.17 c -0.55,-1.08 -0.42,-2.04 0.38,-2.89 c 0.79,-0.57 3.27,0.08 3.13,-1.34 c 2.27,0.21 1.41,-4.26 4.17,-4.33 c 4,2.19 3.78,3.27 8.48,2.55 c 2.38,0.2 3.1,4.02 3.97,5.78 Z"/></g>
<g><path fill="#a8cecf" d="M 148.47,144.47 c -1.71,5.96 -0.54,11.31 3.51,16.05 c 2.68,3.12 6.07,5.02 10.15,5.68 c 0.05,0.17 0.1,0.34 0.14,0.51 c -0.16,0.5 -0.32,0.99 -0.48,1.49 c -1.63,-0.68 -2.04,0.31 -3.28,-1.45 c -2.34,0.01 -2.62,0.04 -4.64,-1.22 c -1.32,-1.3 -2.62,-2.65 -3.88,-4.03 c -2.84,-3.86 -4.3,-8.19 -4.37,-12.99 c 0.2,-1.09 0.92,-5.35 2.85,-4.04 Z"/></g>
<g><path fill="#db6f5c" d="M 75.84,163.16 c 1.74,0.37 1.87,-2.57 2.11,-3.66 c -0.19,-4 -0.3,-8 -0.35,-12 c -0.2,-1.01 -0.15,-3.53 -1.68,-3.52 c 0.79,-3.95 1.66,-7.88 2.61,-11.8 c 0.84,-1.7 1.47,-1.65 1.89,0.17 c -0.39,5.27 -0.4,10.54 -0.02,15.81 c 0.72,4.84 1.65,9.63 2.78,14.38 c -0.53,2.07 -4.9,0.97 -6.48,1.21 c -0.38,-0.07 -0.67,-0.27 -0.86,-0.59 Z"/></g>
<g><path fill="#99d0da" stroke="#99d0da" stroke-width="0.5" d="M 60.74,146.24 c 1.05,-2.72 2.53,-5.18 4.45,-7.38 c 3.39,-3.56 6.8,-7.07 10.23,-10.55 c 0.79,0.59 -0.68,2.91 -0.71,3.74 c -2.75,7.1 -7.32,12.7 -8.85,20.31 c -0.89,1.48 -5.23,-4.78 -5.12,-6.12 Z"/></g>
<g><path fill="#9ac9cb" d="M 113.15,118.43 c -2.5,5.93 0.26,13.82 3.67,18.83 c -2.77,0.04 -2.08,1.18 -2.72,-1.67 c -2.2,-1.7 -1.99,-3.42 -2.14,-6.02 c -0.17,-0.67 -0.6,-1.05 -1.29,-1.14 c 1.47,-0.58 -0.28,-2.15 -0.4,-3.11 c -0.36,-1.55 -0.08,-2.98 0.84,-4.28 c -0.09,-0.22 -0.18,-0.45 -0.27,-0.67 c -3.27,-0.17 -5.18,-0.06 -8.14,1.22 c -3.09,-1.11 -10.75,-0.95 -13.71,0.82 c -1.23,-0.2 -1.94,-0.9 -2.15,-2.11 c 7.86,-0.99 15.75,-1.73 23.66,-2.23 c 0.91,-0.03 1.79,0.08 2.65,0.36 Z"/></g>
<g><path fill="#84ced7" stroke="#84ced7" stroke-width="0.5" d="M 148.16,118.97 c 0.41,0.36 0.88,0.54 1.43,0.56 c 1.2,-0.75 2.5,-1.09 3.91,-1.04 c 4.18,0.29 8.34,0.78 12.46,1.49 c -0.91,8.26 -2.08,16.6 -2.09,24.93 c -1.56,-1.37 -5.92,-0.99 -7.9,-1.42 c -1.19,-1.13 -4.27,-3.45 -5.83,-2.14 c 0.67,0.36 1.28,0.82 1.8,1.36 c -1.53,-0.15 -2.69,0.43 -3.47,1.76 c -1.93,-1.31 -2.65,2.95 -2.85,4.04 c 0.07,4.8 1.53,9.13 4.37,12.99 c 1.26,1.38 2.56,2.73 3.88,4.03 c 2.02,1.26 2.3,1.23 4.64,1.22 c 1.24,1.76 1.65,0.77 3.28,1.45 c -0.62,10.23 -2.04,21.41 -1.73,31.54 c -0.43,0.55 -1,0.84 -1.68,0.88 c -1.82,-0.05 -3.62,-0.17 -5.38,-0.35 c 1,0.11 1.91,-0.1 2.74,-0.62 c -1.74,-0.52 -3.5,-0.96 -5.29,-1.32 c -2.09,-0.1 -4.18,-0.32 -6.25,-0.66 c -8.14,-3.89 -14.56,-8.76 -21.16,-14.96 c -0.82,-0.64 -1.15,0.75 -1.26,1.26 c -3.88,-8.85 -11.16,-19.74 -14.73,-27.99 c 5.45,1.43 10.72,4.02 16.51,3.14 c 0.95,-0.76 4.49,-0.87 4.53,-2.11 c 3.5,0.39 6.05,-4.52 5.33,-7.63 c -0.48,-1.7 -1.17,-3.3 -2.07,-4.81 c 0.99,-0.55 1.98,-1.13 2.95,-1.76 c 0.31,-0.26 0.54,-0.58 0.68,-0.95 c 1.49,-0.27 4.66,-1.34 4.86,-3.05 c 1.5,-0.94 2.89,-2.05 4.15,-3.33 c 3.88,-4.87 5.27,-10.38 4.17,-16.51 Z M 116.82,137.26 c 0.91,0.33 1.72,0.84 2.41,1.54 c 0.22,2.27 -4.81,3.39 -6.42,3.74 c -0.59,0.2 -0.78,0.59 -0.56,1.18 c -0.49,0.14 -0.98,0.29 -1.47,0.43 c -1.24,-0.32 -2.28,-0.04 -3.15,0.87 c -1.52,2.07 -2.42,4.38 -2.68,6.93 c -0.37,-0.04 -0.67,-0.21 -0.9,-0.5 c -4.95,-9.61 -10.58,-18.78 -16.91,-27.53 c 3.09,1.47 6.24,2.82 9.45,4.02 c 1.24,0.52 2.53,0.86 3.85,1.03 c 0.39,-0.58 0.27,-1.07 -0.36,-1.47 c -3.64,-1.83 -7.33,-3.52 -11.09,-5.09 c 2.96,-1.77 10.62,-1.93 13.71,-0.82 c 2.96,-1.28 4.87,-1.39 8.14,-1.22 c 0.09,0.22 0.18,0.45 0.27,0.67 c -0.92,1.3 -1.2,2.73 -0.84,4.28 c 0.12,0.96 1.87,2.53 0.4,3.11 c 0.69,0.09 1.12,0.47 1.29,1.14 c 0.15,2.6 -0.06,4.32 2.14,6.02 c 0.64,2.85 -0.05,1.71 2.72,1.67 Z"/></g>
<g><path fill="#f8e7c5" d="M 149.35,205.13 c -3.15,1.71 -5.04,10.98 -5.29,14.36 c -0.01,2.48 -0.07,4.94 -0.2,7.41 c -0.63,-0.26 -1.24,-0.21 -1.82,0.14 c -1.8,-3.42 -0.97,-6.47 -0.8,-10.18 c 0.25,-0.06 0.41,-0.23 0.49,-0.5 c 0.56,-4.9 2.37,-8.53 5.19,-12.49 c 0.73,-0.59 1.55,-0.83 2.46,-0.71 c 1.03,0.61 -0.09,1.06 -0.03,1.97 Z"/></g>
<g><path fill="#f8e9ce" d="M 141.29,203.97 c -4.61,4.51 -6.66,13.89 -6.47,20.13 c -0.6,0.51 -1.11,1.12 -1.53,1.82 c -0.42,-0.47 -0.7,-1.01 -0.86,-1.62 c -0.89,-6.67 0.99,-11.58 3.37,-17.59 c 1.18,-1.54 2.57,-2.92 4.19,-4.14 c 1.62,-0.67 2.05,-0.2 1.3,1.4 Z"/></g>
<g><path fill="#9dc0c3" d="M 110.78,144.15 c -0.67,1.28 -1.52,2.44 -2.56,3.48 c -3.23,5.54 2.72,8.51 7.3,9.26 c 4.21,0.28 8.4,0.33 12.57,0.12 c -0.04,1.24 -3.58,1.35 -4.53,2.11 c -5.79,0.88 -11.06,-1.71 -16.51,-3.14 c -1.27,-1.05 -1.97,-2.39 -2.1,-4.03 c 0.26,-2.55 1.16,-4.86 2.68,-6.93 c 0.87,-0.91 1.91,-1.19 3.15,-0.87 Z"/></g>
<g><path fill="#bdc9cf" d="M 141.06,112.18 c -2.24,-0.96 -4.58,-1.38 -7.01,-1.26 c -0.96,-1.94 -5.66,-0.97 -7.28,-0.53 c -2.43,0.99 -6.25,4.97 -8.74,4.66 c 3.29,-5.45 8.12,-8.04 14.47,-7.77 c 2.25,0.14 8.43,2.31 8.56,4.9 Z"/></g>
<g><path fill="#edb17f" d="M 197.51,272.17 c -0.33,0.93 -0.5,1.88 -0.5,2.88 c -1.48,-0.67 0.43,-3.78 -1.63,-5.03 c -1.81,-0.11 -3.59,-0.36 -5.34,-0.72 c -1.67,-1.54 -3.21,-3.18 -4.62,-4.91 c -1.09,0.77 -2.21,1.52 -3.36,2.26 c -2.05,1.15 -4.25,1.61 -6.58,1.38 c -1.13,-0.01 -2.28,1.64 -2.87,-0.18 c 0.12,-0.77 0.44,-1.43 0.96,-1.99 c 1.92,0.16 3.85,0.13 5.77,-0.09 c 2.18,-1.03 4.25,-2.2 6.21,-3.54 c 1.49,-0.04 3.39,4.17 4.52,5.07 c 2.18,0.66 4.4,1.17 6.65,1.53 c 0.87,0.94 1.14,2.06 0.79,3.34 Z"/></g>
<g><path fill="#719fbc" d="M 218.05,138.1 c -0.38,1.2 -3.17,0.39 -4.09,0.44 c -4.42,-2.45 -7.16,-3.5 -12.46,-3.59 c -4,-0.25 -9.18,2.12 -13.02,3.26 c -0.81,0.18 -2.62,0.11 -2.35,-1.19 c 0.77,0.13 1.52,0.05 2.24,-0.25 c 7,-3.13 12.34,-5.29 20.16,-2.85 c 3.18,1.4 6.35,2.8 9.52,4.18 Z"/></g>
<g><path fill="#f8e9ca" d="M 146.19,203.9 c -0.69,0.12 -1.25,0.46 -1.66,1.02 c -2.32,3.32 -3.74,6.98 -4.26,10.98 c -0.13,0.72 -0.28,1.45 -0.45,2.17 c -1.51,1.39 0.68,6.51 -1.39,7.78 c -2.15,-0.51 -0.94,-5.06 -1.61,-6.71 c 0.33,-5.09 1.99,-9.7 4.97,-13.81 c 0.11,-0.35 0.12,-0.69 0.01,-1.03 c 1.26,-0.35 3.93,-2.89 4.39,-0.4 Z"/></g>
<g><path fill="#f6bb78" d="M 139.03,259.22 c 0.43,0.96 1.1,1.7 2.01,2.22 c -3.84,1.32 -7.58,2.88 -11.22,4.65 c -0.7,-0.46 -1.47,-0.63 -2.3,-0.5 c -2.13,0.73 -4.13,1.66 -6.01,2.79 c -0.6,-0.3 -2.02,0 -1.78,-1.14 c 6,-3.71 12.43,-6.38 19.3,-8.02 Z"/></g>
<g><path fill="#cb804c" d="M 154.17,260.99 c -5.52,-0.79 -19.81,6.34 -24.81,9.17 c -1.55,0.89 -3.06,1.82 -4.55,2.8 c -5.47,2.43 -13.12,13.7 -19.36,8.06 c -5.53,-4.84 -12.41,-13.47 -13.12,-20.96 c 0.82,-0.55 1.7,-0.94 2.65,-1.17 c -0.7,1.61 -0.66,3.22 0.1,4.84 c 3.08,6.97 8.5,18.01 17.87,15.75 c 0.68,-0.29 1,-0.8 0.95,-1.52 c 1.69,-2.5 3.92,-4.3 6.71,-5.41 c -1.87,-2.27 2.51,-2.62 3.73,-2.81 c 1.55,-0.85 3.14,-1.59 4.77,-2.25 c 0.56,-0.31 0.79,-0.78 0.71,-1.4 c 3.64,-1.77 7.38,-3.33 11.22,-4.65 c -0.91,-0.52 -1.58,-1.26 -2.01,-2.22 c 4.47,-1.03 9,-1.42 13.57,-1.17 c 1.62,-0.1 1.24,1.91 1.57,2.94 Z"/></g>
<g><path fill="#d1d3cf" stroke="#d1d3cf" stroke-width="0.5" d="M 221.14,283.78 c 2.32,0.13 4.64,0.12 6.95,-0.04 c 0.66,0.11 1.08,0.48 1.27,1.11 c -0.8,1.97 -1.33,4 -1.61,6.09 c -2.52,0.11 -1.16,2.59 -3.3,2.76 c -0.58,-0.65 -1.04,-1.41 -1.36,-2.25 c -0.96,-0.34 -2.35,-0.3 -1.88,-1.8 c 0.73,-1.13 2.79,-1.07 1.82,-2.96 c -1.23,-0.82 -2.38,-1.09 -1.89,-2.91 Z"/></g>
<g><path fill="#867050" d="M 149.35,205.13 c 0.15,0.01 0.3,0.01 0.45,0.02 c -0.08,1.34 -0.59,2.52 -1.53,3.54 c -0.67,2.02 -1.32,4.04 -1.95,6.07 c -0.5,3.72 -0.58,7.46 -0.24,11.2 c 0.49,3.42 1.38,6.74 2.67,9.95 c -0.26,0.03 -0.53,0.06 -0.8,0.09 c -2.59,-0.72 -2.53,-8.62 -4.09,-9.1 c 0.13,-2.47 0.19,-4.93 0.2,-7.41 c 0.25,-3.38 2.14,-12.65 5.29,-14.36 Z"/></g>
<g><path fill="#84a9ab" d="M 127.83,192.42 c 0.75,-0.36 1.48,-0.34 2.2,0.05 c 1.18,2.07 1.32,3.06 3.66,4.11 c 3.54,0.09 7.04,0.45 10.51,1.09 c 2.07,0.34 4.16,0.56 6.25,0.66 c 1.79,0.36 3.55,0.8 5.29,1.32 c -0.83,0.52 -1.74,0.73 -2.74,0.62 c -7.11,-0.67 -14.38,-0.94 -21.35,-2.57 c -0.69,-0.23 -1.25,-0.65 -1.67,-1.25 c -0.73,-1.33 -1.45,-2.68 -2.15,-4.03 Z"/></g>
<g><path fill="#f4f9f9" stroke="#f4f9f9" stroke-width="0.5" d="M 127.95,113.93 c 0.43,-0.04 0.85,-0.09 1.28,-0.14 c 9.38,1.95 3.35,10.84 -2.07,6.78 c -1,-1.44 -1.18,-2.98 -0.53,-4.6 c 0.54,-0.61 0.98,-1.29 1.32,-2.04 Z"/></g>
<g><path fill="#887356" d="M 141.29,203.97 c 0.17,0.11 0.34,0.22 0.51,0.33 c 0.11,0.34 0.1,0.68 -0.01,1.03 c -2.98,4.11 -4.64,8.72 -4.97,13.81 c -0.47,0.29 -0.65,0.73 -0.54,1.32 c -0.28,5.38 1.48,9.78 2.94,14.83 c -0.21,0.3 -0.5,0.48 -0.87,0.53 c -1.88,-3.7 -3.06,-7.61 -3.53,-11.72 c -0.19,-6.24 1.86,-15.62 6.47,-20.13 Z"/></g>
<g><path fill="#ba7d4e" d="M 209.55,216.21 c -0.55,-2.89 -1.09,-5.78 -1.62,-8.67 c -0.57,-0.46 -1.05,-0.35 -1.46,0.32 c -0.53,0.92 -0.97,1.88 -1.32,2.88 c 0.02,0.91 -0.29,1.67 -0.93,2.27 c -0.19,-2.13 -0.22,-4.26 -0.08,-6.39 c 0.43,-0.88 2.91,-5.62 4.02,-5.13 c 2.55,4.26 2.27,9.98 1.39,14.72 Z"/></g>
<g><path fill="#d08d52" d="M 209.55,216.21 c -3.93,15.07 -14.26,15.4 -27.48,14.96 c -4.44,0.45 -8.6,0.44 -10.62,-4.21 c 1.02,-1.51 2.13,-1.59 3.32,-0.24 c 1.3,0.22 2.54,0.59 3.74,1.13 c 4.39,-0.47 8.58,0.6 12.99,0.53 c 7.49,-0.07 16.5,-5.47 15.29,-13.88 c 0.7,-1.94 1.01,-3.67 -1.64,-3.76 c 0.35,-1 0.79,-1.96 1.32,-2.88 c 0.41,-0.67 0.89,-0.78 1.46,-0.32 c 0.53,2.89 1.07,5.78 1.62,8.67 Z"/></g>
<g><path fill="#d17d50" d="M 192.12,288.07 c -3.85,6.91 -11.68,11.22 -16.15,2 c 1.08,0.76 0.83,-0.63 1.97,-0.51 c 1.21,1.19 2.54,2.24 3.98,3.14 c 1.14,0.5 3.12,0.78 4.06,-0.24 c 1.01,-1.33 1.92,-2.72 2.73,-4.19 c 1.12,-0.27 2.26,-0.34 3.41,-0.2 Z"/></g>
<g><path fill="#dfc8b8" d="M 269.97,210.79 c 1.79,1.44 3.46,3 5.03,4.67 c 4.35,5.47 5.13,10.92 5.99,17.62 c -0.43,1.08 -1.02,1.19 -1.77,0.33 c -0.19,-1.15 -0.29,-2.3 -0.33,-3.47 c -0.61,-6.93 -3.62,-12.6 -9.01,-16.99 c -1.27,-0.78 -2.48,-2.28 0.09,-2.16 Z"/></g>
<g><path fill="#dabda5" d="M 117.9,215.98 c 1.21,0.31 0.56,3.56 1.06,4.5 c 0.67,0.75 1.04,-0.51 1.89,-0.45 c 0.35,1.81 0.41,3.63 0.19,5.47 c 1.21,2.47 0.94,4.93 2.64,7.23 c 0.14,0.43 0.01,0.73 -0.38,0.93 c -0.92,-0.04 -1.66,-0.43 -2.21,-1.18 c -2.84,-5.16 -3.9,-10.66 -3.19,-16.5 Z"/></g>
<g><path fill="#faf1d8" d="M 129.18,201.04 c -0.62,0.62 -1.35,1.13 -2.17,1.51 c -3.34,4.82 -5.2,9.42 -5.7,15.3 c -0.15,0.73 -0.3,1.45 -0.46,2.18 c -0.85,-0.06 -1.22,1.2 -1.89,0.45 c -0.5,-0.94 0.15,-4.19 -1.06,-4.5 c 0.96,-5.25 3.71,-17.07 11.28,-14.94 Z"/></g>
<g><path fill="#a2c1ba" d="M 166.22,117.31 c -0.18,0.55 -0.24,1.12 -0.19,1.71 c -0.02,0.32 -0.04,0.64 -0.07,0.96 c -4.12,-0.71 -8.28,-1.2 -12.46,-1.49 c -1.41,-0.05 -2.71,0.29 -3.91,1.04 c -0.55,-0.02 -1.02,-0.2 -1.43,-0.56 c -0.14,-0.35 -0.27,-0.7 -0.41,-1.04 c 0.29,-0.76 0.84,-1.14 1.67,-1.14 c 5.61,0.04 11.21,0.21 16.8,0.52 Z"/></g>
<g><path fill="#4c8e97" d="M 82.67,120.4 c 1.37,-0.12 2.97,-1.22 4.17,-0.1 c 0.21,1.21 0.92,1.91 2.15,2.11 c 3.76,1.57 7.45,3.26 11.09,5.09 c 0.63,0.4 0.75,0.89 0.36,1.47 c -1.32,-0.17 -2.61,-0.51 -3.85,-1.03 c -3.21,-1.2 -6.36,-2.55 -9.45,-4.02 c -1.22,-1.1 -2.62,-1.83 -4.2,-2.2 c -0.86,0.31 -0.37,-0.99 -0.27,-1.32 Z"/></g>
<g><path fill="#2c6794" d="M 254.26,136.75 c -1.79,0.78 -3.57,1.6 -5.34,2.46 c -3.66,0.82 -7.16,2.1 -10.49,3.85 c -1.65,-0.23 -1.75,-0.78 -0.31,-1.64 c 3.94,-2.12 7.99,-4.04 12.14,-5.75 c 1.23,-0.27 4.54,-2.54 5.51,-1.18 c -0.55,0.75 -1.06,1.5 -1.51,2.26 Z"/></g>
<g><path fill="#5a7b97" d="M 178.81,196.2 c 0.46,-0.18 0.93,-0.17 1.38,0.04 c 1.38,1.78 2.49,3.72 3.34,5.82 c 0.47,0.44 0.99,0.82 1.55,1.14 c -0.26,2.12 0.66,11.63 2.97,12.01 c -0.01,1.17 -0.03,2.34 -0.07,3.51 c -1.2,-1.59 -2.27,-3.26 -3.22,-5.03 c -0.5,-2.32 -0.83,-4.67 -0.99,-7.05 c -0.59,-2.29 -1.41,-4.5 -2.44,-6.63 c -0.88,-1.25 -1.72,-2.52 -2.52,-3.81 Z"/></g>
<g><path fill="#498ec0" stroke="#498ec0" stroke-width="0.5" d="M 202.96,174.98 c 0.46,0.61 1.01,1.13 1.63,1.55 c -0.71,2.92 -0.78,2.84 -3.25,4.36 c -0.57,1.09 -1.12,2.2 -1.65,3.31 c -0.53,0.13 -1.06,0.27 -1.59,0.43 c -0.42,0.55 -0.85,1.09 -1.29,1.62 c -0.51,1.65 -0.62,2.97 -2.61,1.68 c -0.22,0.77 -0.31,1.6 -0.26,2.47 c -3.13,4.16 -6.08,8.42 -8.86,12.8 c -0.56,-0.32 -1.08,-0.7 -1.55,-1.14 c -0.85,-2.1 -1.96,-4.04 -3.34,-5.82 c -0.45,-0.21 -0.92,-0.22 -1.38,-0.04 c -1.02,-0.26 -1.94,-0.71 -2.76,-1.36 c 0.08,-0.25 0.16,-0.49 0.24,-0.74 c 8.72,-6.16 18.56,-12.02 26.67,-19.12 Z"/></g>
<g><path fill="#4486b9" stroke="#4486b9" stroke-width="0.5" d="M 244.99,130.13 c 4.09,1.79 10.33,0.78 13.17,4.58 c -0.88,0.9 -1.87,1.63 -2.97,2.19 c -0.31,-0.05 -0.62,-0.1 -0.93,-0.15 c 0.45,-0.76 0.96,-1.51 1.51,-2.26 c -0.97,-1.36 -4.28,0.91 -5.51,1.18 c -4.15,1.71 -8.2,3.63 -12.14,5.75 c -1.44,0.86 -1.34,1.41 0.31,1.64 c 3.33,-1.75 6.83,-3.03 10.49,-3.85 c -20.63,23.89 -42.07,48.36 -59.55,74.69 c -0.33,0.54 -0.77,0.97 -1.32,1.31 c -2.31,-0.38 -3.23,-9.89 -2.97,-12.01 c 2.78,-4.38 5.73,-8.64 8.86,-12.8 c -0.05,-0.87 0.04,-1.7 0.26,-2.47 c 1.99,1.29 2.1,-0.03 2.61,-1.68 c 0.44,-0.53 0.87,-1.07 1.29,-1.62 c 0.53,-0.16 1.06,-0.3 1.59,-0.43 c 0.53,-1.11 1.08,-2.22 1.65,-3.31 c 2.47,-1.52 2.54,-1.44 3.25,-4.36 c -0.62,-0.42 -1.17,-0.94 -1.63,-1.55 c 3.87,-2.78 7.17,-6.12 9.89,-10.03 c 0.45,-0.34 0.91,-0.66 1.38,-0.97 c 5.59,-1.36 9.36,-4.37 7.59,-10.73 c 0.04,-0.29 0.07,-0.58 0.11,-0.88 c 4.33,-7.07 8.33,-14.33 12,-21.77 c 3.5,0.61 7.01,0.75 10.55,0.44 c 0.37,-0.2 0.54,-0.5 0.51,-0.91 Z"/></g>
<g><path fill="#d8c4b6" d="M 279.07,242.21 c 0.89,5.74 -6.53,15.9 -10.05,20.3 c -0.56,-0.38 -0.98,-0.88 -1.27,-1.49 c 4.52,-5 7.76,-10.73 9.7,-17.18 c 0.3,-0.8 0.84,-1.35 1.62,-1.63 Z"/></g>
<g><path fill="#d19f99" d="M 217.55,160.54 c -1.13,-0.45 -2.3,-0.71 -3.52,-0.78 c 0.82,-0.92 1.71,-1.77 2.66,-2.57 c 1.04,-2.07 0.49,-3.62 -1.64,-4.65 c -3.57,-1.85 -7.37,-2.61 -11.4,-2.3 c -1.15,0.49 -2.35,0.71 -3.59,0.68 c 1.48,-1.52 3.29,-2.17 5.45,-1.96 c 4.69,-0.03 10.98,0.94 13.2,5.68 c 0.74,2.65 -1.88,3.48 -1.16,5.9 Z"/></g>
<g><path fill="#eebe96" d="M 167.85,201.99 c -0.99,1.71 -1.96,3.42 -2.93,5.14 c -1.16,-0.39 -2.38,-0.67 -3.65,-0.83 c 0.61,-1.57 1.36,-3.08 2.25,-4.51 c 1.54,-2.66 3.83,-4.07 6.86,-4.24 c 0.34,0.16 0.47,0.44 0.41,0.82 c -1.16,1.05 -2.14,2.26 -2.94,3.62 Z"/></g>
<g><path fill="#beb3b1" d="M 184.98,258.39 c -5.85,3.74 -6.91,5.93 -12.96,0.78 c 2.49,-2.19 7.63,0.26 10.61,-1.71 c 0.78,0.3 1.57,0.61 2.35,0.93 Z"/></g>
<g><path fill="#d4b69b" d="M 130.61,220.08 c -0.5,3.9 -0.05,7.68 1.35,11.33 c 0.7,2.59 3.71,4.01 -1.23,3.8 c -1.16,-2.54 -4.09,-9.77 -2.69,-12.22 c 0.39,0.35 0.82,0.42 1.3,0.23 c 0.4,-1.08 0.82,-2.13 1.27,-3.14 Z"/></g>
<g><path fill="#d9c4b7" d="M 258.83,269.24 c 0.01,0.29 0.01,0.58 0.01,0.86 c 0.03,0.34 -0.06,0.64 -0.28,0.9 c -5.81,4.03 -12.18,6.76 -19.11,8.19 c -0.91,0 -1.55,-0.42 -1.91,-1.25 c 0.86,-0.07 1.69,-0.26 2.48,-0.57 c 6.82,-1.45 12.77,-4.83 18.81,-8.13 Z"/></g>
<g><path fill="#f39581" d="M 75.92,143.98 c 1.53,-0.01 1.48,2.51 1.68,3.52 c 0.05,4 0.16,8 0.35,12 c -0.24,1.09 -0.37,4.03 -2.11,3.66 c -1.21,-6.4 -1.18,-12.79 0.08,-19.18 Z"/></g>
<g><path fill="#769ebf" d="M 199.99,121.67 c -2.49,1.16 -4.84,2.57 -7.03,4.22 c -3.8,2.98 -7.19,5.87 -6.83,11.13 c -2.78,-1.08 -1.37,-5.44 0.41,-6.96 c 1.88,-1.87 3.74,-3.74 5.6,-5.6 c 0.8,-3.25 -1.88,-2.45 -3.73,-3.34 c -3.99,-0.12 -7.96,-0.47 -11.91,-1.07 c -3.07,0.17 -6.01,-0.51 -8.39,1.87 c 0.08,-1.01 -0.02,-2.01 -0.32,-2.98 c 0.73,-0.77 1.63,-1.1 2.69,-1 c 6.66,0.77 13.34,1.44 20.02,2 c 3.19,0.5 6.35,1.07 9.49,1.73 Z"/></g>
<g><path fill="#e2d3c6" d="M 200.17,246.13 c 5.85,5.32 13.33,7.01 20.44,3.04 c 0.37,-0.1 0.73,-0.07 1.07,0.09 c 0.06,0.16 0.11,0.31 0.17,0.47 c -1.95,2.61 -8.31,3.64 -11.37,3.25 c -4.5,-0.69 -8.3,-2.68 -11.41,-5.98 c 0.66,0.08 1.03,-0.21 1.1,-0.87 Z"/></g>
<g><path fill="#d9bea3" d="M 148.62,220.98 c 0.37,2.36 0.51,4.73 0.4,7.13 c 0.59,2.25 0.3,6.96 2.94,7.99 c 0.11,2.05 -2.63,1.41 -3.21,-0.19 c -1.29,-3.21 -2.18,-6.53 -2.67,-9.95 c 0.57,0.15 1.09,0.41 1.55,0.78 c 0.55,-1.87 0.88,-3.79 0.99,-5.76 Z"/></g>
<g><path fill="#c0a688" d="M 150.67,218.1 c 0.18,2.43 0.32,4.87 0.41,7.32 c 2.06,2.16 2.47,-2.78 2.6,-3.89 c 0.06,0.89 0.25,1.75 0.57,2.59 c 0.68,0.84 0.29,9.85 1.05,11.6 c 0.8,1.71 0.28,2.39 -1.55,2.02 c -0.81,-0.52 -0.53,-1.96 -1.79,-1.64 c -2.64,-1.03 -2.35,-5.74 -2.94,-7.99 c 0.88,-0.08 1.31,-0.58 1.29,-1.5 c -0.11,-2.14 -0.87,-6.68 0.36,-8.51 Z"/></g>
<g><path fill="#f5ece7" d="M 200.26,209.87 c 1.83,1.27 -1.05,8.74 -3.2,9.59 c -1.36,0.68 -2.8,1.1 -4.31,1.28 c 1.06,-2.65 7.11,-8.66 7.51,-10.87 Z"/></g>
<g><path fill="#cf9e90" d="M 111.94,147.1 c -0.18,0.82 -0.67,1.43 -1.45,1.83 c -0.84,1.66 -0.46,2.93 1.14,3.81 c 4.22,2.17 7.13,2.43 11.85,2.09 c 1.49,-0.5 3.01,-0.75 4.57,-0.74 c -1.3,1.9 -4.53,1.77 -6.55,1.95 c -4.34,0.41 -8.28,-0.63 -11.82,-3.13 c -1.45,-1.86 -1.32,-3.63 0.38,-5.3 c 0.55,-0.47 1.18,-0.64 1.88,-0.51 Z"/></g>
<g><path fill="#fefbb9" stroke="#fefbb9" stroke-width="0.5" d="M 131.89,82.09 c 0.14,-1.07 0.34,-2.14 0.61,-3.18 c 1.89,-2.84 7.1,-3.09 5.91,1.11 c -2.34,3.33 -2.79,2.74 -6.52,2.07 Z"/></g>
<g><path fill="#7a6a4a" d="M 154.05,205.88 c 0.24,0.16 0.48,0.31 0.72,0.47 c -2.43,2.85 -3.37,8.18 -4.1,11.75 c -1.23,1.83 -0.47,6.37 -0.36,8.51 c 0.02,0.92 -0.41,1.42 -1.29,1.5 c 0.11,-2.4 -0.03,-4.77 -0.4,-7.13 c 0.26,-2.66 2.39,-14.72 5.43,-15.1 Z"/></g>
<g><path fill="#7b7057" d="M 129.18,201.04 c 0.27,0.04 0.54,0.07 0.8,0.1 c -0.15,1.83 -2.35,2.56 -3.09,4.24 c -2.17,3.97 -3.58,8.19 -4.22,12.67 c -0.45,-0.06 -0.91,-0.13 -1.36,-0.2 c 0.5,-5.88 2.36,-10.48 5.7,-15.3 c 0.82,-0.38 1.55,-0.89 2.17,-1.51 Z"/></g>
<g><path fill="#6381a1" d="M 219.78,153.41 c 0.68,-0.06 1.36,-0.11 2.04,-0.16 c 1.77,6.36 -2,9.37 -7.59,10.73 c 0.08,-0.71 0.23,-1.4 0.43,-2.08 c 1.03,-0.32 1.99,-0.78 2.89,-1.36 c 2.71,-1.81 3.45,-4.18 2.23,-7.13 Z"/></g>
<g><path fill="#7596b2" d="M 221.93,152.37 c -0.04,0.3 -0.07,0.59 -0.11,0.88 c -0.68,0.05 -1.36,0.1 -2.04,0.16 c -2.37,-3.89 -8,-5.46 -12.28,-5.5 c -3.55,-0.27 -6.84,0.53 -9.84,2.39 c -3.16,2.83 -3.21,5.71 -0.15,8.64 c 5.27,3.54 10.98,4.52 17.15,2.96 c -0.2,0.68 -0.35,1.37 -0.43,2.08 c -0.47,0.31 -0.93,0.63 -1.38,0.97 c -5.03,-1.4 -9.92,0.02 -14.76,-2.59 c -1.27,-1.49 -0.8,-2.25 -3.1,-2.88 c -1.77,-2.17 -1.17,-6.16 -0.71,-8.71 c 7.35,-7.28 21.3,-5.89 27.65,1.6 Z"/></g>
<g><path fill="#6b9bbb" d="M 176.29,194.1 c -0.08,0.25 -0.16,0.49 -0.24,0.74 c -6.09,-1.06 -8.21,-1.3 -13.31,2.37 c -0.11,-0.94 -0.16,-1.88 -0.15,-2.82 c 2.39,-0.51 4.7,-1.24 6.93,-2.19 c 1.84,0.08 3.67,0.2 5.5,0.36 c 0.48,0.46 0.91,0.98 1.27,1.54 Z"/></g>
<g><path fill="#ecbb7c" d="M 183.77,218.72 c 0.58,1.88 1.6,3.47 3.04,4.78 c 2.85,1.94 6.07,1.4 9.11,0.28 c 2.3,0.75 -0.44,2.17 -1.45,2.24 c -2.52,0.27 -7.85,1.02 -9.47,-1.46 c -0.92,-1.01 -3.64,-5.12 -1.23,-5.84 Z"/></g>
<g><path fill="#d8b99e" d="M 134.82,224.1 c 0.47,4.11 1.65,8.02 3.53,11.72 c -0.88,0.08 -1.76,0.02 -2.63,-0.19 c -0.93,-1.77 -1.7,-3.63 -2.32,-5.58 c -0.55,-1.39 -0.59,-2.76 -0.11,-4.13 c 0.42,-0.7 0.93,-1.31 1.53,-1.82 Z"/></g>
<g><path fill="#6189b1" d="M 234.29,127.61 c 3.63,0.57 7.2,1.41 10.7,2.52 c 0.03,0.41 -0.14,0.71 -0.51,0.91 c -3.54,0.31 -7.05,0.17 -10.55,-0.44 c 0.3,-0.97 0.42,-1.97 0.36,-2.99 Z"/></g>
<g><path fill="#5d88a1" d="M 161.74,248.62 c 1.53,0.54 3.05,1.13 4.56,1.75 c -2.64,1.49 -3.98,6.06 -6.48,6.88 c 0.33,-2.61 0.63,-5.23 0.89,-7.85 c 0.2,-0.45 0.54,-0.72 1.03,-0.78 Z"/></g>
<g><path fill="#bda79c" d="M 219.03,279.03 c 3.64,0.33 7.26,0.23 10.86,-0.31 c 0.04,0.8 0.09,1.61 0.15,2.41 c -4.7,0.26 -9.39,0.09 -14.06,-0.52 c 0.97,-0.28 2.91,-0.24 3.05,-1.58 Z"/></g>
<g><path fill="#a3c6cd" d="M 163.87,144.91 c 0.12,0.3 0.25,0.6 0.38,0.9 c -3.94,1.44 -9.07,-0.84 -12.31,-3.1 c -0.52,-0.54 -1.13,-1 -1.8,-1.36 c 1.56,-1.31 4.64,1.01 5.83,2.14 c 1.98,0.43 6.34,0.05 7.9,1.42 Z"/></g>
<g><path fill="#fe9179" d="M 179.79,56.01 c 0.61,-1.92 -1.16,-11.02 1.75,-10.8 c 0.53,0.86 1.36,11.31 -0.34,12.42 c -1.04,0.03 -1.52,-0.51 -1.41,-1.62 Z"/></g>
<g><path fill="#6e8a9b" d="M 147.71,240.2 c 2.55,-0.2 5.09,-0.11 7.62,0.26 c 0.98,0.22 1.58,0.83 1.81,1.82 c -0.52,0.02 -1.02,0.13 -1.51,0.33 c -1.37,-0.28 -2.76,-0.59 -4.18,-0.96 c -1.39,0.53 -1.93,1.51 -1.6,2.96 c -0.68,0.44 -2.02,-3.84 -2.14,-4.41 Z"/></g>
<g><path fill="#e4d1c5" d="M 190.6,235.12 c 0.55,0.21 1.09,0.41 1.64,0.61 c 1.11,1.47 2.13,3 3.06,4.59 c 1.57,1.99 3.19,3.93 4.87,5.81 c -0.07,0.66 -0.44,0.95 -1.1,0.87 c -3.34,-2.69 -6.61,-8.01 -8.47,-11.88 Z"/></g>
<g><path fill="#877959" d="M 146.19,203.9 c 0.24,-0.01 0.48,-0.02 0.73,-0.03 c -2.82,3.96 -4.63,7.59 -5.19,12.49 c -0.08,0.27 -0.24,0.44 -0.49,0.5 c -0.34,-0.31 -0.66,-0.63 -0.97,-0.96 c 0.52,-4 1.94,-7.66 4.26,-10.98 c 0.41,-0.56 0.97,-0.9 1.66,-1.02 Z"/></g>
<g><path fill="#dcd6d3" d="M 205.81,281.62 c 2.37,0.69 4.79,1.17 7.26,1.45 c 1.13,0.82 1.74,2.97 -0.38,2.67 c -0.61,-0.85 -1.38,-1.49 -2.31,-1.93 c -2.15,0.1 -0.36,2.14 -2.74,1.98 c -1.81,-1.81 0.79,-2.46 -3.13,-2.55 c -0.86,-1.03 0.43,-1.56 1.3,-1.62 Z"/></g>
<g><path fill="#e5dcdc" d="M 200.77,269.13 c -0.57,-2.54 -2.16,-3.91 -4.77,-4.11 c 0.06,-1.14 0.82,-3.54 2.4,-2.92 c 1.18,1.54 2.25,3.14 3.23,4.8 c 0.79,0.11 1.49,0.39 2.1,0.84 c 0.3,1.6 -2.01,1.36 -2.96,1.39 Z"/></g>
<g><path fill="#8a8a97" d="M 278.08,238 c -0.11,-2.08 1.8,-2.18 2.46,-0.28 c 1.16,2.44 -2.66,3.24 -2.46,0.28 Z"/></g>
<g><path fill="#b06d5f" d="M 263.05,209.04 c 1.29,-2.59 4.89,0.14 2.29,2.58 c -1.38,-0.31 -2.14,-1.17 -2.29,-2.58 Z"/></g>
<g><path fill="#bce1f1" d="M 141.94,132.01 c -1,0.65 -2,0.6 -2.98,-0.15 c 0.09,-1.56 0.89,-2.44 2.38,-2.64 c 0.81,0.77 1.01,1.7 0.6,2.79 Z"/></g>
<g><path fill="#d1b19c" d="M 267.75,261.02 c 0.29,0.61 0.71,1.11 1.27,1.49 c -2.96,2.56 -3.66,0.31 -1.27,-1.49 Z"/></g>
<g><path fill="#f5c46a" stroke="#f5c46a" stroke-width="0.5" d="M 265.31,270.09 c 0.91,-4.37 6.68,-0.91 9.39,-0.48 c 2.61,0.58 1.94,1.56 0.6,3.12 c -1.81,1.94 -3.7,3.8 -5.67,5.58 c -0.79,0.61 -1.51,0.54 -2.14,-0.2 c -0.69,-2.68 -1.42,-5.35 -2.18,-8.02 Z"/></g>
<g><path fill="#dead8c" d="M 261.93,266 c 0.58,-1.48 1.58,-1.92 3,-1.32 c 1.39,2.79 -3.08,3.9 -3,1.32 Z"/></g>
<g><path fill="#f6cc72" stroke="#f6cc72" stroke-width="0.5" d="M 251.72,260.31 c 0.93,-1.93 6.48,-8.56 8.62,-6.36 c 3.41,10.24 2.13,10.5 -6.92,7.93 c -0.91,-0.16 -1.47,-0.68 -1.7,-1.57 Z"/></g>
<g><path fill="#5c93be" stroke="#5c93be" stroke-width="0.5" d="M 231.16,292.76 c 1.13,-13.51 4.27,-11.21 11.43,-3.2 c -2.27,2.94 -7.97,3.22 -11.43,3.2 Z"/></g>
<g><path fill="#828796" d="M 232.2,279.98 c -0.07,-2.41 3.8,-2.66 3.19,0.09 c -1.12,1.14 -2.18,1.11 -3.19,-0.09 Z"/></g>
<g><path fill="#5a91bd" stroke="#5a91bd" stroke-width="0.5" d="M 226.11,269.98 c 0.03,-0.67 0.34,-1.17 0.93,-1.5 c 1.71,-0.92 8.34,-3.47 9.69,-1.84 c -1.96,10.95 -3.54,12.77 -10.62,3.34 Z"/></g>
<g><path fill="#978a84" d="M 180.85,18.84 c -0.95,0.08 -1.9,0.13 -2.85,0.16 c 0.13,-0.82 0.64,-1.18 1.51,-1.09 c 0.81,-0.13 1.26,0.18 1.34,0.93 Z M 229.75,283.29 c 0.27,0.65 0.14,1.17 -0.39,1.56 c -0.19,-0.63 -0.61,-1 -1.27,-1.11 c 0.45,-0.45 1,-0.6 1.66,-0.45 Z"/></g>
<g><path fill="#b59d9a" d="M 266.94,156.77 c 0.34,-0.03 0.68,-0.06 1.02,-0.08 c 0.29,0.68 0.51,1.38 0.65,2.11 c -0.31,0.38 -0.6,0.78 -0.87,1.19 c -0.94,-0.04 -0.58,-2.57 -0.8,-3.22 Z"/></g>
<g><path fill="#c69973" d="M 177.72,23.67 c 0.09,0.44 0.17,0.88 0.26,1.31 c -0.14,0.71 -0.37,1.39 -0.71,2.03 c -0.33,-0.46 -0.7,-0.88 -1.1,-1.28 c 0.33,-0.81 0.84,-1.49 1.55,-2.06 Z"/></g>
<g><path fill="#bfb1aa" d="M 276.56,229.82 c 0.21,0.78 0.37,1.57 0.5,2.36 c -0.79,-0.09 -1.49,-0.38 -2.11,-0.86 c 0.56,-0.47 1.1,-0.97 1.61,-1.5 Z"/></g>
<g><path fill="#737b7c" d="M 142.2,112.15 c 0.97,0.27 1.46,0.9 1.47,1.87 c -0.75,0 -1.2,-0.35 -1.35,-1.03 c -0.04,-0.28 -0.08,-0.56 -0.12,-0.84 Z"/></g>
<g><path fill="#c3ab9d" d="M 256.72,211.42 c 0.72,-0.22 1.45,-0.43 2.18,-0.63 c -0.1,1.14 -0.7,1.83 -1.79,2.06 c -0.4,-0.4 -0.53,-0.88 -0.39,-1.43 Z"/></g>
<g><path fill="#fde4d0" d="M 258.83,269.24 c 0.41,-0.16 0.73,-0.08 0.97,0.23 c -0.21,0.38 -0.53,0.59 -0.96,0.63 c 0,-0.28 0,-0.57 -0.01,-0.86 Z"/></g>
<g><path fill="#a28984" d="M 242.29,101.05 c 0.3,0.2 0.5,0.48 0.6,0.82 c -0.36,-0.15 -0.56,-0.42 -0.6,-0.82 Z"/></g>
<g><path fill="#b3bec2" d="M 141.06,112.18 c 0.38,-0.01 0.76,-0.02 1.14,-0.03 c 0.04,0.28 0.08,0.56 0.12,0.84 c -0.56,-0.06 -0.98,-0.33 -1.26,-0.81 Z"/></g>
<g><path fill="#8e7d52" d="M 145.24,111.84 c 0.5,0.19 0.78,0.54 0.84,1.07 c -0.58,-0.13 -0.86,-0.49 -0.84,-1.07 Z"/></g>
<g><path fill="#b48470" d="M 260.99,207.65 c 0.69,0.4 0.79,0.87 0.31,1.4 c -0.1,-0.47 -0.21,-0.93 -0.31,-1.4 Z"/></g>
<g><path fill="#cccccb" stroke="#cccccb" stroke-width="0.5" d="M 150.05,265.15 c -0.23,1.03 -0.02,1.94 0.63,2.73 c 1.95,0.58 1.26,-3.62 4.22,-1.16 c 0.32,1.44 -1.84,0.94 -1.93,2.8 c 0.18,1.54 2.04,1.96 2.74,3.27 c 1.64,0.17 1.26,-2.73 3.58,-1.64 c 1.67,1.69 8.41,9.3 10.14,9.71 c 0.16,1.07 0.36,2.13 0.59,3.18 c 1.05,4.57 3.05,8.67 6,12.31 c -1.55,0.45 -13.23,0.42 -14.68,-0.2 c -0.91,0.4 -1.86,0.69 -2.84,0.86 c -1.01,-0.13 -1.69,-0.67 -2.07,-1.63 c -0.61,0.56 -1.27,1.07 -1.97,1.53 c -2.28,0.14 -2.7,-1.28 -5.14,-0.13 c -2.69,-0.33 -5.42,0.48 -7.97,-0.6 c -3.05,1.82 -4.35,-1.13 -6.97,0.79 c -1.05,0.04 -2.06,-0.16 -3.02,-0.61 c -0.94,0.33 -1.9,0.57 -2.89,0.71 c -2.56,-0.42 -1.23,-3.24 -3.22,-0.47 c -1.36,-0.12 -2.6,-0.56 -3.74,-1.32 c -2.51,0.93 -3.37,0.43 -5.66,-0.67 c -1.72,-2.41 -0.91,-1.16 -2.47,0.21 c -1.2,-0.12 -2.28,-0.57 -3.22,-1.35 c -2.93,-0.06 -8.43,-1.81 -11.65,-2.47 c -1.38,-1.89 -0.53,-3.42 -2.97,-0.74 c -1.42,-0.03 -2.58,-1.09 -3.99,-1.33 c -0.7,-0.89 -1.35,-1.8 -1.94,-2.72 c -0.77,0.39 -0.64,1.75 -1.7,1.54 c -2.2,-1.28 -8.45,-5.37 -8.07,-8.21 c 0.79,-1.53 4.41,-6.38 6.37,-5.46 c 0.43,0.6 1.68,2.29 2.48,1.27 c -0.19,-0.91 -0.72,-1.6 -1.58,-2.06 c -0.4,-2 2.65,-1.21 3.47,-0.45 c 0.68,0.87 1.28,1.79 1.79,2.75 c 2.14,-0.74 0.98,0.07 1.64,1.78 c 0.82,0.69 1.76,0.95 2.82,0.77 c 11.61,11.04 13.57,10.29 25.9,0.7 c 8.4,-5.97 17.51,-10.53 27.32,-13.69 Z M 276.86,277.01 c 4.03,-0.46 1.82,1.03 2.92,3.58 c 0.5,3.07 -10.74,8.83 -13.45,8.47 c -0.91,0.67 -1.89,1.23 -2.92,1.69 c -0.97,-0.15 -1.68,-0.67 -2.13,-1.58 c -1.92,-0.14 -1.08,1.5 -0.57,2.37 c -0.08,0.15 -0.17,0.3 -0.25,0.45 c -1.72,0.1 -3.37,0.5 -4.93,1.19 c -0.61,-0.37 -1.23,-0.7 -1.87,-0.99 c -0.94,1.82 -2.34,2.23 -4.2,1.22 c -2.65,1.48 -5.48,1.96 -8.49,1.43 c 2.36,-1.66 6.77,-3.21 4.42,-6.86 c -1.14,-1.4 -3.59,-4.5 -5.5,-4.59 c 0.06,-0.53 0.31,-0.97 0.73,-1.31 c 7.49,-2.11 14.78,-5.08 21.1,-9.73 c 0.45,-0.23 0.8,-0.12 1.07,0.3 c 0.66,2.34 1.33,4.68 2.01,7.01 c 1.04,2.48 2.79,3.15 5.27,2.02 c 1.5,-0.33 5.95,-4.88 6.79,-4.67 Z M 199.87,281.02 c 1.47,-1.15 4.33,0.29 5.94,0.6 c -0.87,0.06 -2.16,0.59 -1.3,1.62 c 3.92,0.09 1.32,0.74 3.13,2.55 c 2.38,0.16 0.59,-1.88 2.74,-1.98 c 0.93,0.44 1.7,1.08 2.31,1.93 c 2.12,0.3 1.51,-1.85 0.38,-2.67 c 2.68,0.31 5.37,0.55 8.07,0.71 c -0.49,1.82 0.66,2.09 1.89,2.91 c 0.97,1.89 -1.09,1.83 -1.82,2.96 c -0.47,1.5 0.92,1.46 1.88,1.8 c 0.32,0.84 0.78,1.6 1.36,2.25 c 2.14,-0.17 0.78,-2.65 3.3,-2.76 c -0.62,1.83 -0.23,3.42 1.18,4.77 c -1.12,1.91 -2.71,1.29 -4.48,0.84 c -4.07,0.91 -8.04,-0.67 -11.91,0.43 c -2.3,-0.71 -1.8,-1.2 -4.12,0.02 c -2.42,-0.24 -2.41,-1.04 -5.03,-0.09 c -2.91,-0.09 -6.27,0.52 -8.98,-0.73 c -0.89,-1.07 -0.08,-2.03 -0.09,-3.24 c 0.47,0.66 1.03,0.79 1.68,0.39 c 0.11,-0.75 0.37,-1.42 0.78,-2.03 c 2.45,-0.32 2.31,-1.92 4.22,-2.99 c 1.05,-1.91 -1.91,-3.01 -3.24,-3.39 c 0.52,-1.4 1.22,-2.7 2.11,-3.9 Z"/></g>
<g><path fill="#42200e" d="M 117.21,188.69 c 1.81,0.88 3.73,1.37 5.75,1.45 c 0.26,1.1 0.62,2.17 1.09,3.22 c -1.53,-0.25 -2.88,0.13 -4.07,1.13 c -8.72,9.04 -11.02,28.74 -6.27,40.2 c 1.3,4.2 5.22,8.63 8.81,3.38 c 0.32,-0.42 0.44,-0.89 0.34,-1.42 c -1.38,-0.56 -2.66,-1.31 -3.84,-2.25 c -1.31,-1.83 -2.26,-3.84 -2.85,-6.02 c -2.01,-9.99 -0.9,-26.19 10.2,-30.48 c 0.33,-0.79 0.24,-1.55 -0.26,-2.28 c 0.56,-0.4 1.09,-0.4 1.6,-0.01 c 0.34,1.87 0.83,3.69 1.47,5.43 c -7.57,-2.13 -10.32,9.69 -11.28,14.94 c -0.71,5.84 0.35,11.34 3.19,16.5 c 0.55,0.75 1.29,1.14 2.21,1.18 c 0.39,-0.2 0.52,-0.5 0.38,-0.93 c -1.7,-2.3 -1.43,-4.76 -2.64,-7.23 c 0.22,-1.84 0.16,-3.66 -0.19,-5.47 c 0.16,-0.73 0.31,-1.45 0.46,-2.18 c 0.45,0.07 0.91,0.14 1.36,0.2 c -0.12,1.74 -1.05,3.51 0.16,5.13 c 0.09,1.42 0.2,2.83 0.34,4.24 c 0.55,2.01 1.21,3.98 1.99,5.92 c 1.08,1.18 2.43,1.67 4.04,1.46 c 0.51,0.14 1.02,0.27 1.53,0.41 c 1.04,0.57 2.16,0.81 3.36,0.71 c 0.35,0.67 0.86,1.18 1.55,1.53 c -0.94,0.35 -1.88,0.69 -2.84,1.02 c -8.26,-2.22 -6.81,4.49 -13.27,5.58 c -11.46,1.96 -15.01,-6.88 -17.08,-16.12 c -13.16,-7.19 -12.65,-19.93 1.66,-25.27 c 3.23,-5.47 5.43,-13.47 13.1,-13.97 Z M 108.48,201.81 c -0.78,1.86 -1.31,3.78 -1.61,5.75 c 0.56,1.14 1.18,2.26 1.84,3.35 c 0.03,1.09 0.3,2.09 0.8,3 c 0.42,-2.98 1.11,-5.95 2.08,-8.88 c 1.12,-3.2 2.55,-6.26 4.26,-9.2 c 0.21,-1.12 3.91,-2.87 2.58,-3.78 c -5.18,-0.93 -8.17,6.03 -9.95,9.76 Z M 211.14,197.04 c 2.05,9.12 4.51,14.88 0.57,24.29 c -2.82,7.17 -8.01,11.54 -15.57,13.09 c -1.23,0.07 -2.46,0.11 -3.69,0.13 c -0.14,0.38 -0.21,0.77 -0.21,1.18 c -0.55,-0.2 -1.09,-0.4 -1.64,-0.61 c -0.7,0.39 -1.38,0.83 -2.02,1.33 c -1.31,-1.88 -2.98,-2.34 -4.99,-1.39 c -1.67,3.32 -3.41,6.61 -5.22,9.86 c -1.71,2.07 -3.74,3.74 -6.11,5.02 c -0.23,-2.16 -1.69,-1.75 -3.33,-2.22 c 0.17,-0.42 0.33,-0.84 0.5,-1.26 c 5.71,0.77 8.52,-7.53 10.36,-11.64 c 1.04,-0.64 2.53,-2.36 2.28,-3.65 c 13.22,0.44 23.55,0.11 27.48,-14.96 c 0.88,-4.74 1.16,-10.46 -1.39,-14.72 c -1.11,-0.49 -3.59,4.25 -4.02,5.13 c -0.14,2.13 -0.11,4.26 0.08,6.39 c -1.23,4.78 -4,8.37 -8.3,10.77 c -3.04,1.12 -6.26,1.66 -9.11,-0.28 c -0.32,-1.94 4.07,0.89 4.25,-3.42 c 0.58,0.17 1.15,0.39 1.69,0.66 c 1.51,-0.18 2.95,-0.6 4.31,-1.28 c 2.15,-0.85 5.03,-8.32 3.2,-9.59 c 1.05,-3.1 2.66,-5.89 4.82,-8.36 c 1.79,-1.54 3.39,-3.26 4.79,-5.15 c 0.55,-0.05 0.98,0.18 1.27,0.68 Z M 105.27,214.91 c 0.44,-2.16 -0.26,-3.81 -2.09,-4.97 c -0.25,-0.85 -0.13,-1.64 0.38,-2.37 c -0.54,-0.41 -1.15,-0.49 -1.84,-0.24 c -3.34,1.44 -5.24,6.7 -4.54,10.14 c 2.18,9.56 11.32,3.91 8.09,-2.56 Z M 105.66,226 c 0.48,3.71 1.59,7.21 3.34,10.51 c 0.42,1.12 3.5,4.38 4.67,2.94 c -2.94,-5.64 -4.21,-11.63 -3.81,-17.98 c -0.03,-0.47 -0.21,-0.88 -0.52,-1.22 c -0.95,2.09 -2.18,4.01 -3.68,5.75 Z M 150.91,253.99 c 1.17,-0.24 1.87,0.23 2.08,1.41 c 0.64,0.41 1.29,0.8 1.96,1.17 c 0.15,4.85 7.98,2.57 10.16,0.14 c 0.74,-0.01 1.46,-0.18 2.14,-0.5 c 1.73,0.76 3.32,1.75 4.77,2.96 c 6.05,5.15 7.11,2.96 12.96,-0.78 c 2.51,-0.76 4.45,2.18 5.84,3.79 c 1.58,2.66 2.37,2.35 5.18,2.84 c 2.61,0.2 4.2,1.57 4.77,4.11 c 0.18,1.25 0.54,2.42 1.06,3.52 c 4.59,2.92 19.28,4.42 24.26,3.59 c 0.17,0.79 1.58,0.51 2.16,0.59 c 0.78,0.43 1.32,1.06 1.64,1.89 c -3.6,0.54 -7.22,0.64 -10.86,0.31 c -5.67,-0.37 -11.21,-1.42 -16.62,-3.15 c -0.79,-0.2 -1.58,-0.24 -2.39,-0.12 c -0.68,-1.61 0.12,-3.85 -2.51,-3.59 c 0.35,-1.28 0.08,-2.4 -0.79,-3.34 c -2.25,-0.36 -4.47,-0.87 -6.65,-1.53 c -1.13,-0.9 -3.03,-5.11 -4.52,-5.07 c -1.96,1.34 -4.03,2.51 -6.21,3.54 c -1.92,0.22 -3.85,0.25 -5.77,0.09 c -0.52,0.56 -0.84,1.22 -0.96,1.99 c -0.83,3.98 -0.81,7.97 0.08,11.96 c -0.47,-0.54 -0.97,-0.62 -1.49,-0.22 c -0.07,1.3 -0.13,2.6 -0.16,3.89 c -0.25,0.36 -0.59,0.55 -1.02,0.56 c -0.23,-1.05 -0.43,-2.11 -0.59,-3.18 c 0.21,-6.59 -5.11,-14.48 -11.07,-16.86 c -2.83,-0.05 -5.59,0.34 -8.31,1.15 c -9.81,3.16 -18.92,7.72 -27.32,13.69 c -1.8,-1.78 0.83,-2.94 2.25,-3.36 c 0.92,-0.83 0.86,-1.67 -0.17,-2.52 c 1.49,-0.98 3,-1.91 4.55,-2.8 c -0.35,1.73 0.31,2.28 1.98,1.65 c 3.47,-2.27 7,-4.46 10.6,-6.54 c 1.21,-0.1 2.37,-0.38 3.48,-0.86 c 0.52,0.14 1.04,0.16 1.55,0.06 c 2.17,-0.92 4.4,-1.68 6.68,-2.27 c 0.46,-0.15 1.66,-0.9 0.52,-1.21 c -0.33,-1.03 0.05,-3.04 -1.57,-2.94 c -4.57,-0.25 -9.1,0.14 -13.57,1.17 c -6.87,1.64 -13.3,4.31 -19.3,8.02 c -1.52,0.53 -2.46,1.58 -2.83,3.15 c -0.3,0.36 -0.68,0.48 -1.13,0.37 c -1.21,-3.59 -2.31,-7.23 -3.31,-10.93 c -0.87,-1.76 -1.59,-5.58 -3.97,-5.78 c -4.7,0.72 -4.48,-0.36 -8.48,-2.55 c -2.76,0.07 -1.9,4.54 -4.17,4.33 c -1.82,0.24 -4.87,-1.7 -5.62,0.84 c 0.37,2.7 0.22,5.16 1.11,7.83 c 0.16,1 -0.08,1.9 -0.73,2.67 c -2.88,-6.06 -5.17,-12.72 3.6,-14.5 c 0.74,-1.26 1.51,-2.51 2.31,-3.75 c 3.3,-4.05 6.11,0.21 9.16,1.66 c 4.26,-0.64 6.92,0.06 8.76,4.43 c 1.01,1.63 2.15,7.91 3.23,8.79 c 4.85,-2.52 9.84,-4.74 14.98,-6.68 c 5.74,-1.86 11.61,-2.69 17.64,-2.5 c 0.34,-0.09 0.55,-0.3 0.63,-0.63 Z M 163.31,261.02 c 0.39,1.18 4.67,7.53 6.16,6.1 c 1.51,-3.69 2.07,-6.04 -2.96,-7.13 c -1.32,-0.35 -2.39,0 -3.2,1.03 Z"/></g>
<g><path fill="#cb8b63" stroke="#cb8b63" stroke-width="0.5" d="M 163.31,261.02 c 0.81,-1.03 1.88,-1.38 3.2,-1.03 c 5.03,1.09 4.47,3.44 2.96,7.13 c -1.49,1.43 -5.77,-4.92 -6.16,-6.1 Z"/></g>
<g><path fill="#af7d5c" d="M 105.66,226 c 1.5,-1.74 2.73,-3.66 3.68,-5.75 c 0.31,0.34 0.49,0.75 0.52,1.22 c -0.4,6.35 0.87,12.34 3.81,17.98 c -1.17,1.44 -4.25,-1.82 -4.67,-2.94 c -1.75,-3.3 -2.86,-6.8 -3.34,-10.51 Z"/></g>
<g><path fill="#d0a27f" d="M 115.85,195.83 c -1.71,2.94 -3.14,6 -4.26,9.2 c -0.97,2.93 -1.66,5.9 -2.08,8.88 c -0.5,-0.91 -0.77,-1.91 -0.8,-3 c -0.66,-1.09 -1.28,-2.21 -1.84,-3.35 c 0.3,-1.97 0.83,-3.89 1.61,-5.75 c 0.28,0.34 0.62,0.61 1.02,0.81 c 0.96,-1.58 1.97,-3.14 3.05,-4.69 c 0.9,-1.03 2,-1.72 3.3,-2.1 Z"/></g>
<g><path fill="#ecc6a5" d="M 115.85,195.83 c -1.3,0.38 -2.4,1.07 -3.3,2.1 c -1.08,1.55 -2.09,3.11 -3.05,4.69 c -0.4,-0.2 -0.74,-0.47 -1.02,-0.81 c 1.78,-3.73 4.77,-10.69 9.95,-9.76 c 1.33,0.91 -2.37,2.66 -2.58,3.78 Z"/></g>
<g><path fill="#a8988d" d="M 226.29,275.16 c 0.87,0.27 1.52,0.83 1.96,1.67 c -0.58,-0.08 -1.99,0.2 -2.16,-0.59 c 0.07,-0.36 0.13,-0.72 0.2,-1.08 Z"/></g>
<g><path fill="#d4b9ab" d="M 200.02,275.76 c 0.81,-0.12 1.6,-0.08 2.39,0.12 c 5.41,1.73 10.95,2.78 16.62,3.15 c -0.14,1.34 -2.08,1.3 -3.05,1.58 c -4.89,-0.37 -9.66,-1.35 -14.3,-2.93 c -0.76,-0.46 -1.31,-1.1 -1.66,-1.92 Z"/></g>
<g><path fill="#d0cecd" stroke="#d0cecd" stroke-width="0.5" d="M 248.28,263.21 c 3.11,1.18 6.26,2.26 9.44,3.25 c -6.18,4.22 -12.04,6.32 -18.8,8.99 c -3.05,-2.51 4.5,-9.53 -0.87,-12.07 c -5.64,-0.79 -10.72,0.53 -15.25,3.95 c -2.2,2.52 1.82,6.15 3.49,7.83 c -0.07,0.36 -0.13,0.72 -0.2,1.08 c -4.98,0.83 -19.67,-0.67 -24.26,-3.59 c -0.52,-1.1 -0.88,-2.27 -1.06,-3.52 c 0.95,-0.03 3.26,0.21 2.96,-1.39 c -0.61,-0.45 -1.31,-0.73 -2.1,-0.84 c -0.98,-1.66 -2.05,-3.26 -3.23,-4.8 c -1.58,-0.62 -2.34,1.78 -2.4,2.92 c -2.81,-0.49 -3.6,-0.18 -5.18,-2.84 c 0.66,-0.29 0.94,-0.8 0.84,-1.52 c -0.81,-0.6 -3.23,-1.35 -1.03,-2.48 c 1.59,-0.57 2.08,0.25 2.9,1.36 c 0.85,-1.54 2.03,-1.89 3.55,-1.05 c 0.3,0.53 0.71,0.93 1.23,1.2 c 1.36,-2.07 2.25,-1.86 4.38,-0.71 c 0.86,-0.3 1.74,-0.55 2.62,-0.75 c 3.48,2.25 10.57,-1.54 13.47,3.65 c 0.39,0.17 0.63,0.05 0.73,-0.34 c -0.87,-0.83 -0.86,-1.61 0.01,-2.33 c 0.95,0.2 1.89,0.43 2.84,0.68 c 3.55,0.28 8.03,-0.15 11.04,1.96 c 1.63,-1.07 1.56,-0.61 3.2,0.22 c 2.19,-1.56 2.37,0.05 4.72,0.11 c 0.79,0.78 1.47,1.61 2.07,2.5 c 0.44,-0.52 0.87,-1.06 1.29,-1.61 c 1.11,-0.33 2.12,-0.1 3.01,0.71 c 0.39,0.01 0.58,-0.18 0.59,-0.57 Z M 197.76,284.92 c 1.33,0.38 4.29,1.48 3.24,3.39 c -1.91,1.07 -1.77,2.67 -4.22,2.99 c -0.41,0.61 -0.67,1.28 -0.78,2.03 c -0.65,0.4 -1.21,0.27 -1.68,-0.39 c -0.6,-1.14 3.19,-6.46 3.44,-8.02 Z"/></g>
<g><path fill="#d2b79d" d="M 125.64,218.07 c -0.09,3.15 0.07,6.29 0.5,9.41 c 0.49,2.67 1.51,5.11 3.06,7.32 c -1.61,0.21 -2.96,-0.28 -4.04,-1.46 c -0.78,-1.94 -1.44,-3.91 -1.99,-5.92 c -0.14,-1.41 -0.25,-2.82 -0.34,-4.24 c 0.66,-0.1 1.26,0.05 1.8,0.46 c 0.22,-1.87 0.56,-3.72 1.01,-5.57 Z"/></g>
<g><path fill="#f5c073" stroke="#f5c073" stroke-width="0.5" d="M 103.18,209.94 c 1.83,1.16 2.53,2.81 2.09,4.97 c -1.45,0.76 -2.78,1.7 -3.99,2.8 c -2.19,0.55 -3.02,-1.47 -2.84,-3.31 c 1.4,-1.09 2.58,-2.41 3.52,-3.94 c 0.33,-0.35 0.74,-0.53 1.22,-0.52 Z"/></g>
<g><path fill="#ca935f" d="M 103.18,209.94 c -0.48,-0.01 -0.89,0.17 -1.22,0.52 c -0.94,1.53 -2.12,2.85 -3.52,3.94 c -0.18,1.84 0.65,3.86 2.84,3.31 c 1.21,-1.1 2.54,-2.04 3.99,-2.8 c 3.23,6.47 -5.91,12.12 -8.09,2.56 c -0.7,-3.44 1.2,-8.7 4.54,-10.14 c 0.69,-0.25 1.3,-0.17 1.84,0.24 c -0.51,0.73 -0.63,1.52 -0.38,2.37 Z"/></g>
<g><path fill="#302217" d="M 261.74,206.09 c -0.24,0.52 -0.49,1.04 -0.75,1.56 c -3.92,-0.41 -7.7,0.09 -11.36,1.5 c -6.34,2.96 -11.06,7.57 -14.16,13.84 c -2.6,6.02 -5.28,12.02 -8.01,17.99 c -1.38,2.57 -3.14,4.83 -5.28,6.78 c -0.23,0.48 -0.39,0.98 -0.5,1.5 c -0.34,-0.16 -0.7,-0.19 -1.07,-0.09 c -7.11,3.97 -14.59,2.28 -20.44,-3.04 c -1.68,-1.88 -3.3,-3.82 -4.87,-5.81 c -0.93,-1.59 -1.95,-3.12 -3.06,-4.59 c 0,-0.41 0.07,-0.8 0.21,-1.18 c 1.23,-0.02 2.46,-0.06 3.69,-0.13 c -0.53,0.15 -0.81,0.5 -0.85,1.05 c 2.86,7.14 12.34,16.31 21.07,13.29 c 17.6,-8.48 12.13,-44.59 44.01,-43.56 c 0.59,0.09 1.04,0.38 1.37,0.89 Z M 256.09,209.16 c 0.72,0.86 2.62,0.3 2.81,1.63 c -0.73,0.2 -1.46,0.41 -2.18,0.63 c -26.76,5.04 -16.76,37.7 -40.23,43.49 c -13.32,2.36 -22.31,-7.79 -27.91,-18.46 c 0.64,-0.5 1.32,-0.94 2.02,-1.33 c 1.86,3.87 5.13,9.19 8.47,11.88 c 3.11,3.3 6.91,5.29 11.41,5.98 c 3.06,0.39 9.42,-0.64 11.37,-3.25 c 4.18,-1.39 8.1,-9.67 9.76,-13.49 c 1.55,-4.12 3.22,-8.19 5.02,-12.21 c 3.57,-6.79 9.62,-12.75 17.17,-14.68 c 0.77,-0.04 1.53,-0.11 2.29,-0.19 Z"/></g>
<g><path fill="#4f1d11" stroke="#4f1d11" stroke-width="0.5" d="M 183.78,21.75 c 20.2,25.97 39.04,52.81 58.51,79.3 c 0.04,0.4 0.24,0.67 0.6,0.82 c 6.9,9.61 13.74,19.26 20.52,28.95 c 0,0.81 -0.29,1.49 -0.87,2.03 c -0.48,-0.75 -0.96,-1.5 -1.45,-2.26 c -0.72,0.2 -1.46,0.3 -2.2,0.28 c -0.4,-0.78 -0.98,-1.33 -1.77,-1.65 c -0.37,-1.17 -1.01,-2.14 -1.92,-2.91 c -17.78,-26 -37.33,-52.03 -55.95,-77.55 c -5.71,-7.72 -11.5,-15.38 -17.39,-22.97 c -1.13,-2.25 -1.84,-2.12 -2.12,0.38 c -0.57,-0.43 -1.15,-0.82 -1.76,-1.19 c -0.09,-0.43 -0.17,-0.87 -0.26,-1.31 c 0.44,-0.48 0.97,-0.82 1.59,-1.03 c 1.42,-2.9 1.98,-0.66 4.47,-0.89 Z M 271.39,208.97 c -2.3,-0.03 -2.86,-0.25 -1.42,1.82 c -2.57,-0.12 -1.36,1.38 -0.09,2.16 c -1,-0.02 -2.63,0.75 -1.72,1.95 c -1.4,2.65 1.71,9.6 -1.36,11.54 c -3.99,0.73 -17.24,-2.93 -14.52,-8.77 c 1.41,-1.8 3.02,-3.41 4.83,-4.82 c 1.09,-0.23 1.69,-0.92 1.79,-2.06 c -0.19,-1.33 -2.09,-0.77 -2.81,-1.63 c 1.74,-0.03 3.47,-0.07 5.21,-0.11 c 0.48,-0.53 0.38,-1 -0.31,-1.4 c 0.26,-0.52 0.51,-1.04 0.75,-1.56 c 0.88,-3.14 -0.22,-6.38 0.01,-9.59 c -0.14,-2.05 0.78,-3.23 2.74,-3.55 c 5.22,0.11 9.58,2.11 13.07,6 c 3.9,4.01 -2.72,7.03 -5.61,8.43 c -0.21,0.52 -0.4,1.05 -0.56,1.59 Z M 264.9,197.99 c 0.13,2.17 0.2,4.33 0.2,6.5 c -0.36,4.6 7.53,-1.06 8.93,-1.91 c 1.25,-1.1 1.14,-2.09 -0.34,-2.97 c -1.32,-1.08 -8.98,-5.69 -8.79,-1.62 Z M 263.05,209.04 c 0.15,1.41 0.91,2.27 2.29,2.58 c 2.6,-2.44 -1,-5.17 -2.29,-2.58 Z M 255.45,218.98 c 0.14,0.51 0.45,0.91 0.93,1.17 c 1.82,1.06 8.58,5.92 8.82,1.42 c -0.12,-2.6 -0.29,-5.19 -0.51,-7.78 c -2.79,-2.8 -7.59,3.15 -9.24,5.19 Z"/></g>
<g><path fill="#27282d" d="M 274.95,231.32 c 0.62,0.48 1.32,0.77 2.11,0.86 c 0.83,-0.55 1.44,-1.3 1.83,-2.24 c 0.04,1.17 0.14,2.32 0.33,3.47 c 0.75,0.86 1.34,0.75 1.77,-0.33 c 0.77,-0.25 1.48,-0.61 2.14,-1.1 c -0.13,0.68 0.05,1.25 0.53,1.71 c 2.3,-0.87 4.62,-1.74 6.95,-2.59 c 2.61,-0.86 4.3,0 5.1,2.57 c 1.31,3.89 -0.83,19.16 -7.38,15.57 c -1.92,-1.45 -3.71,-3.04 -5.36,-4.77 c -0.8,-1.62 -2.1,-2.38 -3.9,-2.26 c -0.78,0.28 -1.32,0.83 -1.62,1.63 c -0.91,-0.57 -1.81,-0.52 -2.7,0.15 c -0.17,-2.03 -4.26,0.96 -5.36,0.95 c -9.7,3.32 -6.45,-13 -2.15,-16.87 c 2.67,-2 5.81,1.64 7.71,3.25 Z M 266.25,237.99 c 0.16,1.02 -0.36,3.87 1.31,3.81 c 9.33,-2.43 11.71,-3.27 3.47,-10.01 c -3.82,-3.59 -4.27,4.14 -4.78,6.2 Z M 282.37,239.08 c 0.43,2.24 4.43,4.52 5.97,6.18 c 3.82,3.37 5.04,-8.45 4.26,-10.46 c -0.54,-2.38 -9.58,1.8 -10.23,4.28 Z M 278.08,238 c -0.2,2.96 3.62,2.16 2.46,-0.28 c -0.66,-1.9 -2.57,-1.8 -2.46,0.28 Z"/></g>
<g><path fill="#2c1f23" d="M 164.74,166.27 c -0.87,-0.01 -1.74,-0.03 -2.61,-0.07 c -4.08,-0.66 -7.47,-2.56 -10.15,-5.68 c -4.05,-4.74 -5.22,-10.09 -3.51,-16.05 c 0.78,-1.33 1.94,-1.91 3.47,-1.76 c 3.24,2.26 8.37,4.54 12.31,3.1 c 0.66,0.28 1.87,1.4 2.41,0.47 c 3.8,-0.99 7.46,-2.35 10.98,-4.07 c 3.97,-0.67 4.45,4.54 4.1,7.26 c -1.56,9.77 -7.23,15.37 -17,16.8 Z M 157.07,160.88 c 6.7,5.57 16.66,1.06 20.3,-6.15 c 1.05,-1.7 2.41,-7.92 0.93,-9.38 c -6.24,2.58 -12.73,3.61 -19.47,3.1 c -2.44,-0.66 -4.9,-1.22 -7.38,-1.66 c -3.71,2.02 1.75,12.82 5.62,14.09 Z"/></g>
<g><path fill="#853c0a" d="M 177.98,24.98 c 0.61,0.37 1.19,0.76 1.76,1.19 c -2.1,17.96 -5.7,35.73 -7.19,53.8 c -1.38,10.64 -2.46,21.31 -3.25,32.01 c -0.07,0.68 -0.16,1.35 -0.26,2.03 c -0.86,0.61 -1.81,1.01 -2.86,1.2 c 0.95,-10.86 1.98,-21.71 3.09,-32.55 c 2.23,-16.96 4.66,-33.89 7.29,-50.79 c 0.19,-1.63 0.43,-3.25 0.71,-4.86 c 0.34,-0.64 0.57,-1.32 0.71,-2.03 Z"/></g>
<g><path fill="#702922" stroke="#702922" stroke-width="0.5" d="M 177.37,154.73 c -4.47,-4.05 -17.88,-0.36 -20.3,6.15 c -3.87,-1.27 -9.33,-12.07 -5.62,-14.09 c 2.48,0.44 4.94,1 7.38,1.66 c 6.74,0.51 13.23,-0.52 19.47,-3.1 c 1.48,1.46 0.12,7.68 -0.93,9.38 Z"/></g>
<g><path fill="#252128" stroke="#252128" stroke-width="0.5" d="M 192.96,125.89 c 0.72,0.28 1.34,0.7 1.88,1.26 c 0.07,0.37 0.3,0.58 0.68,0.63 c 6.84,-0.91 14.08,-0.79 19.99,3.26 c 2.1,1.78 4.15,4.26 2.54,7.06 c -3.17,-1.38 -6.34,-2.78 -9.52,-4.18 c -7.82,-2.44 -13.16,-0.28 -20.16,2.85 c -0.72,0.3 -1.47,0.38 -2.24,0.25 c -0.36,-5.26 3.03,-8.15 6.83,-11.13 Z"/></g>
<g><path fill="#502412" stroke="#502412" stroke-width="0.5" d="M 95.84,255.83 c 0.14,1.42 -2.34,0.77 -3.13,1.34 c -0.8,0.85 -0.93,1.81 -0.38,2.89 c 0.71,7.49 7.59,16.12 13.12,20.96 c 6.24,5.64 13.89,-5.63 19.36,-8.06 c 1.03,0.85 1.09,1.69 0.17,2.52 c -1.42,0.42 -4.05,1.58 -2.25,3.36 c -12.33,9.59 -14.29,10.34 -25.9,-0.7 c -2.3,-3.53 -4.38,-7.18 -6.23,-10.97 c 0.65,-0.77 0.89,-1.67 0.73,-2.67 c -0.89,-2.67 -0.74,-5.13 -1.11,-7.83 c 0.75,-2.54 3.8,-0.6 5.62,-0.84 Z"/></g>
<g><path fill="#312014" d="M 271.39,208.97 c 7.83,4.88 11.67,14.02 11.74,23.01 c -0.66,0.49 -1.37,0.85 -2.14,1.1 c -0.86,-6.7 -1.64,-12.15 -5.99,-17.62 c -1.57,-1.67 -3.24,-3.23 -5.03,-4.67 c -1.44,-2.07 -0.88,-1.85 1.42,-1.82 Z M 269.88,212.95 c 5.39,4.39 8.4,10.06 9.01,16.99 c -0.39,0.94 -1,1.69 -1.83,2.24 c -0.13,-0.79 -0.29,-1.58 -0.5,-2.36 c -1.37,-6.56 -3.26,-10.67 -8.4,-14.92 c -0.91,-1.2 0.72,-1.97 1.72,-1.95 Z"/></g>
<g><path fill="#54190e" stroke="#54190e" stroke-width="0.5" d="M 197.93,96.98 c 0.48,-1.49 1.51,-2.29 3.08,-2.39 c 5.48,-0.03 10,2.06 13.58,6.27 c 1.5,3.23 0.52,4.54 -2.95,3.95 c -3.93,-2.69 -6.97,-3.72 -11.62,-4.53 c -1.54,-0.55 -2.24,-1.65 -2.09,-3.3 Z"/></g>
<g><path fill="#59220a" d="M 167.85,201.99 c 0.82,0.17 1.18,0.69 1.08,1.56 c -1.67,2.95 -2.84,6.09 -3.49,9.43 c -1.93,8.49 -2.12,17.01 -0.55,25.56 c 0.61,3.17 2.13,5.81 4.54,7.92 c -0.17,0.42 -0.33,0.84 -0.5,1.26 c -0.46,0.05 -0.92,0.05 -1.39,0 c -0.41,-0.5 -0.83,-0.97 -1.24,-1.43 c -4.73,-7.8 -4.83,-16.45 -4.32,-25.31 c 0.13,-2.21 0.47,-4.38 1.02,-6.52 c 0.63,-2.45 1.27,-4.9 1.92,-7.33 c 0.97,-1.72 1.94,-3.43 2.93,-5.14 Z"/></g>
<g><path fill="#3d220c" stroke="#3d220c" stroke-width="0.5" d="M 121.11,94.96 c 0.92,-4.86 9.02,-7.76 13.4,-7.27 c 2.5,0.07 3.66,1.32 3.48,3.76 c -0.64,2.57 -6.49,2.11 -8.46,2.78 c -2.12,0.65 -4.19,1.42 -6.2,2.33 c -1.06,-0.08 -1.8,-0.61 -2.22,-1.6 Z"/></g>
<g><path fill="#0f2732" d="M 145.02,116.3 c 0.99,0.41 1.9,0.95 2.73,1.63 c 0.14,0.34 0.27,0.69 0.41,1.04 c 1.1,6.13 -0.29,11.64 -4.17,16.51 c -1.26,1.28 -2.65,2.39 -4.15,3.33 c -1.75,0.25 -3.52,0.42 -5.28,0.53 c -5.37,-0.42 -9.06,-3.13 -11.1,-8.12 c 0.41,-0.61 0.97,-1 1.68,-1.17 c 1.79,7.57 13.48,10.21 17.17,3.69 c 0.3,0.16 0.59,0.15 0.89,-0.03 c 2.86,-2.62 3.22,-8.56 3.11,-12.15 c -0.15,-2 -1.64,-3.21 -1.29,-5.26 Z"/></g>
<g><path fill="#254256" stroke="#254256" stroke-width="0.5" d="M 134.05,110.92 c 2.43,-0.12 4.77,0.3 7.01,1.26 c 0.28,0.48 0.7,0.75 1.26,0.81 c 0.15,0.68 0.6,1.03 1.35,1.03 c 0.2,0.92 0.65,1.68 1.35,2.28 c -0.35,2.05 1.14,3.26 1.29,5.26 c 0.11,3.59 -0.25,9.53 -3.11,12.15 c -0.3,0.18 -0.59,0.19 -0.89,0.03 c -0.09,-0.58 -0.21,-1.16 -0.37,-1.73 c 0.41,-1.09 0.21,-2.02 -0.6,-2.79 c -1.49,0.2 -2.29,1.08 -2.38,2.64 c -4.19,0.27 -7.13,0.12 -10.04,-3.24 c -0.82,-1.46 -1.69,-2.88 -2.61,-4.24 c -1.7,0.01 -1.55,4.58 -1.17,5.67 c -0.71,0.17 -1.27,0.56 -1.68,1.17 c -1.31,-3.04 -1.6,-6.17 -0.88,-9.38 c 0.34,3.94 1.01,3.99 2.03,0.15 c 0.94,-0.31 1.79,-0.79 2.55,-1.42 c 5.42,4.06 11.45,-4.83 2.07,-6.78 c -0.02,-0.31 -0.05,-0.63 -0.07,-0.95 c 0.54,-1.54 3.5,-1.76 4.89,-1.92 Z"/></g>
<g><path fill="#265e79" d="M 162.27,166.71 c 1.13,0.07 1.81,0.64 2.05,1.7 c -0.65,8.66 -1.23,17.32 -1.73,25.98 c -0.01,0.94 0.04,1.88 0.15,2.82 c -0.03,1.73 -0.93,2.58 -2.68,2.53 c -0.31,-10.13 1.11,-21.31 1.73,-31.54 c 0.16,-0.5 0.32,-0.99 0.48,-1.49 Z"/></g>
<g><path fill="#255e77" d="M 166.03,119.02 c 0.58,-0.33 1.17,-0.36 1.76,-0.08 c 0.3,0.97 0.4,1.97 0.32,2.98 c -0.42,7.39 -1.1,14.76 -2.03,22.1 c -0.37,0.94 -0.18,1.69 0.58,2.26 c -0.54,0.93 -1.75,-0.19 -2.41,-0.47 c -0.13,-0.3 -0.26,-0.6 -0.38,-0.9 c 0.01,-8.33 1.18,-16.67 2.09,-24.93 c 0.03,-0.32 0.05,-0.64 0.07,-0.96 Z"/></g>
<g><path fill="#193236" d="M 115.96,118.82 c -1.52,7.88 -0.74,15.27 6.06,20.37 c -0.16,1.72 -2,0.06 -2.79,-0.39 c -0.69,-0.7 -1.5,-1.21 -2.41,-1.54 c -3.41,-5.01 -6.17,-12.9 -3.67,-18.83 c 0.45,-0.33 0.89,-0.67 1.32,-1.03 c 0.23,0.77 0.72,1.24 1.49,1.42 Z"/></g>
<g><path fill="#372515" stroke="#372515" stroke-width="0.5" d="M 178,19 c 0.95,-0.03 1.9,-0.08 2.85,-0.16 c 1.22,0.71 2.2,1.68 2.93,2.91 c -2.49,0.23 -3.05,-2.01 -4.47,0.89 c -0.62,0.21 -1.15,0.55 -1.59,1.03 c -0.71,0.57 -1.22,1.25 -1.55,2.06 c -31.29,28.84 -61.38,59.42 -90.84,90.13 c -1.47,1.35 -1.26,2.04 0.64,2.07 c 0.45,-0.04 0.89,-0.11 1.33,-0.21 c 0.29,-0.02 0.58,-0.05 0.88,-0.08 c 6.03,-0.41 12.07,-0.75 18.11,-1.01 c 2.06,-0.37 4.14,-0.58 6.23,-0.65 c 0.67,-0.06 1.22,-0.34 1.64,-0.84 c 3.99,-8.44 11.46,-12.28 20.74,-10.89 c 2.25,0.68 4.34,1.7 6.27,3.06 c 1.58,1.31 2.93,2.82 4.07,4.53 c -0.02,0.58 0.26,0.94 0.84,1.07 c -0.08,0.51 0.11,0.84 0.57,0.98 c 0.52,0.52 1.14,0.8 1.87,0.85 c 5.89,0.09 11.78,0.25 17.66,0.47 c 0.25,0.53 0.56,1.01 0.94,1.46 c -0.3,0.21 -0.6,0.42 -0.9,0.64 c -5.59,-0.31 -11.19,-0.48 -16.8,-0.52 c -0.83,0 -1.38,0.38 -1.67,1.14 c -0.83,-0.68 -1.74,-1.22 -2.73,-1.63 c -0.7,-0.6 -1.15,-1.36 -1.35,-2.28 c -0.01,-0.97 -0.5,-1.6 -1.47,-1.87 c -0.38,0.01 -0.76,0.02 -1.14,0.03 c -0.13,-2.59 -6.31,-4.76 -8.56,-4.9 c -6.35,-0.27 -11.18,2.32 -14.47,7.77 c -0.57,1.32 -1.26,2.58 -2.07,3.77 c -0.77,-0.18 -1.26,-0.65 -1.49,-1.42 c -0.43,0.36 -0.87,0.7 -1.32,1.03 c -0.86,-0.28 -1.74,-0.39 -2.65,-0.36 c -7.91,0.5 -15.8,1.24 -23.66,2.23 c -1.2,-1.12 -2.8,-0.02 -4.17,0.1 c -0.9,-0.74 -1.7,-0.63 -2.4,0.31 c -0.29,2.31 -0.21,2.66 1.7,3.63 c 1.56,2.59 1.33,3.93 1.83,6.63 c -0.39,0.1 -0.78,0.21 -1.16,0.32 c -0.32,-1.1 -0.76,-2.12 -1.32,-3.08 c -0.75,-0.19 -1.52,-0.33 -2.29,-0.44 c -0.21,-0.49 -0.41,-0.98 -0.61,-1.48 c 0.42,-2.41 -0.05,-2.88 -2.58,-3.49 c 1.41,-2.24 1.72,-5.13 4.06,-7.4 c 31.1,-31.85 62.33,-63.75 94.91,-94.1 c 0.93,-0.95 1.99,-1.72 3.19,-2.3 Z"/></g>
<g><path fill="#542014" d="M 79.03,127.77 c 0.77,0.11 1.54,0.25 2.29,0.44 c 0.56,0.96 1,1.98 1.32,3.08 c 0.32,11.31 1.12,21.34 4.59,32.23 c 0.16,1.97 -0.76,3.07 -2.75,3.3 c -2.41,0.06 -8.08,1.23 -10.2,0.53 c -1.28,-0.95 -1.98,-2.24 -2.1,-3.87 c -1.08,-5.6 -1.05,-11.19 0.08,-16.77 c 0.24,0 0.39,-0.13 0.44,-0.37 c 0.43,-1.81 -0.66,-3.73 0.92,-5.09 c 0.21,-1.2 0.38,-2.41 0.52,-3.63 c 1.52,-2.83 2.51,-5.85 2.97,-9.04 c 0.5,-0.57 1.14,-0.84 1.92,-0.81 Z M 75.92,143.98 c -1.26,6.39 -1.29,12.78 -0.08,19.18 c 0.19,0.32 0.48,0.52 0.86,0.59 c 1.58,-0.24 5.95,0.86 6.48,-1.21 c -1.13,-4.75 -2.06,-9.54 -2.78,-14.38 c -0.38,-5.27 -0.37,-10.54 0.02,-15.81 c -0.42,-1.82 -1.05,-1.87 -1.89,-0.17 c -0.95,3.92 -1.82,7.85 -2.61,11.8 Z"/></g>
<g><path fill="#2d4249" stroke="#2d4249" stroke-width="0.5" d="M 75.84,122.8 c 2.53,0.61 3,1.08 2.58,3.49 c 0.2,0.5 0.4,0.99 0.61,1.48 c -0.78,-0.03 -1.42,0.24 -1.92,0.81 c -0.46,3.19 -1.45,6.21 -2.97,9.04 c -0.14,1.22 -0.31,2.43 -0.52,3.63 c -1.58,1.36 -0.49,3.28 -0.92,5.09 c -0.05,0.24 -0.2,0.37 -0.44,0.37 c -0.11,-0.34 -0.35,-0.53 -0.72,-0.55 c -1.32,3.37 -2.37,6.85 -3.14,10.43 c -1.06,2.04 -2.46,2.27 -4.2,0.69 c -2.72,-2.75 -4.97,-5.83 -6.74,-9.26 c -1.75,-7.14 14.12,-19.89 18.38,-25.22 Z M 60.74,146.24 c -0.11,1.34 4.23,7.6 5.12,6.12 c 1.53,-7.61 6.1,-13.21 8.85,-20.31 c 0.03,-0.83 1.5,-3.15 0.71,-3.74 c -3.43,3.48 -6.84,6.99 -10.23,10.55 c -1.92,2.2 -3.4,4.66 -4.45,7.38 Z"/></g>
<g><path fill="#223338" stroke="#223338" stroke-width="0.5" d="M 82.67,120.4 c -0.1,0.33 -0.59,1.63 0.27,1.32 c 0.45,1.4 1.06,2.71 1.83,3.96 c 12.3,21.42 23.87,44.59 38.19,64.46 c -2.02,-0.08 -3.94,-0.57 -5.75,-1.45 c -2.47,-2.01 -33.12,-55.06 -33.41,-57.72 c -0.5,-2.7 -0.27,-4.04 -1.83,-6.63 c -1.91,-0.97 -1.99,-1.32 -1.7,-3.63 c 0.7,-0.94 1.5,-1.05 2.4,-0.31 Z"/></g>
<g><path fill="#3b2e25" d="M 122.96,190.14 c 0.77,-0.18 1.54,-0.19 2.32,-0.03 c 0.73,0.88 1.58,1.65 2.55,2.31 c 0.7,1.35 1.42,2.7 2.15,4.03 c 0.42,0.6 0.98,1.02 1.67,1.25 c 6.97,1.63 14.24,1.9 21.35,2.57 c 1.76,0.18 3.56,0.3 5.38,0.35 c 0.68,-0.04 1.25,-0.33 1.68,-0.88 c 1.75,0.05 2.65,-0.8 2.68,-2.53 c 5.1,-3.67 7.22,-3.43 13.31,-2.37 c 0.82,0.65 1.74,1.1 2.76,1.36 c 0.8,1.29 1.64,2.56 2.52,3.81 c 1.03,2.13 1.85,4.34 2.44,6.63 c 0.16,2.38 0.49,4.73 0.99,7.05 c 0.95,1.77 2.02,3.44 3.22,5.03 c 0.44,0.06 0.88,0.11 1.32,0.17 c 0.4,0.61 0.98,1.01 1.76,1.19 c -0.18,4.31 -4.57,1.48 -4.25,3.42 c -1.44,-1.31 -2.46,-2.9 -3.04,-4.78 c -0.58,-1.19 -1.32,-2.28 -2.2,-3.28 c 0.63,-0.68 0.67,-1.41 0.12,-2.16 c 0.46,-0.67 0.28,-1.15 -0.54,-1.46 c 0.41,-4.41 -2.68,-16.91 -9.28,-12.53 c -1.21,1.25 -2.19,2.67 -2.94,4.26 c 0.1,-0.87 -0.26,-1.39 -1.08,-1.56 c 0.8,-1.36 1.78,-2.57 2.94,-3.62 c 0.06,-0.38 -0.07,-0.66 -0.41,-0.82 c -3.03,0.17 -5.32,1.58 -6.86,4.24 c -0.4,-0.63 -0.92,-0.76 -1.57,-0.42 c -0.72,1.14 -1.66,2.01 -2.84,2.62 c -1.78,-0.16 -4.39,-0.05 -4.34,2.36 c -0.24,-0.16 -0.48,-0.31 -0.72,-0.47 c 0.62,-2.04 -0.08,-2.74 -2.09,-2.1 c -0.61,0.63 -1.33,1.09 -2.16,1.37 c -0.15,-0.01 -0.3,-0.01 -0.45,-0.02 c -0.06,-0.91 1.06,-1.36 0.03,-1.97 c -0.91,-0.12 -1.73,0.12 -2.46,0.71 c -0.25,0.01 -0.49,0.02 -0.73,0.03 c -0.46,-2.49 -3.13,0.05 -4.39,0.4 c -0.17,-0.11 -0.34,-0.22 -0.51,-0.33 c 0.75,-1.6 0.32,-2.07 -1.3,-1.4 c -1.62,1.22 -3.01,2.6 -4.19,4.14 c -0.02,-0.22 -0.03,-0.44 -0.05,-0.66 c 0.22,-2.35 1.32,-2.14 2.19,-3.7 c -0.86,-1.24 -2.61,-0.07 -3.84,-0.38 c -0.08,-0.44 -0.35,-0.67 -0.79,-0.7 c -1.1,-0.17 -2.21,-0.21 -3.33,-0.13 c -0.26,-0.03 -0.53,-0.06 -0.8,-0.1 c -0.64,-1.74 -1.13,-3.56 -1.47,-5.43 c -0.51,-0.39 -1.04,-0.39 -1.6,0.01 c -0.34,-1.08 -1.02,-1.83 -2.06,-2.26 c -0.47,-1.05 -0.83,-2.12 -1.09,-3.22 Z"/></g>
<g><path fill="#4a1a05" stroke="#4a1a05" stroke-width="0.5" d="M 181.15,211.82 c 0.82,0.31 1,0.79 0.54,1.46 c 0.55,0.75 0.51,1.48 -0.12,2.16 c -0.77,-0.52 -3.7,-2.32 -3.59,-0.07 c 0.27,1.15 1.88,2.6 0.47,3.61 c -1.23,0.12 -2.45,0.26 -3.67,0.42 c -3.11,1.61 -4.22,4.12 -3.33,7.56 c 2.02,4.65 6.18,4.66 10.62,4.21 c 0.25,1.29 -1.24,3.01 -2.28,3.65 c -8.48,0.68 -12.07,-4.92 -12.09,-12.72 c 1.68,-3.63 2.71,-5 6.1,-6.81 c 1.17,-3.93 3.62,-5.08 7.35,-3.47 Z"/></g>
<g><path fill="#3f1b07" d="M 163.52,201.79 c -0.89,1.43 -1.64,2.94 -2.25,4.51 c -1.99,4.97 -3.2,10.15 -3.61,15.56 c -0.47,4.76 -0.15,9.47 0.96,14.13 c 0.08,0.98 -0.31,3.23 -1.78,1.92 c -0.21,-0.97 -0.72,-1.7 -1.54,-2.19 c -0.76,-1.75 -0.37,-10.76 -1.05,-11.6 c 1,-6.61 1.49,-14.16 4.86,-20.13 c 1.18,-0.61 2.12,-1.48 2.84,-2.62 c 0.65,-0.34 1.17,-0.21 1.57,0.42 Z"/></g>
<g><path fill="#582408" d="M 154.17,260.99 c 1.14,0.31 -0.06,1.06 -0.52,1.21 c -2.28,0.59 -4.51,1.35 -6.68,2.27 c -0.51,0.1 -1.03,0.08 -1.55,-0.06 c -1.11,0.48 -2.27,0.76 -3.48,0.86 c -3.6,2.08 -7.13,4.27 -10.6,6.54 c -1.67,0.63 -2.33,0.08 -1.98,-1.65 c 5,-2.83 19.29,-9.96 24.81,-9.17 Z"/></g>
<g><path fill="#39607c" d="M 157.14,242.28 c 0.3,0.01 0.53,0.15 0.71,0.4 c 1.05,2.2 2.34,4.18 3.89,5.94 c -0.49,0.06 -0.83,0.33 -1.03,0.78 c -0.26,2.62 -0.56,5.24 -0.89,7.85 c -0.58,-0.03 -1.15,-0.13 -1.71,-0.28 c -1.34,-1.52 0.49,-5.19 -0.33,-7.33 c -0.58,-2.39 -1.29,-4.73 -2.15,-7.03 c 0.49,-0.2 0.99,-0.31 1.51,-0.33 Z"/></g>
<g><path fill="#75423d" d="M 169.04,114.01 c 0.2,0.7 0.68,1.07 1.43,1.11 c 5.54,0.53 11.06,1.21 16.57,2.06 c -1.69,1.57 -7.86,0.14 -10.25,0.42 c -2.73,-1.57 -6.64,-0.73 -9.67,-0.93 c -0.38,-0.45 -0.69,-0.93 -0.94,-1.46 c 1.05,-0.19 2,-0.59 2.86,-1.2 Z"/></g>
<g><path fill="#6a5055" d="M 166.22,117.31 c 0.3,-0.22 0.6,-0.43 0.9,-0.64 c 3.03,0.2 6.94,-0.64 9.67,0.93 c 2.39,-0.28 8.56,1.15 10.25,-0.42 c 5.93,0.72 11.85,1.47 17.78,2.27 c -0.7,0.29 -2.76,0.45 -2.58,1.56 c -0.66,0.54 -1.41,0.76 -2.25,0.66 c -3.14,-0.66 -6.3,-1.23 -9.49,-1.73 c -6.68,-0.56 -13.36,-1.23 -20.02,-2 c -1.06,-0.1 -1.96,0.23 -2.69,1 c -0.59,-0.28 -1.18,-0.25 -1.76,0.08 c -0.05,-0.59 0.01,-1.16 0.19,-1.71 Z"/></g>
<g><path fill="#1a2f47" d="M 202.24,121.01 c 1.19,0.32 7.59,-1.06 4.84,1.8 c -4.51,0.06 -8.38,2.44 -12.24,4.34 c -0.54,-0.56 -1.16,-0.98 -1.88,-1.26 c 2.19,-1.65 4.54,-3.06 7.03,-4.22 c 0.84,0.1 1.59,-0.12 2.25,-0.66 Z"/></g>
<g><path fill="#573e41" d="M 204.82,119.45 c 1.9,0.17 3.79,0.43 5.67,0.76 c 8.57,1.98 17.19,3.74 25.84,5.3 c 6.42,1.28 12.83,2.65 19.23,4.11 c 0.61,0.16 1.13,0.03 1.56,-0.4 c 0.79,0.32 1.37,0.87 1.77,1.65 c 0.74,0.02 1.48,-0.08 2.2,-0.28 c 0.49,0.76 0.97,1.51 1.45,2.26 c 0.58,-0.54 0.87,-1.22 0.87,-2.03 c 0.89,3.19 1.56,4.52 3.7,7.05 c -1.94,-0.22 -1.6,2.02 -2.11,3.2 c -0.17,1.38 0.06,2.69 0.7,3.94 c -0.76,0.66 -1.03,1.48 -0.83,2.47 c 1,3.09 2.03,6.16 3.09,9.21 c -0.34,0.02 -0.68,0.05 -1.02,0.08 c -0.44,-0.93 -0.9,-1.84 -1.38,-2.75 c -0.47,-1.11 0.01,-3.08 -1.08,-3.81 c -0.51,0.36 -0.78,0.87 -0.81,1.52 c -0.84,-2.31 -1.38,-4.73 -1.63,-7.26 c -1.08,-0.95 -1.48,1.39 -1.47,2.09 c -0.72,0.21 -0.2,-10.16 -0.19,-11.19 c -0.33,-1.5 -1.07,-1.72 -2.22,-0.66 c -2.84,-3.8 -9.08,-2.79 -13.17,-4.58 c -3.5,-1.11 -7.07,-1.95 -10.7,-2.52 c -0.35,-0.06 -0.7,-0.13 -1.05,-0.2 c -6.75,-1.3 -13.48,-2.63 -20.22,-4 c -1.95,-0.47 -3.93,-0.66 -5.94,-0.6 c 2.75,-2.86 -3.65,-1.48 -4.84,-1.8 c -0.18,-1.11 1.88,-1.27 2.58,-1.56 Z"/></g>
<g><path fill="#5b3514" d="M 267.11,137.87 c 4,4.86 8.05,9.67 12.15,14.45 c 3.87,4.54 5.76,8.59 0.87,13.35 c -1.05,1.23 -7.38,8.67 -8.4,3.91 c -0.93,-3.63 -1.97,-7.22 -3.12,-10.78 c -0.14,-0.73 -0.36,-1.43 -0.65,-2.11 c -1.06,-3.05 -2.09,-6.12 -3.09,-9.21 c -0.2,-0.99 0.07,-1.81 0.83,-2.47 c 0.96,4.13 4.4,8.86 5.93,12.96 c 0.9,2.74 1.88,5.43 2.94,8.07 c 1.23,0.12 2.79,-2.51 3.59,-3.34 c 0.96,-1.06 1.42,-2.29 1.38,-3.69 c -3.34,-6.93 -9.74,-11.71 -13.5,-17.59 c -0.27,-0.35 -0.62,-0.47 -1.04,-0.35 c 0.51,-1.18 0.17,-3.42 2.11,-3.2 Z"/></g>
<g><path fill="#212c33" d="M 127.25,114.07 c 0.23,-0.04 0.47,-0.09 0.7,-0.14 c -0.34,0.75 -0.78,1.43 -1.32,2.04 c -0.65,1.62 -0.47,3.16 0.53,4.6 c -0.76,0.63 -1.61,1.11 -2.55,1.42 c -1.02,3.84 -1.69,3.79 -2.03,-0.15 c 0.44,-2.25 2.17,-7.19 4.67,-7.77 Z"/></g>
<g><path fill="#422814" d="M 279.07,242.21 c 1.8,-0.12 3.1,0.64 3.9,2.26 c -0.31,-0.28 -0.64,-0.32 -0.99,-0.12 c -1.11,3.97 -2.68,7.75 -4.72,11.34 c -2.08,3.39 -4.37,6.6 -6.89,9.62 c 0.11,0.13 0.22,0.27 0.33,0.4 c 3.23,0.73 10.27,0.94 8.6,6.03 c -0.79,1.77 -1.61,3.53 -2.44,5.27 c -0.84,-0.21 -5.29,4.34 -6.79,4.67 c -2.48,1.13 -4.23,0.46 -5.27,-2.02 c -0.68,-2.33 -1.35,-4.67 -2.01,-7.01 c -0.27,-0.42 -0.62,-0.53 -1.07,-0.3 c -6.32,4.65 -13.61,7.62 -21.1,9.73 c -0.42,0.34 -0.67,0.78 -0.73,1.31 c -0.79,0.2 -1.36,-0.11 -1.71,-0.92 c -0.29,-1.54 -1.58,-2.95 -0.64,-4.53 c 0.36,0.83 1,1.25 1.91,1.25 c 6.93,-1.43 13.3,-4.16 19.11,-8.19 c 0.22,-0.26 0.31,-0.56 0.28,-0.9 c 0.43,-0.04 0.75,-0.25 0.96,-0.63 c -0.24,-0.31 -0.56,-0.39 -0.97,-0.23 c -6.04,3.3 -11.99,6.68 -18.81,8.13 c -1.2,-0.35 -2.4,-0.64 -3.62,-0.85 c 0.82,-0.41 1.66,-0.76 2.52,-1.07 c 6.76,-2.67 12.62,-4.77 18.8,-8.99 c -3.18,-0.99 -6.33,-2.07 -9.44,-3.25 c -1.1,-5.81 5.57,-11.09 10.33,-13.12 c 6.71,-1.91 3.93,11.33 7.44,8.47 c 3.91,-4.25 6.81,-9.1 8.7,-14.57 c 0.89,-0.67 1.79,-0.72 2.7,-0.15 c -1.94,6.45 -5.18,12.18 -9.7,17.18 c -2.39,1.8 -1.69,4.05 1.27,1.49 c 3.52,-4.4 10.94,-14.56 10.05,-20.3 Z M 251.72,260.31 c 0.23,0.89 0.79,1.41 1.7,1.57 c 9.05,2.57 10.33,2.31 6.92,-7.93 c -2.14,-2.2 -7.69,4.43 -8.62,6.36 Z M 261.93,266 c -0.08,2.58 4.39,1.47 3,-1.32 c -1.42,-0.6 -2.42,-0.16 -3,1.32 Z M 265.31,270.09 c 0.76,2.67 1.49,5.34 2.18,8.02 c 0.63,0.74 1.35,0.81 2.14,0.2 c 1.97,-1.78 3.86,-3.64 5.67,-5.58 c 1.34,-1.56 2.01,-2.54 -0.6,-3.12 c -2.71,-0.43 -8.48,-3.89 -9.39,0.48 Z"/></g>
<g><path fill="#2b3038" d="M 238.92,275.45 c -0.86,0.31 -1.7,0.66 -2.52,1.07 c 1.22,0.21 2.42,0.5 3.62,0.85 c -0.79,0.31 -1.62,0.5 -2.48,0.57 c -0.94,1.58 0.35,2.99 0.64,4.53 c 0.35,0.81 0.92,1.12 1.71,0.92 c 1.91,0.09 4.36,3.19 5.5,4.59 c 2.35,3.65 -2.06,5.2 -4.42,6.86 c -3.56,1.07 -8.49,2.33 -12.04,0.87 c -1.41,-1.35 -1.8,-2.94 -1.18,-4.77 c 0.28,-2.09 0.81,-4.12 1.61,-6.09 c 0.53,-0.39 0.66,-0.91 0.39,-1.56 c 0.43,-0.68 0.53,-1.4 0.29,-2.16 c -0.06,-0.8 -0.11,-1.61 -0.15,-2.41 c -0.32,-0.83 -0.86,-1.46 -1.64,-1.89 c -0.44,-0.84 -1.09,-1.4 -1.96,-1.67 c -1.67,-1.68 -5.69,-5.31 -3.49,-7.83 c 4.53,-3.42 9.61,-4.74 15.25,-3.95 c 5.37,2.54 -2.18,9.56 0.87,12.07 Z M 226.11,269.98 c 7.08,9.43 8.66,7.61 10.62,-3.34 c -1.35,-1.63 -7.98,0.92 -9.69,1.84 c -0.59,0.33 -0.9,0.83 -0.93,1.5 Z M 232.2,279.98 c 1.01,1.2 2.07,1.23 3.19,0.09 c 0.61,-2.75 -3.26,-2.5 -3.19,-0.09 Z M 231.16,292.76 c 3.46,0.02 9.16,-0.26 11.43,-3.2 c -7.16,-8.01 -10.3,-10.31 -11.43,3.2 Z"/></g>
<g><path fill="#3d4245" d="M 129.16,112.84 c 0.02,0.32 0.05,0.64 0.07,0.95 c -0.43,0.05 -0.85,0.1 -1.28,0.14 c -0.23,0.05 -0.47,0.1 -0.7,0.14 c 0.33,-0.81 0.97,-1.22 1.91,-1.23 Z"/></g>
<g><path fill="#38241a" d="M 201.68,277.68 c 4.64,1.58 9.41,2.56 14.3,2.93 c 4.67,0.61 9.36,0.78 14.06,0.52 c 0.24,0.76 0.14,1.48 -0.29,2.16 c -0.66,-0.15 -1.21,0 -1.66,0.45 c -2.31,0.16 -4.63,0.17 -6.95,0.04 c -2.7,-0.16 -5.39,-0.4 -8.07,-0.71 c -2.47,-0.28 -4.89,-0.76 -7.26,-1.45 c -1.61,-0.31 -4.47,-1.75 -5.94,-0.6 c -0.83,-1.94 -0.23,-3.05 1.81,-3.34 Z"/></g>
<g><path fill="#52240f" d="M 197.51,272.17 c 2.63,-0.26 1.83,1.98 2.51,3.59 c 0.35,0.82 0.9,1.46 1.66,1.92 c -2.04,0.29 -2.64,1.4 -1.81,3.34 c -0.89,1.2 -1.59,2.5 -2.11,3.9 c -0.25,1.56 -4.04,6.88 -3.44,8.02 c -2.55,0.68 -3.27,3.69 -5.83,4.03 c -2.82,-0.21 -10.31,0.73 -12.47,-0.62 c -2.95,-3.64 -4.95,-7.74 -6,-12.31 c 0.43,-0.01 0.77,-0.2 1.02,-0.56 c 0.03,-1.29 0.09,-2.59 0.16,-3.89 c 0.52,-0.4 1.02,-0.32 1.49,0.22 c 0.51,3.36 1.5,6.57 2.97,9.63 c 0.11,0.21 0.21,0.42 0.31,0.63 c 4.47,9.22 12.3,4.91 16.15,-2 c 2.49,-4.02 4.12,-8.36 4.89,-13.02 c 0,-1 0.17,-1.95 0.5,-2.88 Z"/></g>
<g><path fill="#2e3033" d="M 147.71,240.2 c 0.12,0.57 1.46,4.85 2.14,4.41 c 1.98,3.98 4.07,7.91 6.27,11.79 c 0.55,0.58 1.21,0.77 1.99,0.57 c 0.56,0.15 1.13,0.25 1.71,0.28 c 2.5,-0.82 3.84,-5.39 6.48,-6.88 c 2.26,-0.59 1.09,2.47 1.82,3.77 c -0.57,0.6 -0.86,1.29 -0.87,2.07 c -0.68,0.32 -1.4,0.49 -2.14,0.5 c -2.18,2.43 -10.01,4.71 -10.16,-0.14 c -0.67,-0.37 -1.32,-0.76 -1.96,-1.17 c -0.21,-1.18 -0.91,-1.65 -2.08,-1.41 c -2.37,-4.3 -4.85,-8.54 -7.42,-12.7 c 1.23,-0.99 2.64,-1.36 4.22,-1.09 Z"/></g>
<g><path fill="#432d1f" d="M 140.27,215.9 c 0.31,0.33 0.63,0.65 0.97,0.96 c -0.17,3.71 -1,6.76 0.8,10.18 c -0.37,0.81 -0.48,1.65 -0.35,2.53 c 1.27,1.87 0.56,3.52 2.33,4.97 c 0.27,0.71 0.56,1.41 0.84,2.1 c 0.78,0.43 3.17,0.81 3.09,-0.64 c 0.27,-0.03 0.54,-0.06 0.8,-0.09 c 0.58,1.6 3.32,2.24 3.21,0.19 c 1.26,-0.32 0.98,1.12 1.79,1.64 c 1.83,0.37 2.35,-0.31 1.55,-2.02 c 0.82,0.49 1.33,1.22 1.54,2.19 c 1.47,1.31 1.86,-0.94 1.78,-1.92 c 0.51,2.87 1.57,5.52 3.18,7.94 c 0.71,0.92 3.33,3.52 4.5,2.36 c 0.41,0.46 0.83,0.93 1.24,1.43 c 0.47,0.05 0.93,0.05 1.39,0 c 1.64,0.47 3.1,0.06 3.33,2.22 c -1.68,1.1 -3.06,2.5 -4.14,4.2 c -0.73,-1.3 0.44,-4.36 -1.82,-3.77 c -1.51,-0.62 -3.03,-1.21 -4.56,-1.75 c -1.55,-1.76 -2.84,-3.74 -3.89,-5.94 c -0.18,-0.25 -0.41,-0.39 -0.71,-0.4 c -0.23,-0.99 -0.83,-1.6 -1.81,-1.82 c -2.53,-0.37 -5.07,-0.46 -7.62,-0.26 c -1.58,-0.27 -2.99,0.1 -4.22,1.09 c -2.5,-2.82 -7.33,-1.96 -10.69,-2.82 c 0.96,-0.33 1.9,-0.67 2.84,-1.02 c -0.69,-0.35 -1.2,-0.86 -1.55,-1.53 c 0.53,-0.13 1.08,-0.23 1.63,-0.29 c 0.87,0.21 1.75,0.27 2.63,0.19 c 0.37,-0.05 0.66,-0.23 0.87,-0.53 c 0.9,0.8 1.95,1.24 3.16,1.31 c 0.73,-0.67 -1.32,-3.5 -1.22,-4.46 c 0.38,-1.7 0.09,-3.28 -0.87,-4.72 c -0.04,-3.13 -0.19,-6.25 -0.47,-9.35 c 0.17,-0.72 0.32,-1.45 0.45,-2.17 Z"/></g>
<g><path fill="#252f3a" stroke="#252f3a" stroke-width="0.5" d="M 260.57,146.56 c -0.39,3.81 -0.78,7.61 -1.16,11.42 c 0.42,5.99 -9.21,19.98 3.01,17.01 c 2.89,-1.39 1.52,-19.93 1.25,-23.26 c 0.03,-0.65 0.3,-1.16 0.81,-1.52 c 1.09,0.73 0.61,2.7 1.08,3.81 c 0.48,0.91 0.94,1.82 1.38,2.75 c 0.22,0.65 -0.14,3.18 0.8,3.22 c 0.17,4.86 -0.06,9.69 -0.69,14.51 c 0.01,2.02 -0.87,3.49 -2.62,4.4 c -2.89,0.23 -10.39,-0.26 -12.54,-2.13 c -0.37,-1.12 -0.39,-2.27 -0.06,-3.43 c 2.32,-6.16 3.93,-12.49 4.83,-19.01 c 0.31,-3.97 0.72,-7.92 1.22,-11.87 c 0.07,-0.46 -0.07,-0.81 -0.44,-1.05 c -6.95,7.62 -13.69,15.46 -20.21,23.49 c -8.72,10.7 -17.41,21.41 -26.09,32.14 c -0.29,-0.5 -0.72,-0.73 -1.27,-0.68 c -1.4,1.89 -3,3.61 -4.79,5.15 c -2.16,2.47 -3.77,5.26 -4.82,8.36 c -0.4,2.21 -6.45,8.22 -7.51,10.87 c -0.54,-0.27 -1.11,-0.49 -1.69,-0.66 c -0.78,-0.18 -1.36,-0.58 -1.76,-1.19 c 20.96,-28.22 43.64,-54.83 65.89,-81.99 c 1.1,-0.56 2.09,-1.29 2.97,-2.19 c 1.15,-1.06 1.89,-0.84 2.22,0.66 c -0.01,1.03 -0.53,11.4 0.19,11.19 Z"/></g>
</svg>
